juliamono.glyphspackage
{
glyphname = exclam;
layers = (
{
hints = (
{
horizontal = 1;
options = 4;
origin = (0,2);
stem = -1;
type = TTSnap;
}
);
layerId = "63BE41E3-0F49-4E61-A903-F52A2E952C90";
shapes = (
{
closed = 1;
nodes = (
(692,496,l),
(744,1518,l),
(456,1518,l),
(508,496,l)
);
},
{
pos = (88,34);
ref = period;
scale = (0.8528,0.8528);
}
);
width = 1200;
},
{
hints = (
{
horizontal = 1;
options = 4;
place = (-4, 155);
type = TTStem;
},
{
horizontal = 1;
options = 4;
place = (1520, 0);
stem = -1;
type = TTSnap;
}
);
layerId = "F48F13AC-C425-4574-8B52-7DBCB7751002";
shapes = (
{
closed = 1;
nodes = (
(748,464,l),
(798,1518,l),
(401,1518,l),
(452,464,l)
);
},
{
pos = (88,34);
ref = period;
scale = (0.8528,0.8528);
}
);
width = 1200;
},
{
hints = (
{
horizontal = 1;
options = 4;
place = (19, 271.667);
type = TTStem;
},
{
horizontal = 1;
options = 4;
origin = (0,2);
stem = -1;
type = TTSnap;
},
{
horizontal = 1;
place = (1640, 23.333);
type = TTStem;
},
{
horizontal = 1;
origin = (0,3);
type = TTSnap;
},
{
horizontal = 1;
place = (166, 64);
type = TTStem;
}
);
layerId = "4FB9B80E-81B5-47C9-A539-BB7C5ADDFB58";
shapes = (
{
closed = 1;
nodes = (
(684,502,l),
(736,1518,l),
(464,1518,l),
(516,502,l)
);
},
{
alignment = -1;
pos = (88,34);
ref = period;
scale = (0.8528,0.8528);
}
);
width = 1200;
},
{
hints = (
{
horizontal = 1;
options = 4;
origin = (0,2);
stem = -1;
type = TTSnap;
}
);
layerId = "92EF81BF-A460-40B9-8F71-75F6CAA5A9CA";
shapes = (
{
closed = 1;
nodes = (
(716,480,l),
(768,1518,l),
(432,1518,l),
(484,480,l)
);
},
{
alignment = -1;
pos = (88,34);
ref = period;
scale = (0.8528,0.8528);
}
);
width = 1200;
}
);
note = exclam;
unicode = 33;
}
{
glyphname = quotedbl;
layers = (
{
layerId = "63BE41E3-0F49-4E61-A903-F52A2E952C90";
shapes = (
{
closed = 1;
nodes = (
(456,928,l),
(522,1630,l),
(260,1630,l),
(312,928,l)
);
},
{
closed = 1;
nodes = (
(868,928,l),
(940,1630,l),
(676,1630,l),
(728,928,l)
);
}
);
width = 1200;
},
{
layerId = "F48F13AC-C425-4574-8B52-7DBCB7751002";
shapes = (
{
closed = 1;
nodes = (
(476,928,l),
(564,1630,l),
(200,1630,l),
(260,928,l)
);
},
{
closed = 1;
nodes = (
(920,928,l),
(1000,1630,l),
(638,1630,l),
(708,928,l)
);
}
);
width = 1200;
},
{
layerId = "4FB9B80E-81B5-47C9-A539-BB7C5ADDFB58";
shapes = (
{
closed = 1;
nodes = (
(452,928,l),
(516,1630,l),
(282,1630,l),
(332,928,l)
);
},
{
closed = 1;
nodes = (
(848,928,l),
(918,1630,l),
(682,1630,l),
(732,928,l)
);
}
);
width = 1200;
},
{
layerId = "92EF81BF-A460-40B9-8F71-75F6CAA5A9CA";
shapes = (
{
closed = 1;
nodes = (
(466,928,l),
(544,1630,l),
(230,1630,l),
(286,928,l)
);
},
{
closed = 1;
nodes = (
(894,928,l),
(970,1630,l),
(658,1630,l),
(718,928,l)
);
}
);
width = 1200;
}
);
note = quotedbl;
unicode = 34;
}
{
glyphname = numbersign;
layers = (
{
hints = (
{
horizontal = 1;
options = 4;
origin = (0,0);
target = (0,3);
type = TTStem;
},
{
horizontal = 1;
options = 4;
origin = (1,0);
target = (1,3);
type = TTStem;
},
{
options = 4;
origin = (2,0);
target = (2,1);
type = TTStem;
},
{
options = 4;
origin = (3,0);
target = (3,1);
type = TTStem;
},
{
options = 4;
origin = (2,3);
target = (2,2);
type = TTStem;
},
{
options = 4;
origin = (3,3);
target = (3,2);
type = TTStem;
}
);
layerId = "63BE41E3-0F49-4E61-A903-F52A2E952C90";
shapes = (
{
closed = 1;
nodes = (
(76,426,l),
(1002,426,l),
(1028,564,l),
(102,564,l)
);
},
{
closed = 1;
nodes = (
(166,898,l),
(1086,898,l),
(1122,1036,l),
(190,1036,l)
);
},
{
closed = 1;
nodes = (
(202,0,l),
(350,0,l),
(626,1450,l),
(478,1450,l)
);
},
{
closed = 1;
nodes = (
(580,0,l),
(728,0,l),
(1004,1450,l),
(856,1450,l)
);
}
);
width = 1200;
},
{
hints = (
{
horizontal = 1;
options = 4;
place = (250, 114);
type = TTStem;
},
{
horizontal = 1;
options = 4;
place = (766, 105);
type = TTStem;
}
);
layerId = "F48F13AC-C425-4574-8B52-7DBCB7751002";
shapes = (
{
closed = 1;
nodes = (
(36,378,l),
(1030,378,l),
(1074,598,l),
(78,598,l)
);
},
{
closed = 1;
nodes = (
(120,826,l),
(1118,826,l),
(1164,1046,l),
(166,1046,l)
);
},
{
closed = 1;
nodes = (
(128,0,l),
(366,0,l),
(656,1450,l),
(418,1450,l)
);
},
{
closed = 1;
nodes = (
(546,0,l),
(784,0,l),
(1074,1450,l),
(836,1450,l)
);
}
);
width = 1200;
},
{
hints = (
{
horizontal = 1;
options = 4;
origin = (0,0);
target = (0,3);
type = TTStem;
},
{
horizontal = 1;
options = 4;
origin = (1,0);
target = (1,3);
type = TTStem;
},
{
horizontal = 1;
origin = (1,0);
target = (1,3);
type = TTStem;
},
{
horizontal = 1;
origin = (0,0);
target = (0,3);
type = TTStem;
}
);
layerId = "4FB9B80E-81B5-47C9-A539-BB7C5ADDFB58";
shapes = (
{
closed = 1;
nodes = (
(78,416,l),
(1012,416,l),
(1036,540,l),
(100,540,l)
);
},
{
closed = 1;
nodes = (
(168,892,l),
(1104,892,l),
(1122,1016,l),
(190,1016,l)
);
},
{
closed = 1;
nodes = (
(220,0,l),
(352,0,l),
(624,1450,l),
(492,1450,l)
);
},
{
closed = 1;
nodes = (
(598,0,l),
(730,0,l),
(1002,1450,l),
(870,1450,l)
);
}
);
width = 1200;
},
{
hints = (
{
horizontal = 1;
options = 4;
origin = (0,0);
target = (0,3);
type = TTStem;
},
{
horizontal = 1;
options = 4;
origin = (1,0);
target = (1,3);
type = TTStem;
},
{
options = 4;
origin = (2,0);
target = (2,1);
type = TTStem;
},
{
options = 4;
origin = (3,0);
target = (3,1);
type = TTStem;
},
{
options = 4;
origin = (2,3);
target = (2,2);
type = TTStem;
},
{
options = 4;
origin = (3,3);
target = (3,2);
type = TTStem;
}
);
layerId = "92EF81BF-A460-40B9-8F71-75F6CAA5A9CA";
shapes = (
{
closed = 1;
nodes = (
(78,408,l),
(1004,408,l),
(1038,578,l),
(110,578,l)
);
},
{
closed = 1;
nodes = (
(152,870,l),
(1088,870,l),
(1122,1040,l),
(188,1040,l)
);
},
{
closed = 1;
nodes = (
(174,0,l),
(366,0,l),
(650,1450,l),
(456,1450,l)
);
},
{
closed = 1;
nodes = (
(552,0,l),
(744,0,l),
(1028,1450,l),
(834,1450,l)
);
}
);
width = 1200;
}
);
note = numbersign;
unicode = 35;
}
{
glyphname = dollar;
layers = (
{
hints = (
{
horizontal = 1;
options = 4;
place = (1334, 75);
type = TTStem;
}
);
layerId = "63BE41E3-0F49-4E61-A903-F52A2E952C90";
shapes = (
{
closed = 1;
nodes = (
(884,-20,o),
(1066,166,o),
(1066,372,cs),
(1066,556,o),
(922,718,o),
(664,786,cs),
(444,844,o),
(338,939,o),
(338,1071,cs),
(338,1165,o),
(392,1274,o),
(572,1286,c),
(764,1286,o),
(870,1220,o),
(876,1076,c),
(1050,1076,l),
(1041,1276,o),
(887,1434,o),
(608,1434,cs),
(332,1434,o),
(162,1280,o),
(162,1037,cs),
(162,840,o),
(274,729,o),
(572,638,cs),
(664,610,ls),
(826,561,o),
(900,479,o),
(900,372,cs),
(900,241,o),
(788,122,o),
(614,122,cs),
(454,122,o),
(312,224,o),
(312,380,c),
(136,380,l),
(136,124,o),
(328,-16,o),
(612,-20,c)
);
},
{
closed = 1;
nodes = (
(556,1358,l),
(556,790,l),
(556,728,l),
(558,686,l),
(558,76,l),
(546,28,l),
(546,-106,l),
(694,-106,l),
(694,34,l),
(674,92,l),
(674,656,l),
(676,742,l),
(676,1346,l),
(698,1390,l),
(698,1572,l),
(556,1572,l)
);
}
);
width = 1200;
},
{
hints = (
{
horizontal = 1;
options = 4;
origin = (1,15);
stem = -1;
type = TTSnap;
}
);
layerId = "F48F13AC-C425-4574-8B52-7DBCB7751002";
shapes = (
{
closed = 1;
nodes = (
(922,-57,o),
(1112,151,o),
(1112,372,cs),
(1112,588,o),
(931,760,o),
(676,827,cs),
(472,881,o),
(376,956,o),
(376,1073,cs),
(376,1174,o),
(448,1241,o),
(574,1248,c),
(768,1248,o),
(848,1180,o),
(838,1038,c),
(1090,1038,l),
(1090,1312,o),
(896,1472,o),
(607,1472,cs),
(304,1472,o),
(113,1296,o),
(113,1037,cs),
(113,822,o),
(248,685,o),
(560,592,cs),
(654,564,ls),
(802,520,o),
(862,462,o),
(862,371,cs),
(862,252,o),
(756,160,o),
(611,160,cs),
(448,160,o),
(328,277,o),
(354,418,c),
(100,418,l),
(77,127,o),
(295,-57,o),
(599,-57,cs)
);
},
{
closed = 1;
nodes = (
(504,1358,l),
(504,790,l),
(518,718,l),
(528,676,l),
(528,84,l),
(518,36,l),
(518,-184,l),
(736,-184,l),
(736,40,l),
(730,98,l),
(730,660,l),
(696,746,l),
(696,1332,l),
(736,1376,l),
(736,1600,l),
(518,1600,l)
);
}
);
width = 1200;
},
{
hints = (
{
horizontal = 1;
options = 4;
place = (1555, 87.5);
type = TTStem;
},
{
horizontal = 1;
origin = (0,38);
target = (0,31);
type = TTStem;
},
{
horizontal = 1;
origin = (0,35);
type = TTSnap;
},
{
horizontal = 1;
origin = (0,38);
target = (0,31);
type = TTStem;
},
{
horizontal = 1;
origin = (0,35);
type = TTSnap;
}
);
layerId = "4FB9B80E-81B5-47C9-A539-BB7C5ADDFB58";
shapes = (
{
closed = 1;
nodes = (
(888,-5,o),
(1049,182,o),
(1049,373,cs),
(1049,558,o),
(899,708,o),
(659,770,cs),
(437,828,o),
(321,928,o),
(321,1072,cs),
(321,1197,o),
(409,1298,o),
(585,1298,cs),
(731,1298,o),
(889,1229,o),
(899,1092,c),
(1033,1092,l),
(1015,1291,o),
(844,1418,o),
(599,1418,cs),
(308,1418,o),
(177,1240,o),
(177,1052,cs),
(177,845,o),
(335,727,o),
(575,654,cs),
(667,626,ls),
(826,578,o),
(915,485,o),
(915,367,cs),
(915,222,o),
(783,112,o),
(610,112,cs),
(440,112,o),
(304,219,o),
(295,364,c),
(151,364,l),
(156,138,o),
(345,-5,o),
(598,-5,cs)
);
},
{
closed = 1;
nodes = (
(563,1350,l),
(563,790,l),
(561,730,l),
(563,688,l),
(563,74,l),
(551,26,l),
(551,-94,l),
(691,-94,l),
(691,34,l),
(663,92,l),
(663,656,l),
(671,742,l),
(671,1348,l),
(679,1392,l),
(685,1568,l),
(555,1568,l)
);
}
);
width = 1200;
},
{
hints = (
{
horizontal = 1;
options = 4;
place = (667, 37.5);
type = TTStem;
}
);
layerId = "92EF81BF-A460-40B9-8F71-75F6CAA5A9CA";
shapes = (
{
closed = 1;
nodes = (
(888,-40,o),
(1086,150,o),
(1086,373,cs),
(1086,570,o),
(930,736,o),
(671,804,cs),
(460,860,o),
(358,947,o),
(358,1073,cs),
(358,1181,o),
(434,1260,o),
(574,1268,c),
(766,1268,o),
(860,1200,o),
(858,1058,c),
(1070,1058,l),
(1068,1287,o),
(897,1454,o),
(607,1454,cs),
(318,1454,o),
(144,1288,o),
(144,1038,cs),
(144,834,o),
(260,711,o),
(566,620,cs),
(660,592,ls),
(812,546,o),
(882,473,o),
(882,372,cs),
(882,247,o),
(772,142,o),
(613,142,cs),
(452,142,o),
(320,250,o),
(334,400,c),
(118,400,l),
(108,126,o),
(304,-36,o),
(612,-40,c)
);
},
{
closed = 1;
nodes = (
(530,1358,l),
(530,790,l),
(538,724,l),
(544,682,l),
(544,80,l),
(532,32,l),
(532,-146,l),
(716,-146,l),
(716,38,l),
(702,96,l),
(702,658,l),
(686,744,l),
(686,1340,l),
(718,1384,l),
(718,1586,l),
(538,1586,l)
);
}
);
width = 1200;
}
);
note = dollar;
unicode = 36;
}
{
glyphname = percent;
layers = (
{
hints = (
{
horizontal = 1;
options = 4;
origin = (0,3);
stem = -1;
type = TTSnap;
},
{
horizontal = 1;
options = 4;
origin = (4,5);
target = (3,5);
type = TTStem;
},
{
horizontal = 1;
options = 4;
origin = (1,11);
target = (2,11);
type = TTStem;
},
{
horizontal = 1;
options = 4;
origin = (1,5);
target = (2,5);
type = TTStem;
},
{
horizontal = 1;
options = 4;
origin = (0,2);
stem = -1;
type = TTSnap;
},
{
horizontal = 1;
options = 4;
origin = (3,11);
target = (4,11);
type = TTStem;
},
{
horizontal = 1;
place = (24, 85);
type = TTStem;
},
{
horizontal = 1;
place = (566, 84);
type = TTStem;
},
{
horizontal = 1;
place = (872, 85);
type = TTStem;
},
{
horizontal = 1;
place = (1414, 83);
type = TTStem;
}
);
layerId = "63BE41E3-0F49-4E61-A903-F52A2E952C90";
shapes = (
{
closed = 1;
nodes = (
(298,-14,l),
(1018,1450,l),
(860,1450,l),
(152,-14,l)
);
},
{
closed = 1;
nodes = (
(516,808,o),
(612,970,o),
(612,1156,cs),
(612,1336,o),
(534,1474,o),
(368,1474,cs),
(196,1474,o),
(116,1322,o),
(116,1136,cs),
(116,950,o),
(188,808,o),
(350,808,cs)
);
},
{
closed = 1;
nodes = (
(302,978,o),
(270,1034,o),
(270,1148,cs),
(270,1260,o),
(306,1320,o),
(366,1320,cs),
(424,1320,o),
(456,1264,o),
(456,1160,cs),
(456,1042,o),
(422,978,o),
(364,978,cs)
);
},
{
closed = 1;
nodes = (
(1016,0,o),
(1098,148,o),
(1098,334,cs),
(1098,514,o),
(1020,652,o),
(854,652,cs),
(682,652,o),
(602,500,o),
(602,314,cs),
(602,128,o),
(688,0,o),
(850,0,cs)
);
},
{
closed = 1;
nodes = (
(788,156,o),
(756,212,o),
(756,326,cs),
(756,438,o),
(792,498,o),
(852,498,cs),
(910,498,o),
(942,442,o),
(942,338,cs),
(942,220,o),
(908,156,o),
(850,156,cs)
);
}
);
width = 1200;
},
{
hints = (
{
horizontal = 1;
options = 4;
origin = (0,3);
stem = -1;
type = TTSnap;
},
{
horizontal = 1;
options = 4;
origin = (4,5);
target = (3,5);
type = TTStem;
},
{
horizontal = 1;
options = 4;
origin = (2,11);
target = (1,11);
type = TTStem;
},
{
horizontal = 1;
options = 4;
origin = (0,2);
stem = -1;
type = TTSnap;
},
{
horizontal = 1;
options = 4;
origin = (1,5);
target = (2,5);
type = TTStem;
},
{
horizontal = 1;
options = 4;
origin = (3,11);
target = (4,11);
type = TTStem;
}
);
layerId = "F48F13AC-C425-4574-8B52-7DBCB7751002";
shapes = (
{
closed = 1;
nodes = (
(330,0,l),
(1036,1450,l),
(838,1450,l),
(132,0,l)
);
},
{
closed = 1;
nodes = (
(484,810,o),
(584,944,o),
(584,1156,cs),
(584,1362,o),
(488,1486,o),
(328,1486,cs),
(166,1486,o),
(64,1352,o),
(64,1136,cs),
(64,934,o),
(162,810,o),
(324,810,cs)
);
},
{
closed = 1;
nodes = (
(280,1028,o),
(258,1068,o),
(258,1148,cs),
(258,1228,o),
(282,1270,o),
(326,1270,cs),
(366,1270,o),
(388,1230,o),
(388,1156,cs),
(388,1074,o),
(364,1028,o),
(324,1028,cs)
);
},
{
closed = 1;
nodes = (
(1024,10,o),
(1124,144,o),
(1124,356,cs),
(1124,562,o),
(1028,686,o),
(868,686,cs),
(706,686,o),
(604,552,o),
(604,336,cs),
(604,134,o),
(702,10,o),
(864,10,cs)
);
},
{
closed = 1;
nodes = (
(816,214,o),
(790,258,o),
(790,348,cs),
(790,436,o),
(818,484,o),
(866,484,cs),
(910,484,o),
(936,440,o),
(936,358,cs),
(936,266,o),
(910,214,o),
(864,214,cs)
);
}
);
width = 1200;
},
{
hints = (
{
horizontal = 1;
options = 4;
origin = (0,3);
stem = -1;
type = TTSnap;
},
{
horizontal = 1;
options = 4;
origin = (4,5);
target = (3,5);
type = TTStem;
},
{
horizontal = 1;
options = 4;
origin = (1,11);
target = (2,11);
type = TTStem;
},
{
horizontal = 1;
options = 4;
origin = (1,5);
target = (2,5);
type = TTStem;
},
{
horizontal = 1;
options = 4;
origin = (0,2);
stem = -1;
type = TTSnap;
},
{
horizontal = 1;
options = 4;
origin = (3,11);
target = (4,11);
type = TTStem;
},
{
horizontal = 1;
place = (650, 98);
type = TTStem;
},
{
horizontal = 1;
place = (1007, 99.167);
type = TTStem;
},
{
horizontal = 1;
place = (1640, 96.833);
type = TTStem;
},
{
horizontal = 1;
origin = (3,11);
target = (4,11);
type = TTStem;
},
{
horizontal = 1;
options = 4;
origin = (0,2);
target = (0,1);
type = TTStem;
}
);
layerId = "4FB9B80E-81B5-47C9-A539-BB7C5ADDFB58";
shapes = (
{
closed = 1;
nodes = (
(282,-16,l),
(1006,1450,l),
(854,1450,l),
(144,-16,l)
);
},
{
closed = 1;
nodes = (
(510,806,o),
(604,972,o),
(604,1154,cs),
(604,1330,o),
(530,1470,o),
(362,1470,cs),
(190,1470,o),
(112,1316,o),
(112,1134,cs),
(112,950,o),
(180,806,o),
(342,806,cs)
);
},
{
closed = 1;
nodes = (
(294,968,o),
(260,1026,o),
(260,1146,cs),
(260,1264,o),
(298,1326,o),
(360,1326,cs),
(422,1326,o),
(456,1268,o),
(456,1158,cs),
(456,1034,o),
(420,968,o),
(358,968,cs)
);
},
{
closed = 1;
nodes = (
(1008,0,o),
(1088,150,o),
(1088,332,cs),
(1088,508,o),
(1012,648,o),
(846,648,cs),
(672,648,o),
(596,492,o),
(596,312,cs),
(596,128,o),
(680,0,o),
(842,0,cs)
);
},
{
closed = 1;
nodes = (
(778,148,o),
(744,206,o),
(744,324,cs),
(744,440,o),
(782,502,o),
(844,502,cs),
(904,502,o),
(938,444,o),
(938,336,cs),
(938,214,o),
(902,148,o),
(842,148,cs)
);
}
);
width = 1200;
},
{
hints = (
{
horizontal = 1;
options = 4;
origin = (0,3);
stem = -1;
type = TTSnap;
},
{
horizontal = 1;
options = 4;
origin = (4,5);
target = (3,5);
type = TTStem;
},
{
horizontal = 1;
options = 4;
origin = (1,11);
target = (2,11);
type = TTStem;
},
{
horizontal = 1;
options = 4;
origin = (1,5);
target = (2,5);
type = TTStem;
},
{
horizontal = 1;
options = 4;
origin = (0,2);
stem = -1;
type = TTSnap;
},
{
horizontal = 1;
options = 4;
origin = (3,11);
target = (4,11);
type = TTStem;
},
{
horizontal = 1;
place = (12, 42.5);
type = TTStem;
},
{
horizontal = 1;
place = (283, 42);
type = TTStem;
},
{
horizontal = 1;
place = (436, 42.5);
type = TTStem;
},
{
horizontal = 1;
place = (707, 41.5);
type = TTStem;
}
);
layerId = "92EF81BF-A460-40B9-8F71-75F6CAA5A9CA";
shapes = (
{
closed = 1;
nodes = (
(314,-8,l),
(1028,1450,l),
(850,1450,l),
(142,-8,l)
);
},
{
closed = 1;
nodes = (
(500,810,o),
(598,958,o),
(598,1156,cs),
(598,1350,o),
(512,1480,o),
(348,1480,cs),
(182,1480,o),
(90,1338,o),
(90,1136,cs),
(90,942,o),
(176,810,o),
(338,810,cs)
);
},
{
closed = 1;
nodes = (
(292,1004,o),
(264,1052,o),
(264,1148,cs),
(264,1244,o),
(294,1296,o),
(346,1296,cs),
(396,1296,o),
(422,1248,o),
(422,1158,cs),
(422,1058,o),
(394,1004,o),
(344,1004,cs)
);
},
{
closed = 1;
nodes = (
(1020,6,o),
(1112,146,o),
(1112,346,cs),
(1112,538,o),
(1024,670,o),
(862,670,cs),
(694,670,o),
(604,526,o),
(604,326,cs),
(604,132,o),
(696,6,o),
(858,6,cs)
);
},
{
closed = 1;
nodes = (
(802,186,o),
(774,236,o),
(774,338,cs),
(774,438,o),
(806,492,o),
(860,492,cs),
(910,492,o),
(940,442,o),
(940,348,cs),
(940,244,o),
(910,186,o),
(858,186,cs)
);
}
);
width = 1200;
}
);
note = percent;
unicode = 37;
}
{
glyphname = ampersand;
layers = (
{
hints = (
{
horizontal = 1;
options = 4;
origin = (0,41);
target = (1,11);
type = TTStem;
},
{
horizontal = 1;
options = 4;
origin = (2,6);
target = (0,26);
type = TTStem;
},
{
horizontal = 1;
place = (2, 74);
type = TTStem;
},
{
horizontal = 1;
place = (706, 68);
type = TTStem;
},
{
horizontal = 1;
place = (1334, 73);
type = TTStem;
}
);
layerId = "63BE41E3-0F49-4E61-A903-F52A2E952C90";
shapes = (
{
closed = 1;
nodes = (
(647,-24,o,{
stroke = {
w = "1";
};
}),
(793,47,o,{
stroke = {
w = "1";
};
}),
(892,156,c,{
stroke = {
w = "1";
};
}),
(836,156,l,{
stroke = {
w = "1";
};
}),
(980,-10,l,{
stroke = {
w = "1";
};
}),
(1162,-10,l,{
stroke = {
w = "1";
};
}),
(920,288,l,{
stroke = {
w = "1";
};
}),
(944,210,l,{
stroke = {
w = "1";
};
}),
(992,284,o,{
stroke = {
w = "1";
};
}),
(1032,366,o,{
stroke = {
w = "1";
};
}),
(1052,462,cs,{
stroke = {
w = "1";
};
}),
(1060,500,o,{
stroke = {
w = "1";
};
}),
(1078,580,o,{
stroke = {
w = "1";
};
}),
(1078,676,c,{
stroke = {
w = "1";
};
}),
(932,676,l,{
stroke = {
w = "1";
};
}),
(930,572,o,{
stroke = {
w = "1";
};
}),
(908,412,o,{
stroke = {
w = "1";
};
}),
(852,336,c,{
stroke = {
w = "1";
};
}),
(892,310,l,{
stroke = {
w = "1";
};
}),
(508,814,l,{
stroke = {
w = "1";
};
}),
(516,734,l,{
stroke = {
w = "1";
};
}),
(753,846,o,{
stroke = {
w = "1";
};
}),
(888,937,o,{
stroke = {
w = "1";
};
}),
(888,1133,cs,{
stroke = {
w = "1";
};
}),
(888,1331,o,{
stroke = {
w = "1";
};
}),
(752,1460,o,{
stroke = {
w = "1";
};
}),
(533,1460,cs,{
stroke = {
w = "1";
};
}),
(482,1460,o,{
stroke = {
w = "1";
};
}),
(434,1453,o,{
stroke = {
w = "1";
};
}),
(390,1436,cs,{
stroke = {
w = "1";
};
}),
(261,1386,o,{
stroke = {
w = "1";
};
}),
(182,1260,o,{
stroke = {
w = "1";
};
}),
(182,1117,cs,{
stroke = {
w = "1";
};
}),
(182,998,o,{
stroke = {
w = "1";
};
}),
(237,879,o,{
stroke = {
w = "1";
};
}),
(316,778,c,{
stroke = {
w = "1";
};
}),
(142,676,o,{
stroke = {
w = "1";
};
}),
(56,549,o,{
stroke = {
w = "1";
};
}),
(56,370,cs,{
stroke = {
w = "1";
};
}),
(56,126,o,{
stroke = {
w = "1";
};
}),
(215,-24,o,{
stroke = {
w = "1";
};
}),
(471,-24,cs,{
stroke = {
w = "1";
};
})
);
},
{
closed = 1;
nodes = (
(332,104,o,{
stroke = {
w = "1";
};
}),
(218,196,o,{
stroke = {
w = "1";
};
}),
(218,364,cs,{
stroke = {
w = "1";
};
}),
(218,517,o,{
stroke = {
w = "1";
};
}),
(313,630,o,{
stroke = {
w = "1";
};
}),
(462,714,c,{
stroke = {
w = "1";
};
}),
(356,750,l,{
stroke = {
w = "1";
};
}),
(812,182,l,{
stroke = {
w = "1";
};
}),
(818,258,l,{
stroke = {
w = "1";
};
}),
(742,152,o,{
stroke = {
w = "1";
};
}),
(620,104,o,{
stroke = {
w = "1";
};
}),
(499,104,cs,{
stroke = {
w = "1";
};
})
);
},
{
closed = 1;
nodes = (
(414,924,ls,{
stroke = {
w = "1";
};
}),
(373,974,o,{
stroke = {
w = "1";
};
}),
(346,1044,o,{
stroke = {
w = "1";
};
}),
(346,1115,cs,{
stroke = {
w = "1";
};
}),
(346,1241,o,{
stroke = {
w = "1";
};
}),
(431,1320,o,{
stroke = {
w = "1";
};
}),
(551,1320,cs,{
stroke = {
w = "1";
};
}),
(646,1320,o,{
stroke = {
w = "1";
};
}),
(730,1270,o,{
stroke = {
w = "1";
};
}),
(730,1153,cs,{
stroke = {
w = "1";
};
}),
(730,992,o,{
stroke = {
w = "1";
};
}),
(571,885,o,{
stroke = {
w = "1";
};
}),
(410,828,c,{
stroke = {
w = "1";
};
}),
(530,780,l,{
stroke = {
w = "1";
};
})
);
}
);
width = 1200;
},
{
hints = (
{
horizontal = 1;
options = 4;
origin = (0,41);
target = (1,11);
type = TTStem;
},
{
horizontal = 1;
options = 4;
origin = (2,6);
target = (0,26);
type = TTStem;
}
);
layerId = "F48F13AC-C425-4574-8B52-7DBCB7751002";
shapes = (
{
closed = 1;
nodes = (
(674,-16,o),
(830,44,o),
(928,154,c),
(810,150,l),
(922,-4,l),
(1186,-4,l),
(956,296,l),
(984,210,l),
(1060,324,o),
(1092,383,o),
(1111,472,cs),
(1124,533,o),
(1132,613,o),
(1132,702,c),
(890,702,l),
(890,593,o),
(874,484,o),
(818,406,c),
(936,326,l),
(590,764,l),
(614,674,l),
(857,810,o),
(960,943,o),
(960,1118,cs),
(960,1358,o),
(760,1470,o),
(576,1470,cs),
(458,1470,o),
(387,1449,o),
(329,1412,cs),
(226,1346,o),
(158,1230,o),
(158,1110,cs),
(158,982,o),
(234,878,o),
(310,780,c),
(149,686,o),
(74,562,o),
(74,392,cs),
(74,129,o),
(255,-16,o),
(516,-16,c)
);
},
{
closed = 1;
nodes = (
(434,222,o),
(352,293,o),
(352,418,cs),
(352,529,o),
(416,560,o),
(518,616,c),
(386,664,l),
(776,174,l),
(732,328,l),
(699,274,o),
(662,222,o),
(564,222,c)
);
},
{
closed = 1;
nodes = (
(468,946,ls),
(426,1006,o),
(416,1079,o),
(416,1119,cs),
(416,1221,o),
(480,1274,o),
(567,1274,cs),
(648,1274,o),
(714,1227,o),
(714,1135,cs),
(714,1010,o),
(592,926,o),
(456,852,c),
(570,802,l)
);
}
);
width = 1200;
},
{
hints = (
{
horizontal = 1;
options = 4;
origin = (0,41);
target = (1,11);
type = TTStem;
},
{
horizontal = 1;
options = 4;
origin = (2,6);
target = (0,26);
type = TTStem;
}
);
layerId = "4FB9B80E-81B5-47C9-A539-BB7C5ADDFB58";
shapes = (
{
closed = 1;
nodes = (
(641,-26,o,{
stroke = {
w = "1";
};
}),
(784,37,o,{
stroke = {
w = "1";
};
}),
(884,147,c,{
stroke = {
w = "1";
};
}),
(834,158,l,{
stroke = {
w = "1";
};
}),
(984,-12,l,{
stroke = {
w = "1";
};
}),
(1152,-12,l,{
stroke = {
w = "1";
};
}),
(908,286,l,{
stroke = {
w = "1";
};
}),
(938,207,l,{
stroke = {
w = "1";
};
}),
(988,284,o,{
stroke = {
w = "1";
};
}),
(1019,366,o,{
stroke = {
w = "1";
};
}),
(1039,460,cs,{
stroke = {
w = "1";
};
}),
(1047,498,o,{
stroke = {
w = "1";
};
}),
(1064,576,o,{
stroke = {
w = "1";
};
}),
(1064,672,c,{
stroke = {
w = "1";
};
}),
(934,672,l,{
stroke = {
w = "1";
};
}),
(932,568,o,{
stroke = {
w = "1";
};
}),
(908,400,o,{
stroke = {
w = "1";
};
}),
(852,324,c,{
stroke = {
w = "1";
};
}),
(879,312,l,{
stroke = {
w = "1";
};
}),
(502,792,l,{
stroke = {
w = "1";
};
}),
(494,738,l,{
stroke = {
w = "1";
};
}),
(730,846,o,{
stroke = {
w = "1";
};
}),
(885,944,o,{
stroke = {
w = "1";
};
}),
(885,1142,cs,{
stroke = {
w = "1";
};
}),
(885,1336,o,{
stroke = {
w = "1";
};
}),
(737,1458,o,{
stroke = {
w = "1";
};
}),
(525,1458,cs,{
stroke = {
w = "1";
};
}),
(483,1458,o,{
stroke = {
w = "1";
};
}),
(435,1453,o,{
stroke = {
w = "1";
};
}),
(392,1438,cs,{
stroke = {
w = "1";
};
}),
(261,1393,o,{
stroke = {
w = "1";
};
}),
(162,1269,o,{
stroke = {
w = "1";
};
}),
(162,1123,cs,{
stroke = {
w = "1";
};
}),
(162,997,o,{
stroke = {
w = "1";
};
}),
(235,890,o,{
stroke = {
w = "1";
};
}),
(314,788,c,{
stroke = {
w = "1";
};
}),
(140,691,o,{
stroke = {
w = "1";
};
}),
(48,546,o,{
stroke = {
w = "1";
};
}),
(48,364,cs,{
stroke = {
w = "1";
};
}),
(48,122,o,{
stroke = {
w = "1";
};
}),
(211,-26,o,{
stroke = {
w = "1";
};
}),
(471,-26,cs,{
stroke = {
w = "1";
};
})
);
},
{
closed = 1;
nodes = (
(309,101,o,{
stroke = {
w = "1";
};
}),
(190,188,o,{
stroke = {
w = "1";
};
}),
(190,363,cs,{
stroke = {
w = "1";
};
}),
(190,525,o,{
stroke = {
w = "1";
};
}),
(293,642,o,{
stroke = {
w = "1";
};
}),
(446,724,c,{
stroke = {
w = "1";
};
}),
(350,741,l,{
stroke = {
w = "1";
};
}),
(812,184,l,{
stroke = {
w = "1";
};
}),
(814,253,l,{
stroke = {
w = "1";
};
}),
(732,139,o,{
stroke = {
w = "1";
};
}),
(606,101,o,{
stroke = {
w = "1";
};
}),
(488,101,cs,{
stroke = {
w = "1";
};
})
);
},
{
closed = 1;
nodes = (
(400,920,ls,{
stroke = {
w = "1";
};
}),
(348,982,o,{
stroke = {
w = "1";
};
}),
(319,1050,o,{
stroke = {
w = "1";
};
}),
(319,1120,cs,{
stroke = {
w = "1";
};
}),
(319,1236,o,{
stroke = {
w = "1";
};
}),
(399,1328,o,{
stroke = {
w = "1";
};
}),
(527,1328,cs,{
stroke = {
w = "1";
};
}),
(626,1328,o,{
stroke = {
w = "1";
};
}),
(726,1273,o,{
stroke = {
w = "1";
};
}),
(726,1148,cs,{
stroke = {
w = "1";
};
}),
(726,983,o,{
stroke = {
w = "1";
};
}),
(550,866,o,{
stroke = {
w = "1";
};
}),
(397,831,c,{
stroke = {
w = "1";
};
}),
(483,822,l,{
stroke = {
w = "1";
};
})
);
}
);
width = 1200;
},
{
hints = (
{
horizontal = 1;
options = 4;
origin = (0,41);
target = (1,11);
type = TTStem;
},
{
horizontal = 1;
options = 4;
origin = (2,6);
target = (0,26);
type = TTStem;
},
{
horizontal = 1;
place = (1, 37);
type = TTStem;
},
{
horizontal = 1;
place = (353, 34);
type = TTStem;
},
{
horizontal = 1;
place = (667, 36.5);
type = TTStem;
}
);
layerId = "92EF81BF-A460-40B9-8F71-75F6CAA5A9CA";
shapes = (
{
closed = 1;
nodes = (
(657,-20,o,{
stroke = {
w = "1";
};
}),
(808,43,o,{
stroke = {
w = "1";
};
}),
(910,156,c,{
stroke = {
w = "1";
};
}),
(824,154,l,{
stroke = {
w = "1";
};
}),
(952,-8,l,{
stroke = {
w = "1";
};
}),
(1174,-8,l,{
stroke = {
w = "1";
};
}),
(938,292,l,{
stroke = {
w = "1";
};
}),
(964,210,l,{
stroke = {
w = "1";
};
}),
(1025,306,o,{
stroke = {
w = "1";
};
}),
(1059,365,o,{
stroke = {
w = "1";
};
}),
(1082,470,cs,{
stroke = {
w = "1";
};
}),
(1090,506,o,{
stroke = {
w = "1";
};
}),
(1106,592,o,{
stroke = {
w = "1";
};
}),
(1106,690,c,{
stroke = {
w = "1";
};
}),
(912,690,l,{
stroke = {
w = "1";
};
}),
(910,584,o,{
stroke = {
w = "1";
};
}),
(892,448,o,{
stroke = {
w = "1";
};
}),
(836,372,c,{
stroke = {
w = "1";
};
}),
(914,318,l,{
stroke = {
w = "1";
};
}),
(550,790,l,{
stroke = {
w = "1";
};
}),
(566,704,l,{
stroke = {
w = "1";
};
}),
(804,827,o,{
stroke = {
w = "1";
};
}),
(924,939,o,{
stroke = {
w = "1";
};
}),
(924,1127,cs,{
stroke = {
w = "1";
};
}),
(924,1341,o,{
stroke = {
w = "1";
};
}),
(768,1468,o,{
stroke = {
w = "1";
};
}),
(550,1468,cs,{
stroke = {
w = "1";
};
}),
(482,1468,o,{
stroke = {
w = "1";
};
}),
(420,1456,o,{
stroke = {
w = "1";
};
}),
(358,1424,cs,{
stroke = {
w = "1";
};
}),
(249,1367,o,{
stroke = {
w = "1";
};
}),
(170,1254,o,{
stroke = {
w = "1";
};
}),
(170,1116,cs,{
stroke = {
w = "1";
};
}),
(170,988,o,{
stroke = {
w = "1";
};
}),
(238,876,o,{
stroke = {
w = "1";
};
}),
(314,780,c,{
stroke = {
w = "1";
};
}),
(142,679,o,{
stroke = {
w = "1";
};
}),
(66,550,o,{
stroke = {
w = "1";
};
}),
(66,381,cs,{
stroke = {
w = "1";
};
}),
(66,129,o,{
stroke = {
w = "1";
};
}),
(235,-20,o,{
stroke = {
w = "1";
};
}),
(491,-20,cs,{
stroke = {
w = "1";
};
})
);
},
{
closed = 1;
nodes = (
(383,164,o,{
stroke = {
w = "1";
};
}),
(286,247,o,{
stroke = {
w = "1";
};
}),
(286,391,cs,{
stroke = {
w = "1";
};
}),
(286,524,o,{
stroke = {
w = "1";
};
}),
(368,598,o,{
stroke = {
w = "1";
};
}),
(490,666,c,{
stroke = {
w = "1";
};
}),
(372,708,l,{
stroke = {
w = "1";
};
}),
(794,178,l,{
stroke = {
w = "1";
};
}),
(776,294,l,{
stroke = {
w = "1";
};
}),
(720,214,o,{
stroke = {
w = "1";
};
}),
(643,164,o,{
stroke = {
w = "1";
};
}),
(529,164,cs,{
stroke = {
w = "1";
};
})
);
},
{
closed = 1;
nodes = (
(442,936,ls,{
stroke = {
w = "1";
};
}),
(397,995,o,{
stroke = {
w = "1";
};
}),
(382,1069,o,{
stroke = {
w = "1";
};
}),
(382,1120,cs,{
stroke = {
w = "1";
};
}),
(382,1233,o,{
stroke = {
w = "1";
};
}),
(458,1298,o,{
stroke = {
w = "1";
};
}),
(559,1298,cs,{
stroke = {
w = "1";
};
}),
(648,1298,o,{
stroke = {
w = "1";
};
}),
(722,1248,o,{
stroke = {
w = "1";
};
}),
(722,1144,cs,{
stroke = {
w = "1";
};
}),
(722,996,o,{
stroke = {
w = "1";
};
}),
(572,902,o,{
stroke = {
w = "1";
};
}),
(434,840,c,{
stroke = {
w = "1";
};
}),
(550,792,l,{
stroke = {
w = "1";
};
})
);
}
);
width = 1200;
}
);
note = ampersand;
unicode = 38;
}
{
glyphname = quotesingle;
layers = (
{
layerId = "63BE41E3-0F49-4E61-A903-F52A2E952C90";
shapes = (
{
closed = 1;
nodes = (
(700,928,l),
(738,1630,l),
(464,1630,l),
(506,928,l)
);
}
);
width = 1200;
},
{
hints = (
{
horizontal = 1;
origin = (0,3);
type = TTSnap;
},
{
horizontal = 1;
origin = (0,2);
type = TTSnap;
}
);
layerId = "F48F13AC-C425-4574-8B52-7DBCB7751002";
shapes = (
{
closed = 1;
nodes = (
(724,928,l),
(800,1630,l),
(402,1630,l),
(482,928,l)
);
}
);
width = 1200;
},
{
layerId = "4FB9B80E-81B5-47C9-A539-BB7C5ADDFB58";
shapes = (
{
closed = 1;
nodes = (
(695,928,l),
(727,1630,l),
(473,1630,l),
(509,928,l)
);
}
);
width = 1200;
},
{
layerId = "92EF81BF-A460-40B9-8F71-75F6CAA5A9CA";
shapes = (
{
closed = 1;
nodes = (
(712,928,l),
(770,1630,l),
(434,1630,l),
(494,928,l)
);
}
);
width = 1200;
}
);
note = quotesingle;
unicode = 39;
}
{
glyphname = parenleft;
layers = (
{
hints = (
{
horizontal = 1;
options = 4;
origin = (0,13);
type = TTSnap;
},
{
options = 4;
origin = (0,10);
target = (0,3);
type = TTStem;
}
);
layerId = "63BE41E3-0F49-4E61-A903-F52A2E952C90";
shapes = (
{
closed = 1;
nodes = (
(950,-486,l),
(730,-172,o),
(570,238,o),
(570,564,cs),
(570,934,o),
(710,1322,o),
(950,1676,c),
(806,1676,l),
(542,1332,o),
(372,908,o),
(372,532,cs),
(372,160,o),
(558,-150,o),
(804,-486,c)
);
}
);
width = 1200;
},
{
hints = (
{
horizontal = 1;
options = 4;
origin = (0,13);
stem = -1;
type = TTSnap;
}
);
layerId = "F48F13AC-C425-4574-8B52-7DBCB7751002";
shapes = (
{
closed = 1;
nodes = (
(1040,-486,l),
(820,-172,o),
(660,238,o),
(660,564,c),
(660,934,o),
(800,1322,o),
(1040,1676,c),
(796,1676,l),
(532,1332,o),
(362,908,o),
(362,532,c),
(362,160,o),
(548,-150,o),
(794,-486,c)
);
}
);
width = 1200;
},
{
hints = (
{
horizontal = 1;
options = 4;
origin = (0,13);
stem = -1;
type = TTSnap;
}
);
layerId = "4FB9B80E-81B5-47C9-A539-BB7C5ADDFB58";
shapes = (
{
closed = 1;
nodes = (
(873,-486,l),
(653,-172,o),
(489,238,o),
(489,564,cs),
(489,934,o),
(633,1322,o),
(873,1676,c),
(761,1676,l),
(497,1332,o),
(327,908,o),
(327,532,cs),
(327,160,o),
(513,-150,o),
(759,-486,c)
);
}
);
width = 1200;
},
{
hints = (
{
horizontal = 1;
options = 4;
origin = (0,13);
type = TTSnap;
},
{
options = 4;
origin = (0,10);
target = (0,3);
type = TTStem;
}
);
layerId = "92EF81BF-A460-40B9-8F71-75F6CAA5A9CA";
shapes = (
{
closed = 1;
nodes = (
(996,-486,l),
(776,-172,o),
(616,238,o),
(616,564,cs),
(616,934,o),
(756,1322,o),
(996,1676,c),
(802,1676,l),
(538,1332,o),
(368,908,o),
(368,532,cs),
(368,160,o),
(554,-150,o),
(800,-486,c)
);
}
);
width = 1200;
}
);
note = parenleft;
unicode = 40;
}
{
glyphname = asterisk;
layers = (
{
hints = (
{
horizontal = 1;
options = 4;
place = (648, 100);
type = TTStem;
}
);
layerId = "63BE41E3-0F49-4E61-A903-F52A2E952C90";
shapes = (
{
closed = 1;
nodes = (
(638,435,l),
(562,435,l),
(762,42,l),
(959,157,l),
(734,482,l),
(806,451,l),
(1105,451,l),
(1105,651,l),
(808,651,l),
(735,620,l),
(959,944,l),
(762,1059,l),
(562,666,l),
(638,666,l),
(438,1059,l),
(241,944,l),
(465,620,l),
(393,651,l),
(95,651,l),
(95,451,l),
(394,451,l),
(466,482,l),
(241,157,l),
(438,42,l)
);
}
);
width = 1200;
},
{
hints = (
{
horizontal = 1;
options = 4;
place = (422, 128);
type = TTStem;
},
{
horizontal = 1;
options = 4;
place = (1080, 0);
stem = -1;
type = TTSnap;
}
);
layerId = "F48F13AC-C425-4574-8B52-7DBCB7751002";
shapes = (
{
closed = 1;
nodes = (
(672,468,l),
(528,468,l),
(753,25,l),
(979,156,l),
(752,470,l),
(813,424,l),
(1113,424,l),
(1113,678,l),
(815,678,l),
(753,632,l),
(979,945,l),
(753,1076,l),
(528,633,l),
(672,633,l),
(447,1076,l),
(221,945,l),
(447,632,l),
(385,678,l),
(87,678,l),
(87,424,l),
(387,424,l),
(448,470,l),
(221,156,l),
(447,25,l)
);
}
);
width = 1200;
},
{
hints = (
{
horizontal = 1;
options = 4;
place = (464, 180);
type = TTStem;
}
);
layerId = "4FB9B80E-81B5-47C9-A539-BB7C5ADDFB58";
shapes = (
{
closed = 1;
nodes = (
(623,439,l),
(577,439,l),
(777,60,l),
(937,153,l),
(719,483,l),
(759,461,l),
(1105,461,l),
(1105,641,l),
(759,641,l),
(718,619,l),
(937,948,l),
(777,1041,l),
(577,663,l),
(623,663,l),
(423,1041,l),
(263,948,l),
(482,619,l),
(441,641,l),
(95,641,l),
(95,461,l),
(441,461,l),
(481,483,l),
(263,153,l),
(423,60,l)
);
}
);
width = 1200;
},
{
hints = (
{
horizontal = 1;
options = 4;
place = (660, 110);
type = TTStem;
}
);
layerId = "92EF81BF-A460-40B9-8F71-75F6CAA5A9CA";
shapes = (
{
closed = 1;
nodes = (
(626,434,l),
(574,434,l),
(768,29,l),
(983,150,l),
(735,480,l),
(783,444,l),
(1105,444,l),
(1105,658,l),
(785,658,l),
(735,622,l),
(983,951,l),
(768,1072,l),
(574,667,l),
(626,667,l),
(432,1072,l),
(217,951,l),
(465,622,l),
(415,658,l),
(95,658,l),
(95,444,l),
(417,444,l),
(465,480,l),
(217,150,l),
(432,29,l)
);
}
);
width = 1200;
}
);
note = asterisk;
unicode = 42;
}
{
glyphname = plus;
layers = (
{
hints = (
{
horizontal = 1;
options = 4;
origin = (0,8);
target = (0,9);
type = TTStem;
},
{
options = 4;
origin = (0,11);
target = (0,0);
type = TTStem;
}
);
layerId = "63BE41E3-0F49-4E61-A903-F52A2E952C90";
shapes = (
{
closed = 1;
nodes = (
(706,72,l),
(706,452,l),
(1064,452,l),
(1064,644,l),
(706,644,l),
(706,1026,l),
(492,1026,l),
(492,644,l),
(134,644,l),
(134,452,l),
(492,452,l),
(492,72,l)
);
}
);
width = 1200;
},
{
hints = (
{
horizontal = 1;
options = 4;
origin = (0,9);
target = (0,8);
type = TTStem;
}
);
layerId = "F48F13AC-C425-4574-8B52-7DBCB7751002";
shapes = (
{
closed = 1;
nodes = (
(740,24,l),
(740,416,l),
(1112,416,l),
(1112,680,l),
(740,680,l),
(740,1080,l),
(458,1080,l),
(458,680,l),
(86,680,l),
(86,416,l),
(458,416,l),
(458,24,l)
);
}
);
width = 1200;
},
{
hints = (
{
horizontal = 1;
options = 4;
origin = (0,9);
target = (0,8);
type = TTStem;
},
{
horizontal = 1;
options = 4;
origin = (0,6);
stem = -1;
type = TTSnap;
}
);
layerId = "4FB9B80E-81B5-47C9-A539-BB7C5ADDFB58";
shapes = (
{
closed = 1;
nodes = (
(695,80,l),
(695,460,l),
(1057,460,l),
(1057,640,l),
(695,640,l),
(695,1018,l),
(505,1018,l),
(505,640,l),
(143,640,l),
(143,460,l),
(505,460,l),
(505,80,l)
);
}
);
width = 1200;
},
{
hints = (
{
horizontal = 1;
options = 4;
origin = (0,8);
target = (0,9);
type = TTStem;
},
{
options = 4;
origin = (0,11);
target = (0,0);
type = TTStem;
}
);
layerId = "92EF81BF-A460-40B9-8F71-75F6CAA5A9CA";
shapes = (
{
closed = 1;
nodes = (
(724,48,l),
(724,432,l),
(1088,432,l),
(1088,664,l),
(724,664,l),
(724,1054,l),
(476,1054,l),
(476,664,l),
(110,664,l),
(110,432,l),
(476,432,l),
(476,48,l)
);
}
);
width = 1200;
}
);
note = plus;
unicode = 43;
}
{
glyphname = comma;
layers = (
{
hints = (
{
horizontal = 1;
options = 4;
place = (-276, 42);
type = TTStem;
},
{
horizontal = 1;
options = 4;
origin = (0,2);
target = (0,30);
type = TTStem;
},
{
horizontal = 1;
origin = (0,20);
target = (0,14);
type = TTStem;
},
{
horizontal = 1;
origin = (0,29);
type = TTSnap;
}
);
layerId = "63BE41E3-0F49-4E61-A903-F52A2E952C90";
shapes = (
{
closed = 1;
nodes = (
(408,-390,o),
(480,-380,o),
(536,-360,cs),
(592,-340,o),
(648,-312,o),
(686,-274,cs),
(724,-236,o),
(746,-194,o),
(770,-118,cs),
(794,-42,o),
(798,44,o),
(798,152,cs),
(798,300,o),
(752,346,o),
(604,346,cs),
(456,346,o),
(422,304,o),
(422,158,cs),
(422,42,o),
(500,8,o),
(552,-26,cs),
(600,-56,o),
(614,-90,o),
(614,-134,cs),
(614,-190,o),
(578,-210,o),
(558,-226,cs),
(538,-242,o),
(462,-270,o),
(388,-280,c),
(388,-390,l)
);
}
);
width = 1200;
},
{
associatedMasterId = "63BE41E3-0F49-4E61-A903-F52A2E952C90";
layerId = "21E2753D-042D-4D19-89C8-430560CC5AF5";
name = "new Layer";
shapes = (
{
closed = 1;
nodes = (
(418,-382,l),
(560,-346,l),
(828,30,l),
(828,470,ls),
(828,498,o),
(818,506,o),
(790,506,cs),
(360,506,ls),
(328,506,o),
(318,496,o),
(318,474,cs),
(318,72,ls),
(318,38,o),
(332,28,o),
(356,28,cs),
(744,28,l),
(690,236,l),
(412,-264,l),
(276,-264,ls),
(256,-264,o),
(242,-278,o),
(242,-298,cs),
(242,-346,ls),
(242,-368,o),
(256,-382,o),
(276,-382,cs)
);
}
);
width = 1200;
},
{
hints = (
{
horizontal = 1;
options = 4;
place = (-276, 54);
type = TTStem;
},
{
horizontal = 1;
options = 4;
place = (6, 173);
type = TTStem;
}
);
layerId = "F48F13AC-C425-4574-8B52-7DBCB7751002";
shapes = (
{
closed = 1;
nodes = (
(412,-390,o),
(500,-374,o),
(542,-360,cs),
(622,-334,o),
(684,-302,o),
(714,-274,cs),
(766,-226,o),
(786,-197,o),
(810,-123,cs),
(834,-55,o),
(844,0,o),
(844,152,cs),
(844,304,o),
(778,346,o),
(604,346,cs),
(420,346,o),
(382,304,o),
(382,158,cs),
(382,12,o),
(466,9,o),
(532,-31,cs),
(566,-51,o),
(586,-79,o),
(586,-123,cs),
(586,-167,o),
(567,-193,o),
(536,-211,cs),
(498,-233,o),
(404,-262,o),
(344,-264,c),
(344,-390,l)
);
}
);
width = 1200;
},
{
hints = (
{
horizontal = 1;
options = 4;
place = (-269, 40);
type = TTStem;
},
{
horizontal = 1;
options = 4;
origin = (0,2);
target = (0,30);
type = TTStem;
}
);
layerId = "4FB9B80E-81B5-47C9-A539-BB7C5ADDFB58";
shapes = (
{
closed = 1;
nodes = (
(445,-390,o),
(493,-382,o),
(547,-360,cs),
(595,-342,o),
(645,-314,o),
(681,-274,cs),
(715,-238,o),
(735,-194,o),
(757,-118,cs),
(779,-40,o),
(781,40,o),
(781,152,cs),
(781,300,o),
(743,346,o),
(611,346,cs),
(479,346,o),
(436,306,o),
(436,158,cs),
(436,30,o),
(521,8,o),
(567,-26,cs),
(611,-58,o),
(626,-92,o),
(626,-136,cs),
(626,-192,o),
(605,-212,o),
(571,-230,cs),
(547,-244,o),
(489,-272,o),
(419,-282,c),
(419,-390,l)
);
}
);
width = 1200;
},
{
hints = (
{
horizontal = 1;
options = 4;
place = (-276, 48);
type = TTStem;
},
{
horizontal = 1;
options = 4;
origin = (0,2);
target = (0,30);
type = TTStem;
},
{
horizontal = 1;
origin = (0,20);
target = (0,14);
type = TTStem;
},
{
horizontal = 1;
origin = (0,29);
type = TTSnap;
}
);
layerId = "92EF81BF-A460-40B9-8F71-75F6CAA5A9CA";
shapes = (
{
closed = 1;
nodes = (
(410,-390,o),
(490,-378,o),
(540,-360,cs),
(608,-338,o),
(666,-308,o),
(700,-274,cs),
(746,-232,o),
(766,-194,o),
(790,-118,cs),
(814,-46,o),
(822,2,o),
(822,152,cs),
(822,302,o),
(766,346,o),
(604,346,cs),
(438,346,o),
(402,300,o),
(402,158,cs),
(402,16,o),
(499,1,o),
(542,-26,cs),
(585,-53,o),
(600,-82,o),
(600,-126,cs),
(600,-176,o),
(572,-198,o),
(548,-216,cs),
(522,-236,o),
(434,-266,o),
(366,-272,c),
(366,-390,l)
);
}
);
width = 1200;
}
);
note = comma;
unicode = 44;
}
{
glyphname = hyphen;
layers = (
{
hints = (
{
horizontal = 1;
options = 4;
origin = (0,2);
target = (0,3);
type = TTStem;
},
{
options = 4;
origin = (0,3);
target = (0,0);
type = TTStem;
}
);
layerId = "63BE41E3-0F49-4E61-A903-F52A2E952C90";
shapes = (
{
closed = 1;
nodes = (
(1002,452,l),
(1002,652,l),
(200,652,l),
(200,452,l)
);
}
);
width = 1200;
},
{
associatedMasterId = "63BE41E3-0F49-4E61-A903-F52A2E952C90";
layerId = "21E2753D-042D-4D19-89C8-430560CC5AF5";
name = "new Layer";
shapes = (
{
closed = 1;
nodes = (
(1084,356,l),
(1084,714,l),
(118,714,l),
(118,356,l)
);
}
);
width = 1200;
},
{
hints = (
{
horizontal = 1;
options = 4;
origin = (0,3);
target = (0,2);
type = TTStem;
}
);
layerId = "F48F13AC-C425-4574-8B52-7DBCB7751002";
shapes = (
{
closed = 1;
nodes = (
(1000,432,l),
(1000,670,l),
(200,670,l),
(200,432,l)
);
}
);
width = 1200;
},
{
hints = (
{
horizontal = 1;
options = 4;
origin = (0,3);
target = (0,2);
type = TTStem;
}
);
layerId = "4FB9B80E-81B5-47C9-A539-BB7C5ADDFB58";
shapes = (
{
closed = 1;
nodes = (
(1000,464,l),
(1000,644,l),
(200,644,l),
(200,464,l)
);
}
);
width = 1200;
},
{
hints = (
{
horizontal = 1;
options = 4;
origin = (0,2);
target = (0,3);
type = TTStem;
},
{
options = 4;
origin = (0,3);
target = (0,0);
type = TTStem;
}
);
layerId = "92EF81BF-A460-40B9-8F71-75F6CAA5A9CA";
shapes = (
{
closed = 1;
nodes = (
(1002,442,l),
(1002,662,l),
(200,662,l),
(200,442,l)
);
}
);
width = 1200;
}
);
note = hyphen;
unicode = 45;
}
{
glyphname = period;
layers = (
{
hints = (
{
horizontal = 1;
options = 4;
origin = (0,11);
target = (0,5);
type = TTStem;
},
{
horizontal = 1;
origin = (0,11);
target = (0,5);
type = TTStem;
}
);
layerId = "63BE41E3-0F49-4E61-A903-F52A2E952C90";
shapes = (
{
closed = 1;
nodes = (
(714,-40,o),
(784,30,o),
(784,144,cs),
(784,258,o),
(714,328,o),
(600,328,cs),
(486,328,o),
(416,258,o),
(416,144,cs),
(416,30,o),
(486,-40,o),
(600,-40,cs)
);
}
);
width = 1200;
},
{
associatedMasterId = "63BE41E3-0F49-4E61-A903-F52A2E952C90";
layerId = "21E2753D-042D-4D19-89C8-430560CC5AF5";
name = "new Layer";
shapes = (
{
closed = 1;
nodes = (
(732,-98,ls),
(744,-98,o),
(758,-84,o),
(758,-62,cs),
(758,256,ls),
(758,282,o),
(744,296,o),
(714,296,cs),
(380,296,ls),
(356,296,o),
(342,282,o),
(342,254,cs),
(342,-62,ls),
(342,-84,o),
(356,-98,o),
(376,-98,cs)
);
}
);
width = 1200;
},
{
hints = (
{
horizontal = 1;
options = 4;
place = (12, 185);
type = TTStem;
}
);
layerId = "F48F13AC-C425-4574-8B52-7DBCB7751002";
shapes = (
{
closed = 1;
nodes = (
(750,-56,o),
(814,8,o),
(814,158,cs),
(814,308,o),
(750,370,o),
(600,370,cs),
(450,370,o),
(384,308,o),
(384,158,cs),
(384,8,o),
(450,-56,o),
(600,-56,cs)
);
}
);
width = 1200;
},
{
hints = (
{
horizontal = 1;
options = 4;
origin = (0,11);
target = (0,5);
type = TTStem;
}
);
layerId = "4FB9B80E-81B5-47C9-A539-BB7C5ADDFB58";
shapes = (
{
closed = 1;
nodes = (
(701,-28,o),
(769,40,o),
(769,142,cs),
(769,244,o),
(701,312,o),
(599,312,cs),
(497,312,o),
(431,244,o),
(431,142,cs),
(431,40,o),
(497,-28,o),
(599,-28,cs)
);
}
);
width = 1200;
},
{
hints = (
{
horizontal = 1;
options = 4;
origin = (0,11);
target = (0,5);
type = TTStem;
},
{
horizontal = 1;
origin = (0,11);
target = (0,5);
type = TTStem;
}
);
layerId = "92EF81BF-A460-40B9-8F71-75F6CAA5A9CA";
shapes = (
{
closed = 1;
nodes = (
(732,-48,o),
(800,20,o),
(800,152,cs),
(800,284,o),
(732,350,o),
(600,350,cs),
(468,350,o),
(400,284,o),
(400,152,cs),
(400,20,o),
(468,-48,o),
(600,-48,cs)
);
}
);
width = 1200;
}
);
note = period;
unicode = 46;
}
{
glyphname = slash;
layers = (
{
layerId = "63BE41E3-0F49-4E61-A903-F52A2E952C90";
shapes = (
{
closed = 1;
nodes = (
(380,-380,l),
(1082,1550,l),
(898,1550,l),
(196,-380,l)
);
}
);
width = 1200;
},
{
hints = (
{
horizontal = 1;
options = 4;
place = (1600, 0);
stem = -1;
type = TTSnap;
}
);
layerId = "F48F13AC-C425-4574-8B52-7DBCB7751002";
shapes = (
{
closed = 1;
nodes = (
(424,-380,l),
(1126,1550,l),
(876,1550,l),
(174,-380,l)
);
}
);
width = 1200;
},
{
hints = (
{
horizontal = 1;
options = 4;
place = (1600, 0);
stem = -1;
type = TTSnap;
}
);
layerId = "4FB9B80E-81B5-47C9-A539-BB7C5ADDFB58";
shapes = (
{
closed = 1;
nodes = (
(352,-380,l),
(1054,1550,l),
(902,1550,l),
(200,-380,l)
);
}
);
width = 1200;
},
{
layerId = "92EF81BF-A460-40B9-8F71-75F6CAA5A9CA";
shapes = (
{
closed = 1;
nodes = (
(404,-380,l),
(1106,1550,l),
(888,1550,l),
(186,-380,l)
);
}
);
width = 1200;
}
);
note = slash;
unicode = 47;
}
{
glyphname = zero;
layers = (
{
hints = (
{
horizontal = 1;
options = 4;
origin = (0,11);
target = (2,11);
type = TTStem;
},
{
horizontal = 1;
options = 4;
origin = (0,5);
target = (2,5);
type = TTStem;
},
{
horizontal = 1;
origin = (0,5);
target = (2,5);
type = TTStem;
},
{
horizontal = 1;
origin = (0,11);
target = (2,11);
type = TTStem;
},
{
horizontal = 1;
origin = (1,3);
target = (1,1);
type = TTStem;
}
);
layerId = "63BE41E3-0F49-4E61-A903-F52A2E952C90";
shapes = (
{
closed = 1;
nodes = (
(1030,-20,o),
(1082,276,o),
(1082,732,cs),
(1082,1170,o),
(1020,1470,o),
(602,1470,cs),
(184,1470,o),
(122,1168,o),
(122,732,cs),
(122,276,o),
(174,-20,o),
(602,-20,cs)
);
},
{
closed = 1;
nodes = (
(726,732,l),
(602,874,l),
(478,732,l),
(602,604,l)
);
},
{
closed = 1;
nodes = (
(326,124,o),
(290,378,o),
(290,732,cs),
(290,1084,o),
(318,1326,o),
(602,1326,cs),
(886,1326,o),
(914,1084,o),
(914,732,cs),
(914,378,o),
(878,124,o),
(602,124,cs)
);
}
);
width = 1200;
},
{
associatedMasterId = "63BE41E3-0F49-4E61-A903-F52A2E952C90";
layerId = "21E2753D-042D-4D19-89C8-430560CC5AF5";
name = "new Layer";
shapes = (
{
closed = 1;
nodes = (
(918,-28,o),
(1012,400,o),
(1012,730,cs),
(1012,1058,o),
(926,1458,o),
(554,1458,cs),
(190,1458,o),
(88,1060,o),
(88,738,cs),
(88,404,o),
(160,-28,o),
(542,-28,cs)
);
},
{
closed = 1;
nodes = (
(690,712,l),
(542,874,l),
(406,712,l),
(540,564,l)
);
},
{
closed = 1;
nodes = (
(358,326,o),
(330,528,o),
(330,696,cs),
(330,850,o),
(356,1162,o),
(550,1162,cs),
(748,1162,o),
(758,842,o),
(758,696,cs),
(758,544,o),
(728,326,o),
(538,326,cs)
);
}
);
width = 1200;
},
{
hints = (
{
horizontal = 1;
options = 4;
origin = (0,11);
target = (2,11);
type = TTStem;
},
{
horizontal = 1;
options = 4;
origin = (0,5);
target = (2,5);
type = TTStem;
}
);
layerId = "F48F13AC-C425-4574-8B52-7DBCB7751002";
shapes = (
{
closed = 1;
nodes = (
(1054,-24,o),
(1118,272,o),
(1118,728,cs),
(1118,1230,o),
(1060,1470,o),
(600,1470,cs),
(140,1470,o),
(82,1230,o),
(82,728,cs),
(82,272,o),
(146,-24,o),
(600,-24,cs)
);
},
{
closed = 1;
nodes = (
(748,728,l),
(600,900,l),
(452,728,l),
(600,572,l)
);
},
{
closed = 1;
nodes = (
(398,228,o),
(372,318,o),
(372,728,cs),
(372,1048,o),
(394,1216,o),
(600,1216,cs),
(806,1216,o),
(828,1048,o),
(828,728,cs),
(828,318,o),
(814,228,o),
(600,228,cs)
);
}
);
width = 1200;
},
{
hints = (
{
horizontal = 1;
options = 4;
origin = (0,11);
target = (2,11);
type = TTStem;
},
{
horizontal = 1;
options = 4;
origin = (0,5);
target = (2,5);
type = TTStem;
}
);
layerId = "4FB9B80E-81B5-47C9-A539-BB7C5ADDFB58";
shapes = (
{
closed = 1;
nodes = (
(1003,-20,o),
(1077,292,o),
(1077,730,cs),
(1077,1160,o),
(1011,1470,o),
(599,1470,cs),
(189,1470,o),
(123,1158,o),
(123,730,cs),
(123,292,o),
(185,-20,o),
(599,-20,cs)
);
},
{
closed = 1;
nodes = (
(733,730,l),
(599,880,l),
(465,730,l),
(599,594,l)
);
},
{
closed = 1;
nodes = (
(305,112,o),
(263,392,o),
(263,730,cs),
(263,1084,o),
(295,1336,o),
(599,1336,cs),
(905,1336,o),
(937,1084,o),
(937,730,cs),
(937,392,o),
(891,112,o),
(599,112,cs)
);
}
);
width = 1200;
},
{
hints = (
{
horizontal = 1;
options = 4;
origin = (0,11);
target = (2,11);
type = TTStem;
},
{
horizontal = 1;
options = 4;
origin = (0,5);
target = (2,5);
type = TTStem;
},
{
horizontal = 1;
origin = (0,5);
target = (2,5);
type = TTStem;
},
{
horizontal = 1;
origin = (0,11);
target = (2,11);
type = TTStem;
},
{
horizontal = 1;
origin = (1,3);
target = (1,1);
type = TTStem;
}
);
layerId = "92EF81BF-A460-40B9-8F71-75F6CAA5A9CA";
shapes = (
{
closed = 1;
nodes = (
(1042,-20,o),
(1100,274,o),
(1100,730,cs),
(1100,1202,o),
(1040,1470,o),
(602,1470,cs),
(162,1470,o),
(102,1202,o),
(102,730,cs),
(102,274,o),
(160,-20,o),
(602,-20,cs)
);
},
{
closed = 1;
nodes = (
(738,730,l),
(602,886,l),
(466,730,l),
(602,588,l)
);
},
{
closed = 1;
nodes = (
(362,176,o),
(332,348,o),
(332,730,cs),
(332,1068,o),
(356,1272,o),
(602,1272,cs),
(846,1272,o),
(872,1068,o),
(872,730,cs),
(872,348,o),
(846,176,o),
(602,176,cs)
);
}
);
width = 1200;
}
);
note = zero;
unicode = 48;
}
{
glyphname = one;
layers = (
{
hints = (
{
horizontal = 1;
options = 4;
origin = (0,14);
target = (0,13);
type = TTStem;
},
{
horizontal = 1;
place = (0, 81);
type = TTStem;
},
{
horizontal = 1;
place = (1442, 42);
type = TTStem;
},
{
horizontal = 1;
origin = (0,7);
target = (0,8);
type = TTStem;
},
{
horizontal = 1;
origin = (0,11);
type = TTSnap;
},
{
horizontal = 1;
origin = (0,11);
type = TTSnap;
},
{
horizontal = 1;
origin = (0,14);
target = (0,13);
type = TTStem;
}
);
layerId = "63BE41E3-0F49-4E61-A903-F52A2E952C90";
shapes = (
{
closed = 1;
nodes = (
(1042,0,l),
(1042,148,l),
(714,148,l),
(714,1450,l),
(568,1450,l),
(488,1348,o),
(308,1162,o),
(160,1100,c),
(160,930,l),
(278,962,o),
(450,1094,o),
(546,1190,c),
(546,148,l),
(192,148,l),
(192,0,l)
);
}
);
width = 1200;
},
{
associatedMasterId = "63BE41E3-0F49-4E61-A903-F52A2E952C90";
layerId = "21E2753D-042D-4D19-89C8-430560CC5AF5";
name = "new Layer";
shapes = (
{
closed = 1;
nodes = (
(984,0,l),
(984,240,l),
(712,240,l),
(712,1436,l),
(468,1436,l),
(368,1334,o),
(258,1230,o),
(84,1168,c),
(84,900,l),
(240,948,o),
(304,990,o),
(438,1076,c),
(438,240,l),
(130,240,l),
(130,0,l)
);
}
);
width = 1200;
},
{
hints = (
{
horizontal = 1;
options = 4;
origin = (0,14);
target = (0,13);
type = TTStem;
}
);
layerId = "F48F13AC-C425-4574-8B52-7DBCB7751002";
shapes = (
{
closed = 1;
nodes = (
(1068,0,l),
(1068,250,l),
(766,250,l),
(766,1450,l),
(516,1450,l),
(420,1320,o),
(306,1192,o),
(132,1122,c),
(132,850,l),
(288,900,o),
(358,952,o),
(486,1068,c),
(486,250,l),
(156,250,l),
(156,0,l)
);
}
);
width = 1200;
},
{
hints = (
{
horizontal = 1;
options = 4;
origin = (0,14);
target = (0,13);
type = TTStem;
},
{
horizontal = 1;
options = 4;
origin = (0,13);
target = (0,14);
type = TTStem;
},
{
horizontal = 1;
options = 4;
origin = (0,8);
target = (0,7);
type = TTStem;
}
);
layerId = "4FB9B80E-81B5-47C9-A539-BB7C5ADDFB58";
shapes = (
{
closed = 1;
nodes = (
(1037,0,l),
(1037,128,l),
(703,128,l),
(703,1450,l),
(575,1450,l),
(499,1352,o),
(307,1158,o),
(163,1096,c),
(163,944,l),
(275,972,o),
(465,1118,o),
(555,1210,c),
(555,128,l),
(197,128,l),
(197,0,l)
);
}
);
width = 1200;
},
{
hints = (
{
horizontal = 1;
options = 4;
origin = (0,14);
target = (0,13);
type = TTStem;
},
{
horizontal = 1;
place = (0, 40.5);
type = TTStem;
},
{
horizontal = 1;
place = (721, 21);
type = TTStem;
},
{
horizontal = 1;
origin = (0,7);
target = (0,8);
type = TTStem;
},
{
horizontal = 1;
origin = (0,11);
type = TTSnap;
},
{
horizontal = 1;
origin = (0,11);
type = TTSnap;
},
{
horizontal = 1;
origin = (0,14);
target = (0,13);
type = TTStem;
}
);
layerId = "92EF81BF-A460-40B9-8F71-75F6CAA5A9CA";
shapes = (
{
closed = 1;
nodes = (
(1056,0,l),
(1056,200,l),
(740,200,l),
(740,1450,l),
(542,1450,l),
(454,1334,o),
(308,1178,o),
(146,1112,c),
(146,890,l),
(284,932,o),
(404,1024,o),
(516,1130,c),
(516,200,l),
(174,200,l),
(174,0,l)
);
}
);
width = 1200;
}
);
note = one;
unicode = 49;
}
{
glyphname = two;
layers = (
{
hints = (
{
horizontal = 1;
options = 4;
origin = (0,22);
target = (0,2);
type = TTStem;
},
{
horizontal = 1;
options = 4;
origin = (0,8);
target = (0,15);
type = TTStem;
},
{
options = 4;
origin = (0,11);
target = (0,12);
type = TTStem;
},
{
options = 4;
origin = (0,18);
target = (0,5);
type = TTStem;
}
);
layerId = "63BE41E3-0F49-4E61-A903-F52A2E952C90";
shapes = (
{
closed = 1;
nodes = (
(1036,-10,l),
(1036,138,l),
(356,138,l),
(586,366,o),
(1024,758,o),
(1024,1082,cs),
(1024,1346,o),
(826,1470,o),
(608,1470,cs),
(368,1470,o),
(172,1324,o),
(166,1044,c),
(342,1044,l),
(342,1212,o),
(450,1322,o),
(602,1322,cs),
(740,1322,o),
(840,1224,o),
(840,1068,cs),
(840,768,o),
(358,354,o),
(154,168,c),
(154,-10,l)
);
}
);
width = 1200;
},
{
associatedMasterId = "63BE41E3-0F49-4E61-A903-F52A2E952C90";
background = {
shapes = (
{
closed = 1;
nodes = (
(58,0,l),
(1016,0,l),
(1016,276,l),
(458,276,l),
(580,380,o),
(784,562,o),
(930,742,o),
(1014,928,o),
(1014,1036,qs),
(1014,1096,o),
(986,1210,o),
(950,1260,qs),
(830,1430,o),
(566,1430,qs),
(530,1430,o),
(422,1420,o),
(310,1386,o),
(202,1324,o),
(166,1270,qs),
(134,1226,o),
(102,1144,o),
(84,1074,o),
(80,1018,o),
(80,1002,q),
(410,1002,l),
(412,1016,o),
(418,1070,o),
(448,1124,o),
(502,1164,o),
(550,1164,qs),
(564,1164,o),
(608,1156,o),
(650,1126,o),
(676,1070,o),
(676,1024,qs),
(676,976,o),
(652,898,o),
(634,866,qs),
(606,810,o),
(488,682,o),
(338,536,o),
(156,374,o),
(58,288,q),
(58,288,l)
);
}
);
};
layerId = "21E2753D-042D-4D19-89C8-430560CC5AF5";
name = "new Layer";
shapes = (
{
closed = 1;
nodes = (
(1018,0,l),
(1018,240,l),
(404,240,l),
(708,502,o),
(1014,772,o),
(1014,1036,cs),
(1014,1346,o),
(782,1430,o),
(566,1430,cs),
(282,1430,o),
(78,1334,o),
(78,980,c),
(404,980,l),
(404,1076,o),
(480,1164,o),
(560,1164,cs),
(640,1164,o),
(696,1108,o),
(696,1024,cs),
(696,810,o),
(452,636,o),
(58,288,c),
(58,0,l)
);
}
);
width = 1200;
},
{
hints = (
{
horizontal = 1;
options = 4;
origin = (0,22);
target = (0,2);
type = TTStem;
},
{
horizontal = 1;
options = 4;
origin = (0,15);
target = (0,8);
type = TTStem;
}
);
layerId = "F48F13AC-C425-4574-8B52-7DBCB7751002";
shapes = (
{
closed = 1;
nodes = (
(1076,0,l),
(1074,250,l),
(462,250,l),
(692,454,o),
(1080,734,o),
(1080,1066,cs),
(1080,1366,o),
(840,1470,o),
(624,1470,cs),
(340,1470,o),
(136,1338,o),
(136,1010,c),
(436,1010,l),
(436,1108,o),
(510,1192,o),
(602,1196,cs),
(682,1200,o),
(758,1140,o),
(758,1054,cs),
(758,834,o),
(510,694,o),
(116,338,c),
(116,0,l)
);
}
);
width = 1200;
},
{
hints = (
{
horizontal = 1;
options = 4;
origin = (0,22);
target = (0,2);
type = TTStem;
},
{
horizontal = 1;
options = 4;
origin = (0,8);
target = (0,15);
type = TTStem;
}
);
layerId = "4FB9B80E-81B5-47C9-A539-BB7C5ADDFB58";
shapes = (
{
closed = 1;
nodes = (
(1035,-12,l),
(1035,116,l),
(343,116,l),
(573,348,o),
(1017,762,o),
(1017,1084,cs),
(1017,1336,o),
(829,1468,o),
(611,1468,cs),
(377,1468,o),
(177,1320,o),
(177,1048,c),
(327,1048,l),
(327,1228,o),
(445,1342,o),
(609,1342,cs),
(757,1342,o),
(859,1228,o),
(859,1070,cs),
(859,756,o),
(337,298,o),
(165,140,c),
(165,-12,l)
);
}
);
width = 1200;
},
{
hints = (
{
horizontal = 1;
options = 4;
origin = (0,22);
target = (0,2);
type = TTStem;
},
{
horizontal = 1;
options = 4;
origin = (0,8);
target = (0,15);
type = TTStem;
},
{
options = 4;
origin = (0,11);
target = (0,12);
type = TTStem;
},
{
options = 4;
origin = (0,18);
target = (0,5);
type = TTStem;
}
);
layerId = "92EF81BF-A460-40B9-8F71-75F6CAA5A9CA";
shapes = (
{
closed = 1;
nodes = (
(1056,-6,l),
(1056,194,l),
(410,194,l),
(640,410,o),
(1052,746,o),
(1052,1074,cs),
(1052,1356,o),
(834,1470,o),
(616,1470,cs),
(354,1470,o),
(154,1332,o),
(152,1028,c),
(390,1028,l),
(390,1160,o),
(480,1258,o),
(602,1260,cs),
(712,1262,o),
(800,1182,o),
(800,1062,cs),
(800,802,o),
(434,524,o),
(136,254,c),
(136,-6,l)
);
}
);
width = 1200;
}
);
note = two;
unicode = 50;
}
{
glyphname = three;
layers = (
{
hints = (
{
horizontal = 1;
options = 4;
origin = (0,2);
target = (0,22);
type = TTStem;
},
{
horizontal = 1;
options = 4;
origin = (0,13);
target = (0,12);
type = TTStem;
},
{
options = 4;
origin = (0,26);
target = (0,25);
type = TTStem;
},
{
options = 4;
origin = (0,19);
target = (0,5);
type = TTStem;
},
{
horizontal = 1;
options = 4;
origin = (0,12);
target = (0,13);
type = TTStem;
}
);
layerId = "63BE41E3-0F49-4E61-A903-F52A2E952C90";
shapes = (
{
closed = 1;
nodes = (
(132,114,o),
(356,-22,o),
(584,-22,cs),
(816,-22,o),
(1070,122,o),
(1070,404,cs),
(1070,646,o),
(936,880,o),
(520,902,c),
(578,826,l),
(1042,1280,l),
(1042,1450,l),
(166,1450,l),
(166,1300,l),
(832,1300,l),
(430,914,l),
(430,764,l),
(696,764,o),
(894,636,o),
(894,404,cs),
(894,230,o),
(748,124,o),
(594,124,cs),
(450,124,o),
(308,226,o),
(308,404,c),
(132,404,l)
);
}
);
width = 1200;
},
{
associatedMasterId = "63BE41E3-0F49-4E61-A903-F52A2E952C90";
background = {
shapes = (
{
closed = 1;
nodes = (
(64,400,l),
(66,376,o),
(70,314,o),
(86,246,o),
(122,172,o),
(150,134,qs),
(212,48,o),
(404,-26,o),
(546,-26,qs),
(630,-26,o),
(752,-4,o),
(836,32,o),
(894,74,o),
(916,92,qs),
(988,152,o),
(1034,310,o),
(1034,386,qs),
(1034,498,o),
(962,630,o),
(866,698,o),
(772,720,o),
(750,724,q),
(750,734,l),
(808,742,o),
(904,800,o),
(972,888,o),
(1012,1000,o),
(1012,1064,qs),
(1012,1142,o),
(954,1278,o),
(838,1376,o),
(670,1432,o),
(560,1432,qs),
(466,1432,o),
(296,1384,o),
(168,1282,o),
(96,1124,o),
(92,1016,q),
(404,1016,l),
(408,1066,o),
(438,1130,o),
(480,1164,o),
(530,1176,o),
(550,1176,qs),
(618,1176,o),
(702,1092,o),
(702,1020,qs),
(702,1014,o),
(698,964,o),
(672,906,o),
(616,852,o),
(564,844,qs),
(514,836,o),
(424,836,o),
(392,838,q),
(392,590,l),
(408,592,o),
(454,594,o),
(480,594,qs),
(504,594,o),
(584,588,o),
(664,556,o),
(720,482,o),
(720,416,qs),
(720,384,o),
(702,318,o),
(662,266,o),
(594,232,o),
(544,232,qs),
(452,232,o),
(382,332,o),
(378,400,q),
(378,400,l)
);
}
);
};
layerId = "21E2753D-042D-4D19-89C8-430560CC5AF5";
name = "new Layer";
shapes = (
{
closed = 1;
nodes = (
(64,72,o),
(318,-26,o),
(546,-26,cs),
(778,-26,o),
(1052,114,o),
(1052,390,cs),
(1052,630,o),
(886,738,o),
(756,760,c),
(756,780,l),
(1046,1092,l),
(1046,1438,l),
(130,1438,l),
(130,1198,l),
(736,1198,l),
(342,826,l),
(342,610,l),
(588,610,o),
(720,522,o),
(720,416,cs),
(720,248,o),
(594,232,o),
(544,232,cs),
(494,232,o),
(378,246,o),
(378,400,c),
(64,400,l)
);
}
);
width = 1200;
},
{
hints = (
{
horizontal = 1;
options = 4;
origin = (0,2);
target = (0,22);
type = TTStem;
},
{
horizontal = 1;
options = 4;
origin = (0,13);
target = (0,12);
type = TTStem;
}
);
layerId = "F48F13AC-C425-4574-8B52-7DBCB7751002";
shapes = (
{
closed = 1;
nodes = (
(106,80,o),
(360,-22,o),
(588,-22,cs),
(820,-22,o),
(1094,124,o),
(1094,414,cs),
(1094,642,o),
(928,798,o),
(798,820,c),
(798,840,l),
(1088,1102,l),
(1088,1450,l),
(172,1450,l),
(172,1208,l),
(778,1208,l),
(384,886,l),
(384,686,l),
(698,686,o),
(762,532,o),
(762,414,cs),
(762,258,o),
(636,238,o),
(586,238,cs),
(536,238,o),
(420,256,o),
(420,414,c),
(106,414,l)
);
}
);
width = 1200;
},
{
hints = (
{
horizontal = 1;
options = 4;
origin = (0,2);
target = (0,22);
type = TTStem;
},
{
horizontal = 1;
options = 4;
origin = (0,13);
target = (0,12);
type = TTStem;
}
);
layerId = "4FB9B80E-81B5-47C9-A539-BB7C5ADDFB58";
shapes = (
{
closed = 1;
nodes = (
(135,120,o),
(355,-22,o),
(583,-22,cs),
(815,-22,o),
(1065,122,o),
(1065,402,cs),
(1065,646,o),
(937,894,o),
(473,916,c),
(541,824,l),
(1033,1310,l),
(1033,1450,l),
(165,1450,l),
(165,1316,l),
(841,1316,l),
(437,918,l),
(437,778,l),
(695,778,o),
(915,654,o),
(915,402,cs),
(915,226,o),
(765,106,o),
(595,106,cs),
(435,106,o),
(289,222,o),
(289,402,c),
(135,402,l)
);
}
);
width = 1200;
},
{
hints = (
{
horizontal = 1;
options = 4;
origin = (0,2);
target = (0,22);
type = TTStem;
},
{
horizontal = 1;
options = 4;
origin = (0,13);
target = (0,12);
type = TTStem;
},
{
options = 4;
origin = (0,26);
target = (0,25);
type = TTStem;
},
{
options = 4;
origin = (0,19);
target = (0,5);
type = TTStem;
},
{
horizontal = 1;
options = 4;
origin = (0,12);
target = (0,13);
type = TTStem;
}
);
layerId = "92EF81BF-A460-40B9-8F71-75F6CAA5A9CA";
shapes = (
{
closed = 1;
nodes = (
(120,98,o),
(358,-22,o),
(586,-22,cs),
(818,-22,o),
(1082,124,o),
(1082,410,cs),
(1082,644,o),
(932,840,o),
(660,862,c),
(688,834,l),
(1066,1192,l),
(1066,1450,l),
(170,1450,l),
(170,1254,l),
(806,1254,l),
(408,900,l),
(408,726,l),
(698,726,o),
(828,584,o),
(828,410,cs),
(828,244,o),
(692,182,o),
(590,182,cs),
(494,182,o),
(364,242,o),
(364,410,c),
(120,410,l)
);
}
);
width = 1200;
}
);
note = three;
unicode = 51;
}
{
glyphname = four;
layers = (
{
hints = (
{
horizontal = 1;
origin = (0,10);
type = TTSnap;
},
{
horizontal = 1;
origin = (0,8);
target = (1,2);
type = TTStem;
},
{
options = 4;
origin = (0,10);
target = (0,0);
type = TTStem;
},
{
horizontal = 1;
options = 4;
origin = (0,2);
target = (0,3);
type = TTStem;
}
);
layerId = "63BE41E3-0F49-4E61-A903-F52A2E952C90";
shapes = (
{
closed = 1;
nodes = (
(888,0,l),
(888,312,l),
(1094,312,l),
(1094,460,l),
(888,460,l),
(888,1450,l),
(658,1450,l),
(80,472,l),
(80,312,l),
(714,312,l),
(714,0,l)
);
},
{
closed = 1;
nodes = (
(716,1244,l),
(716,460,l),
(264,460,l)
);
}
);
width = 1200;
},
{
associatedMasterId = "63BE41E3-0F49-4E61-A903-F52A2E952C90";
background = {
shapes = (
{
closed = 1;
nodes = (
(258,530,l),
(588,1100,l),
(588,530,l),
(588,530,l)
);
},
{
closed = 1;
nodes = (
(582,0,l),
(866,0,l),
(866,276,l),
(1042,276,l),
(1042,530,l),
(866,530,l),
(866,1394,l),
(518,1394,l),
(56,602,l),
(56,276,l),
(582,276,l),
(582,276,l)
);
}
);
};
layerId = "21E2753D-042D-4D19-89C8-430560CC5AF5";
name = "new Layer";
shapes = (
{
closed = 1;
nodes = (
(868,0,l),
(868,280,l),
(1072,280,l),
(1072,526,l),
(868,526,l),
(868,1438,l),
(548,1438,l),
(58,602,l),
(58,280,l),
(584,280,l),
(584,0,l)
);
},
{
closed = 1;
nodes = (
(588,1028,l),
(588,526,l),
(290,526,l)
);
}
);
width = 1200;
},
{
background = {
shapes = (
{
closed = 1;
nodes = (
(258,530,l),
(588,1100,l),
(588,530,l),
(588,530,l)
);
},
{
closed = 1;
nodes = (
(582,0,l),
(866,0,l),
(866,276,l),
(1042,276,l),
(1042,530,l),
(866,530,l),
(866,1394,l),
(518,1394,l),
(56,602,l),
(56,276,l),
(582,276,l),
(582,276,l)
);
}
);
};
hints = (
{
horizontal = 1;
options = 4;
origin = (0,10);
stem = -1;
type = TTSnap;
},
{
horizontal = 1;
options = 4;
origin = (0,8);
target = (1,2);
type = TTStem;
}
);
layerId = "F48F13AC-C425-4574-8B52-7DBCB7751002";
shapes = (
{
closed = 1;
nodes = (
(924,0,l),
(924,282,l),
(1128,282,l),
(1128,530,l),
(924,530,l),
(924,1450,l),
(594,1450,l),
(74,608,l),
(74,282,l),
(640,282,l),
(640,0,l)
);
},
{
closed = 1;
nodes = (
(644,1036,l),
(644,530,l),
(346,530,l)
);
}
);
width = 1200;
},
{
hints = (
{
horizontal = 1;
options = 4;
origin = (0,10);
stem = -1;
type = TTSnap;
},
{
horizontal = 1;
options = 4;
origin = (0,8);
target = (1,2);
type = TTStem;
}
);
layerId = "4FB9B80E-81B5-47C9-A539-BB7C5ADDFB58";
shapes = (
{
closed = 1;
nodes = (
(896,0,l),
(896,320,l),
(1102,320,l),
(1102,448,l),
(896,448,l),
(896,1450,l),
(688,1450,l),
(98,450,l),
(98,320,l),
(746,320,l),
(746,0,l)
);
},
{
closed = 1;
nodes = (
(748,1282,l),
(748,448,l),
(270,448,l)
);
}
);
width = 1200;
},
{
hints = (
{
horizontal = 1;
origin = (0,10);
type = TTSnap;
},
{
horizontal = 1;
origin = (0,8);
target = (1,2);
type = TTStem;
},
{
options = 4;
origin = (0,10);
target = (0,0);
type = TTStem;
},
{
horizontal = 1;
options = 4;
origin = (0,2);
target = (0,3);
type = TTStem;
}
);
layerId = "92EF81BF-A460-40B9-8F71-75F6CAA5A9CA";
shapes = (
{
closed = 1;
nodes = (
(900,0,l),
(900,298,l),
(1106,298,l),
(1106,496,l),
(900,496,l),
(900,1450,l),
(620,1450,l),
(82,540,l),
(82,298,l),
(672,298,l),
(672,0,l)
);
},
{
closed = 1;
nodes = (
(674,1140,l),
(674,496,l),
(300,496,l)
);
}
);
width = 1200;
}
);
note = four;
unicode = 52;
}
{
glyphname = five;
layers = (
{
hints = (
{
horizontal = 1;
options = 4;
origin = (0,30);
target = (0,23);
type = TTStem;
},
{
horizontal = 1;
options = 4;
origin = (0,17);
target = (0,5);
type = TTStem;
},
{
horizontal = 1;
origin = (0,30);
target = (0,23);
type = TTStem;
},
{
horizontal = 1;
origin = (0,17);
target = (0,5);
type = TTStem;
},
{
horizontal = 1;
origin = (0,11);
target = (0,10);
type = TTStem;
},
{
horizontal = 1;
origin = (0,30);
target = (0,23);
type = TTStem;
},
{
horizontal = 1;
origin = (0,17);
target = (0,5);
type = TTStem;
},
{
horizontal = 1;
origin = (0,11);
target = (0,10);
type = TTStem;
},
{
options = 4;
origin = (0,20);
target = (0,2);
type = TTStem;
},
{
options = 4;
origin = (0,27);
target = (0,26);
type = TTStem;
},
{
options = 4;
origin = (0,13);
target = (0,14);
type = TTStem;
}
);
layerId = "63BE41E3-0F49-4E61-A903-F52A2E952C90";
shapes = (
{
closed = 1;
nodes = (
(860,-18,o),
(1046,184,o),
(1046,482,cs),
(1046,756,o),
(900,978,o),
(640,978,cs),
(526,978,o),
(445,916,o),
(377,830,c),
(444,1296,l),
(1006,1296,l),
(1006,1450,l),
(284,1450,l),
(180,610,l),
(356,610,l),
(386,742,o),
(488,822,o),
(608,822,cs),
(784,822,o),
(868,664,o),
(868,486,cs),
(868,294,o),
(778,126,o),
(588,126,cs),
(452,126,o),
(338,196,o),
(338,354,c),
(162,354,l),
(162,92,o),
(362,-18,o),
(590,-18,cs)
);
}
);
width = 1200;
},
{
associatedMasterId = "63BE41E3-0F49-4E61-A903-F52A2E952C90";
background = {
shapes = (
{
closed = 1;
nodes = (
(38,396,l),
(38,372,o),
(44,312,o),
(60,242,o),
(94,166,o),
(126,128,qs),
(170,78,o),
(284,14,o),
(398,-20,o),
(510,-30,o),
(546,-30,qs),
(584,-30,o),
(680,-20,o),
(774,8,o),
(866,60,o),
(908,102,qs),
(952,148,o),
(1006,256,o),
(1032,362,o),
(1042,456,o),
(1042,488,qs),
(1042,614,o),
(972,788,o),
(862,898,o),
(728,946,o),
(662,946,qs),
(618,946,o),
(536,926,o),
(496,904,qs),
(436,872,o),
(384,802,o),
(368,774,q),
(390,1114,l),
(968,1114,l),
(968,1386,l),
(82,1386,l),
(56,572,l),
(398,568,l),
(404,614,o),
(474,690,o),
(538,690,qs),
(582,690,o),
(644,654,o),
(682,594,o),
(696,516,o),
(696,474,qs),
(696,446,o),
(686,364,o),
(670,328,qs),
(656,298,o),
(594,238,o),
(528,238,qs),
(464,238,o),
(380,316,o),
(376,396,q),
(376,396,l)
);
}
);
};
layerId = "21E2753D-042D-4D19-89C8-430560CC5AF5";
name = "new Layer";
shapes = (
{
closed = 1;
nodes = (
(854,-30,o),
(1050,172,o),
(1050,470,cs),
(1050,744,o),
(902,946,o),
(642,946,cs),
(528,946,o),
(430,898,o),
(354,804,c),
(376,1132,l),
(982,1132,l),
(982,1438,l),
(100,1438,l),
(70,568,l),
(360,568,l),
(372,624,o),
(416,690,o),
(514,690,cs),
(612,690,o),
(696,652,o),
(696,474,cs),
(696,282,o),
(568,238,o),
(504,238,cs),
(440,238,o),
(354,278,o),
(354,396,c),
(66,396,l),
(66,102,o),
(310,-30,o),
(584,-30,cs)
);
}
);
width = 1200;
},
{
hints = (
{
horizontal = 1;
options = 4;
origin = (0,30);
target = (0,23);
type = TTStem;
},
{
horizontal = 1;
options = 4;
origin = (0,17);
target = (0,5);
type = TTStem;
},
{
horizontal = 1;
options = 4;
origin = (0,9);
target = (0,12);
type = TTStem;
}
);
layerId = "F48F13AC-C425-4574-8B52-7DBCB7751002";
shapes = (
{
closed = 1;
nodes = (
(909,-20,o),
(1092,189,o),
(1092,483,cs),
(1092,758,o),
(932,969,o),
(685,969,cs),
(557,969,o),
(460,913,o),
(404,818,c),
(463,1194,l),
(1024,1194,l),
(1024,1450,l),
(217,1450,l),
(112,586,l),
(402,586,l),
(428,654,o),
(493,704,o),
(587,704,cs),
(681,704,o),
(774,654,o),
(774,488,cs),
(774,297,o),
(652,252,o),
(579,252,cs),
(510,252,o),
(416,292,o),
(396,410,c),
(108,410,l),
(108,116,o),
(361,-20,o),
(606,-20,cs)
);
}
);
width = 1200;
},
{
hints = (
{
horizontal = 1;
options = 4;
origin = (0,30);
target = (0,23);
type = TTStem;
},
{
horizontal = 1;
options = 4;
origin = (0,17);
target = (0,5);
type = TTStem;
},
{
horizontal = 1;
options = 4;
origin = (0,9);
target = (0,12);
type = TTStem;
}
);
layerId = "4FB9B80E-81B5-47C9-A539-BB7C5ADDFB58";
shapes = (
{
closed = 1;
nodes = (
(849,-18,o),
(1033,184,o),
(1033,482,cs),
(1033,756,o),
(887,980,o),
(627,980,cs),
(513,980,o),
(437,929,o),
(371,843,c),
(435,1324,l),
(999,1324,l),
(999,1454,l),
(293,1454,l),
(189,614,l),
(341,614,l),
(375,758,o),
(483,842,o),
(607,842,cs),
(795,842,o),
(879,664,o),
(879,486,cs),
(879,294,o),
(795,106,o),
(585,106,cs),
(437,106,o),
(323,180,o),
(323,344,c),
(167,344,l),
(167,88,o),
(359,-18,o),
(579,-18,cs)
);
}
);
width = 1200;
},
{
hints = (
{
horizontal = 1;
options = 4;
origin = (0,30);
target = (0,23);
type = TTStem;
},
{
horizontal = 1;
options = 4;
origin = (0,17);
target = (0,5);
type = TTStem;
},
{
horizontal = 1;
origin = (0,30);
target = (0,23);
type = TTStem;
},
{
horizontal = 1;
origin = (0,17);
target = (0,5);
type = TTStem;
},
{
horizontal = 1;
origin = (0,11);
target = (0,10);
type = TTStem;
},
{
horizontal = 1;
origin = (0,30);
target = (0,23);
type = TTStem;
},
{
horizontal = 1;
origin = (0,17);
target = (0,5);
type = TTStem;
},
{
horizontal = 1;
origin = (0,11);
target = (0,10);
type = TTStem;
},
{
options = 4;
origin = (0,20);
target = (0,2);
type = TTStem;
},
{
options = 4;
origin = (0,27);
target = (0,26);
type = TTStem;
},
{
options = 4;
origin = (0,13);
target = (0,14);
type = TTStem;
}
);
layerId = "92EF81BF-A460-40B9-8F71-75F6CAA5A9CA";
shapes = (
{
closed = 1;
nodes = (
(878,-20,o),
(1070,186,o),
(1070,484,cs),
(1070,758,o),
(922,970,o),
(662,970,cs),
(548,970,o),
(463,919,o),
(391,829,c),
(450,1246,l),
(1016,1246,l),
(1016,1450,l),
(250,1450,l),
(146,598,l),
(380,598,l),
(408,698,o),
(490,764,o),
(600,764,cs),
(732,764,o),
(822,660,o),
(822,488,cs),
(822,296,o),
(716,190,o),
(584,190,cs),
(482,190,o),
(378,244,o),
(368,382,c),
(136,382,l),
(136,104,o),
(358,-20,o),
(608,-20,cs)
);
}
);
width = 1200;
}
);
note = five;
unicode = 53;
}
{
glyphname = six;
layers = (
{
hints = (
{
horizontal = 1;
options = 4;
origin = (0,24);
target = (1,11);
type = TTStem;
},
{
horizontal = 1;
options = 4;
origin = (1,5);
target = (0,5);
type = TTStem;
},
{
horizontal = 1;
options = 4;
origin = (0,18);
target = (0,11);
type = TTStem;
},
{
horizontal = 1;
origin = (1,5);
target = (0,5);
type = TTStem;
},
{
options = 4;
origin = (1,8);
target = (0,2);
type = TTStem;
},
{
horizontal = 1;
options = 4;
origin = (1,11);
target = (0,24);
type = TTStem;
}
);
layerId = "63BE41E3-0F49-4E61-A903-F52A2E952C90";
shapes = (
{
closed = 1;
nodes = (
(886,-24,o),
(1064,170,o),
(1064,446,cs),
(1064,714,o),
(894,952,o),
(638,952,cs),
(486,952,o),
(380,856,o),
(310,704,c),
(314,938,o),
(342,1322,o),
(622,1322,cs),
(728,1322,o),
(794,1286,o),
(836,1236,c),
(952,1342,l),
(882,1410,o),
(782,1470,o),
(626,1470,cs),
(248,1470,o),
(138,1102,o),
(138,704,cs),
(138,306,o),
(232,-24,o),
(620,-24,cs)
);
},
{
closed = 1;
nodes = (
(440,124,o),
(336,256,o),
(336,438,cs),
(336,626,o),
(442,784,o),
(624,784,cs),
(806,784,o),
(888,624,o),
(888,442,cs),
(888,256,o),
(798,124,o),
(616,124,cs)
);
}
);
width = 1200;
},
{
associatedMasterId = "63BE41E3-0F49-4E61-A903-F52A2E952C90";
background = {
shapes = (
{
closed = 1;
nodes = (
(754,358,o),
(658,230,o),
(568,230,qs),
(536,230,o),
(472,252,o),
(420,304,o),
(388,392,o),
(388,458,qs),
(388,566,o),
(484,698,o),
(574,698,qs),
(638,698,o),
(708,638,o),
(744,560,o),
(754,482,o),
(754,464,q),
(754,464,l)
);
},
{
closed = 1;
nodes = (
(996,1044,l),
(992,1166,o),
(902,1316,o),
(776,1398,o),
(636,1426,o),
(576,1426,qs),
(426,1426,o),
(226,1300,o),
(108,1094,o),
(58,832,o),
(58,696,qs),
(58,528,o),
(118,288,o),
(170,196,qs),
(206,130,o),
(302,42,o),
(408,-8,o),
(518,-28,o),
(570,-28,qs),
(650,-28,o),
(816,22,o),
(956,142,o),
(1048,338,o),
(1048,482,qs),
(1048,584,o),
(994,752,o),
(892,872,o),
(750,936,o),
(660,936,qs),
(586,936,o),
(482,896,o),
(414,840,o),
(374,780,o),
(364,762,q),
(364,818,o),
(374,968,o),
(390,1032,qs),
(398,1060,o),
(426,1116,o),
(466,1162,o),
(520,1190,o),
(558,1190,qs),
(570,1190,o),
(612,1182,o),
(632,1166,qs),
(654,1150,o),
(686,1092,o),
(690,1044,q),
(690,1044,l)
);
}
);
};
layerId = "21E2753D-042D-4D19-89C8-430560CC5AF5";
name = "new Layer";
shapes = (
{
closed = 1;
nodes = (
(828,-28,o),
(1052,204,o),
(1052,480,cs),
(1052,748,o),
(892,936,o),
(660,936,cs),
(524,936,o),
(428,892,o),
(364,762,c),
(364,1014,o),
(406,1190,o),
(558,1190,cs),
(636,1190,o),
(690,1124,o),
(690,1044,c),
(996,1044,l),
(978,1248,o),
(820,1446,o),
(582,1446,cs),
(186,1446,o),
(58,1048,o),
(58,696,cs),
(58,344,o),
(184,-28,o),
(570,-28,cs)
);
},
{
closed = 1;
nodes = (
(458,230,o),
(388,336,o),
(388,460,cs),
(388,588,o),
(460,698,o),
(580,698,cs),
(700,698,o),
(756,586,o),
(756,462,cs),
(756,336,o),
(696,230,o),
(574,230,cs)
);
}
);
width = 1200;
},
{
hints = (
{
horizontal = 1;
options = 4;
origin = (0,24);
target = (1,11);
type = TTStem;
},
{
horizontal = 1;
options = 4;
origin = (1,5);
target = (0,5);
type = TTStem;
},
{
horizontal = 1;
options = 4;
origin = (0,11);
target = (0,18);
type = TTStem;
}
);
layerId = "F48F13AC-C425-4574-8B52-7DBCB7751002";
shapes = (
{
closed = 1;
nodes = (
(910,-20,o),
(1096,198,o),
(1096,485,cs),
(1096,739,o),
(951,940,o),
(689,940,cs),
(578,940,o),
(470,904,o),
(408,772,c),
(408,1027,o),
(458,1212,o),
(632,1212,cs),
(724,1212,o),
(817,1161,o),
(855,1107,c),
(1034,1258,l),
(960,1394,o),
(786,1470,o),
(625,1470,cs),
(250,1470,o),
(102,1058,o),
(102,688,cs),
(102,347,o),
(228,-20,o),
(613,-20,cs)
);
},
{
closed = 1;
nodes = (
(501,240,o),
(432,334,o),
(432,460,cs),
(432,588,o),
(504,700,o),
(624,700,cs),
(744,700,o),
(800,586,o),
(800,462,cs),
(800,334,o),
(740,240,o),
(621,240,cs)
);
}
);
width = 1200;
},
{
hints = (
{
horizontal = 1;
options = 4;
origin = (0,24);
target = (1,11);
type = TTStem;
},
{
horizontal = 1;
options = 4;
origin = (1,5);
target = (0,5);
type = TTStem;
},
{
horizontal = 1;
options = 4;
origin = (0,18);
target = (0,11);
type = TTStem;
},
{
options = 4;
origin = (0,21);
target = (1,2);
type = TTStem;
}
);
layerId = "4FB9B80E-81B5-47C9-A539-BB7C5ADDFB58";
shapes = (
{
closed = 1;
nodes = (
(861,-12,o),
(1051,174,o),
(1051,456,cs),
(1051,716,o),
(887,956,o),
(625,956,cs),
(479,956,o),
(371,874,o),
(301,726,c),
(317,954,o),
(361,1340,o),
(649,1340,cs),
(763,1340,o),
(841,1300,o),
(883,1246,c),
(993,1336,l),
(925,1402,o),
(827,1464,o),
(649,1464,cs),
(288,1464,o),
(149,1112,o),
(149,608,cs),
(149,256,o),
(235,-12,o),
(605,-12,cs)
);
},
{
closed = 1;
nodes = (
(417,114,o),
(315,252,o),
(315,438,cs),
(315,642,o),
(429,802,o),
(619,802,cs),
(805,802,o),
(895,648,o),
(895,462,cs),
(895,258,o),
(797,114,o),
(607,114,cs)
);
}
);
width = 1200;
},
{
hints = (
{
horizontal = 1;
options = 4;
origin = (0,24);
target = (1,11);
type = TTStem;
},
{
horizontal = 1;
options = 4;
origin = (1,5);
target = (0,5);
type = TTStem;
},
{
horizontal = 1;
options = 4;
origin = (0,18);
target = (0,11);
type = TTStem;
},
{
horizontal = 1;
origin = (1,5);
target = (0,5);
type = TTStem;
},
{
options = 4;
origin = (1,8);
target = (0,2);
type = TTStem;
},
{
horizontal = 1;
options = 4;
origin = (1,11);
target = (0,24);
type = TTStem;
}
);
layerId = "92EF81BF-A460-40B9-8F71-75F6CAA5A9CA";
shapes = (
{
closed = 1;
nodes = (
(894,-22,o),
(1080,186,o),
(1080,464,cs),
(1080,732,o),
(916,946,o),
(672,946,cs),
(528,946,o),
(426,880,o),
(360,738,c),
(362,984,o),
(400,1268,o),
(628,1268,cs),
(726,1268,o),
(808,1226,o),
(848,1174,c),
(994,1300,l),
(922,1402,o),
(784,1470,o),
(626,1470,cs),
(249,1470,o),
(120,1078,o),
(120,702,cs),
(120,324,o),
(230,-22,o),
(618,-22,cs)
);
},
{
closed = 1;
nodes = (
(472,182,o),
(384,296,o),
(384,450,cs),
(384,608,o),
(474,742,o),
(624,742,cs),
(776,742,o),
(844,606,o),
(844,452,cs),
(844,296,o),
(770,182,o),
(618,182,cs)
);
}
);
width = 1200;
}
);
note = six;
unicode = 54;
}
{
glyphname = seven;
layers = (
{
hints = (
{
horizontal = 1;
options = 4;
origin = (0,6);
type = TTSnap;
},
{
horizontal = 1;
options = 4;
origin = (0,4);
target = (0,3);
type = TTStem;
}
);
layerId = "63BE41E3-0F49-4E61-A903-F52A2E952C90";
shapes = (
{
closed = 1;
nodes = (
(468,0,l),
(1054,1288,l),
(1054,1450,l),
(178,1450,l),
(178,1286,l),
(860,1286,l),
(274,0,l)
);
}
);
width = 1200;
},
{
associatedMasterId = "63BE41E3-0F49-4E61-A903-F52A2E952C90";
background = {
shapes = (
{
closed = 1;
nodes = (
(56,1100,l),
(684,1100,l),
(174,0,l),
(570,0,l),
(1034,1102,l),
(1034,1382,l),
(56,1382,l),
(56,1382,l)
);
}
);
};
layerId = "21E2753D-042D-4D19-89C8-430560CC5AF5";
name = "new Layer";
shapes = (
{
closed = 1;
nodes = (
(534,0,l),
(1034,1102,l),
(1042,1428,l),
(46,1428,l),
(38,1110,l),
(700,1110,l),
(166,0,l)
);
}
);
width = 1200;
},
{
hints = (
{
horizontal = 1;
options = 4;
origin = (0,6);
stem = -1;
type = TTSnap;
},
{
horizontal = 1;
options = 4;
origin = (0,4);
target = (0,3);
type = TTStem;
}
);
layerId = "F48F13AC-C425-4574-8B52-7DBCB7751002";
shapes = (
{
closed = 1;
nodes = (
(588,0,l),
(1096,1190,l),
(1096,1450,l),
(96,1450,l),
(96,1194,l),
(782,1194,l),
(268,0,l)
);
}
);
width = 1200;
},
{
hints = (
{
horizontal = 1;
options = 4;
origin = (0,6);
stem = -1;
type = TTSnap;
},
{
horizontal = 1;
options = 4;
origin = (0,4);
target = (0,3);
type = TTStem;
}
);
layerId = "4FB9B80E-81B5-47C9-A539-BB7C5ADDFB58";
shapes = (
{
closed = 1;
nodes = (
(428,0,l),
(1028,1310,l),
(1028,1450,l),
(172,1450,l),
(172,1312,l),
(862,1312,l),
(268,0,l)
);
}
);
width = 1200;
},
{
hints = (
{
horizontal = 1;
options = 4;
origin = (0,6);
type = TTSnap;
},
{
horizontal = 1;
options = 4;
origin = (0,4);
target = (0,3);
type = TTStem;
}
);
layerId = "92EF81BF-A460-40B9-8F71-75F6CAA5A9CA";
shapes = (
{
closed = 1;
nodes = (
(528,0,l),
(1076,1240,l),
(1076,1450,l),
(138,1450,l),
(138,1240,l),
(838,1240,l),
(288,0,l)
);
}
);
width = 1200;
}
);
note = seven;
unicode = 55;
}
{
glyphname = eight;
layers = (
{
hints = (
{
horizontal = 1;
options = 4;
origin = (0,25);
target = (1,11);
type = TTStem;
},
{
horizontal = 1;
options = 4;
origin = (1,5);
target = (2,11);
type = TTStem;
},
{
horizontal = 1;
options = 4;
origin = (2,5);
target = (0,12);
type = TTStem;
},
{
horizontal = 1;
origin = (1,5);
target = (2,11);
type = TTStem;
},
{
horizontal = 1;
origin = (0,25);
target = (1,11);
type = TTStem;
},
{
options = 4;
origin = (0,22);
target = (1,2);
type = TTStem;
},
{
options = 4;
origin = (1,8);
target = (0,2);
type = TTStem;
},
{
options = 4;
origin = (0,15);
target = (2,2);
type = TTStem;
},
{
options = 4;
origin = (2,8);
target = (0,9);
type = TTStem;
}
);
layerId = "63BE41E3-0F49-4E61-A903-F52A2E952C90";
shapes = (
{
closed = 1;
nodes = (
(840,-14,o),
(1076,102,o),
(1076,414,cs),
(1076,624,o),
(914,758,o),
(736,798,c),
(736,736,l),
(902,770,o),
(1016,906,o),
(1016,1106,cs),
(1016,1358,o),
(814,1470,o),
(602,1470,cs),
(404,1470,o),
(190,1352,o),
(190,1092,cs),
(190,884,o),
(304,776,o),
(464,728,c),
(464,792,l),
(284,766,o),
(126,624,o),
(126,396,cs),
(126,102,o),
(362,-14,o),
(602,-14,cs)
);
},
{
closed = 1;
nodes = (
(440,130,o),
(302,226,o),
(302,410,cs),
(302,596,o),
(440,692,o),
(602,692,cs),
(760,692,o),
(900,606,o),
(900,414,cs),
(900,226,o),
(756,130,o),
(602,130,cs)
);
},
{
closed = 1;
nodes = (
(438,866,o),
(350,950,o),
(350,1086,cs),
(350,1240,o),
(442,1334,o),
(602,1334,cs),
(766,1334,o),
(856,1240,o),
(856,1090,cs),
(856,952,o),
(760,866,o),
(602,866,cs)
);
}
);
width = 1200;
},
{
associatedMasterId = "63BE41E3-0F49-4E61-A903-F52A2E952C90";
background = {
shapes = (
{
closed = 1;
nodes = (
(490,222,o),
(416,262,o),
(376,322,o),
(360,390,o),
(360,416,qs),
(360,448,o),
(378,518,o),
(422,576,o),
(494,612,o),
(546,612,qs),
(650,612,o),
(744,492,o),
(744,414,qs),
(744,384,o),
(726,316,o),
(682,258,o),
(606,222,o),
(550,222,q),
(550,222,l)
);
},
{
closed = 1;
nodes = (
(466,852,o),
(394,954,o),
(394,1024,qs),
(394,1110,o),
(488,1192,o),
(550,1192,qs),
(596,1192,o),
(656,1158,o),
(692,1106,o),
(708,1046,o),
(708,1022,qs),
(708,1010,o),
(700,952,o),
(670,896,o),
(606,852,o),
(552,852,q),
(552,852,l)
);
},
{
closed = 1;
nodes = (
(360,730,l),
(200,698,o),
(56,504,o),
(56,376,qs),
(56,300,o),
(106,156,o),
(226,42,o),
(420,-28,o),
(564,-28,qs),
(690,-28,o),
(872,36,o),
(988,148,o),
(1042,298,o),
(1042,386,qs),
(1042,526,o),
(892,706,o),
(750,724,q),
(750,734,l),
(824,750,o),
(920,822,o),
(978,914,o),
(1000,1014,o),
(1000,1058,qs),
(1000,1166,o),
(950,1246,qs),
(916,1300,o),
(830,1368,o),
(728,1408,o),
(616,1424,o),
(558,1424,qs),
(480,1424,o),
(370,1404,o),
(290,1374,o),
(234,1338,o),
(216,1322,qs),
(174,1288,o),
(102,1154,o),
(102,1052,qs),
(102,980,o),
(142,868,o),
(212,788,o),
(306,742,o),
(360,736,q),
(360,736,l)
);
}
);
};
layerId = "21E2753D-042D-4D19-89C8-430560CC5AF5";
name = "new Layer";
shapes = (
{
closed = 1;
nodes = (
(784,-6,o),
(1052,128,o),
(1052,408,cs),
(1052,634,o),
(856,724,o),
(780,766,c),
(780,740,l),
(844,770,o),
(1000,838,o),
(1000,1056,cs),
(1000,1308,o),
(768,1428,o),
(558,1428,cs),
(354,1428,o),
(102,1316,o),
(102,1056,cs),
(102,846,o),
(266,776,o),
(324,732,c),
(324,760,l),
(246,732,o),
(54,612,o),
(54,390,cs),
(54,106,o),
(322,-6,o),
(556,-6,cs)
);
},
{
closed = 1;
nodes = (
(452,222,o),
(366,292,o),
(366,418,cs),
(366,546,o),
(454,610,o),
(552,610,cs),
(650,610,o),
(742,552,o),
(742,420,cs),
(742,292,o),
(648,222,o),
(550,222,cs)
);
},
{
closed = 1;
nodes = (
(466,852,o),
(394,902,o),
(394,1018,cs),
(394,1144,o),
(466,1192,o),
(550,1192,cs),
(632,1192,o),
(708,1144,o),
(708,1022,cs),
(708,902,o),
(634,852,o),
(550,852,cs)
);
}
);
width = 1200;
},
{
hints = (
{
horizontal = 1;
options = 4;
origin = (0,25);
target = (1,11);
type = TTStem;
},
{
horizontal = 1;
options = 4;
origin = (1,5);
target = (2,11);
type = TTStem;
},
{
horizontal = 1;
options = 4;
origin = (2,5);
target = (0,12);
type = TTStem;
}
);
layerId = "F48F13AC-C425-4574-8B52-7DBCB7751002";
shapes = (
{
closed = 1;
nodes = (
(836,-20,o),
(1108,112,o),
(1108,416,cs),
(1108,644,o),
(910,746,o),
(832,786,c),
(832,754,l),
(898,788,o),
(1036,884,o),
(1036,1092,cs),
(1036,1356,o),
(810,1470,o),
(608,1470,cs),
(412,1470,o),
(168,1356,o),
(168,1092,cs),
(168,884,o),
(312,796,o),
(372,754,c),
(372,786,l),
(292,754,o),
(98,644,o),
(98,416,cs),
(98,112,o),
(370,-20,o),
(606,-20,cs)
);
},
{
closed = 1;
nodes = (
(494,220,o),
(404,296,o),
(404,416,cs),
(404,564,o),
(496,626,o),
(602,626,cs),
(708,626,o),
(806,564,o),
(806,416,cs),
(806,296,o),
(706,220,o),
(600,220,cs)
);
},
{
closed = 1;
nodes = (
(518,920,o),
(450,966,o),
(450,1092,cs),
(450,1210,o),
(518,1256,o),
(600,1256,cs),
(678,1256,o),
(752,1210,o),
(752,1092,cs),
(752,966,o),
(680,920,o),
(600,920,cs)
);
}
);
width = 1200;
},
{
hints = (
{
horizontal = 1;
options = 4;
origin = (0,25);
target = (1,11);
type = TTStem;
},
{
horizontal = 1;
options = 4;
origin = (1,5);
target = (2,11);
type = TTStem;
},
{
horizontal = 1;
options = 4;
origin = (2,5);
target = (0,12);
type = TTStem;
}
);
layerId = "4FB9B80E-81B5-47C9-A539-BB7C5ADDFB58";
shapes = (
{
closed = 1;
nodes = (
(840,-16,o),
(1070,98,o),
(1070,412,cs),
(1070,618,o),
(914,758,o),
(720,798,c),
(720,730,l),
(902,764,o),
(1012,910,o),
(1012,1108,cs),
(1012,1358,o),
(814,1470,o),
(602,1470,cs),
(402,1470,o),
(194,1350,o),
(194,1088,cs),
(194,880,o),
(302,770,o),
(480,722,c),
(480,792,l),
(282,766,o),
(130,622,o),
(130,394,cs),
(130,98,o),
(360,-16,o),
(602,-16,cs)
);
},
{
closed = 1;
nodes = (
(432,112,o),
(286,214,o),
(286,406,cs),
(286,600,o),
(430,702,o),
(602,702,cs),
(768,702,o),
(916,610,o),
(916,410,cs),
(916,214,o),
(764,112,o),
(602,112,cs)
);
},
{
closed = 1;
nodes = (
(424,856,o),
(334,946,o),
(334,1084,cs),
(334,1244,o),
(430,1346,o),
(602,1346,cs),
(780,1346,o),
(874,1244,o),
(874,1088,cs),
(874,946,o),
(774,856,o),
(602,856,cs)
);
}
);
width = 1200;
},
{
hints = (
{
horizontal = 1;
options = 4;
origin = (0,25);
target = (1,11);
type = TTStem;
},
{
horizontal = 1;
options = 4;
origin = (1,5);
target = (2,11);
type = TTStem;
},
{
horizontal = 1;
options = 4;
origin = (2,5);
target = (0,12);
type = TTStem;
},
{
horizontal = 1;
origin = (1,5);
target = (2,11);
type = TTStem;
},
{
horizontal = 1;
origin = (0,25);
target = (1,11);
type = TTStem;
},
{
options = 4;
origin = (0,22);
target = (1,2);
type = TTStem;
},
{
options = 4;
origin = (1,8);
target = (0,2);
type = TTStem;
},
{
options = 4;
origin = (0,15);
target = (2,2);
type = TTStem;
},
{
options = 4;
origin = (2,8);
target = (0,9);
type = TTStem;
}
);
layerId = "92EF81BF-A460-40B9-8F71-75F6CAA5A9CA";
shapes = (
{
closed = 1;
nodes = (
(838,-16,o),
(1092,108,o),
(1092,416,cs),
(1092,634,o),
(912,752,o),
(784,794,c),
(784,746,l),
(900,780,o),
(1026,896,o),
(1026,1100,cs),
(1026,1356,o),
(812,1470,o),
(606,1470,cs),
(408,1470,o),
(180,1352,o),
(180,1092,cs),
(180,884,o),
(308,786,o),
(418,742,c),
(418,790,l),
(288,760,o),
(112,634,o),
(112,406,cs),
(112,108,o),
(366,-16,o),
(604,-16,cs)
);
},
{
closed = 1;
nodes = (
(468,174,o),
(354,262,o),
(354,414,cs),
(354,582,o),
(468,660,o),
(602,660,cs),
(734,660,o),
(854,586,o),
(854,416,cs),
(854,262,o),
(732,174,o),
(602,174,cs)
);
},
{
closed = 1;
nodes = (
(478,892,o),
(400,958,o),
(400,1090,cs),
(400,1226,o),
(480,1296,o),
(602,1296,cs),
(722,1296,o),
(804,1226,o),
(804,1092,cs),
(804,958,o),
(720,892,o),
(602,892,cs)
);
}
);
width = 1200;
}
);
note = eight;
unicode = 56;
}
{
glyphname = nine;
layers = (
{
hints = (
{
horizontal = 1;
options = 4;
origin = (0,24);
target = (0,17);
type = TTStem;
},
{
horizontal = 1;
options = 4;
origin = (0,11);
target = (1,11);
type = TTStem;
},
{
horizontal = 1;
options = 4;
origin = (1,5);
target = (0,5);
type = TTStem;
},
{
horizontal = 1;
origin = (0,11);
target = (1,11);
type = TTStem;
},
{
horizontal = 1;
origin = (0,24);
target = (0,17);
type = TTStem;
},
{
options = 4;
origin = (0,8);
target = (1,2);
type = TTStem;
}
);
layerId = "63BE41E3-0F49-4E61-A903-F52A2E952C90";
shapes = (
{
closed = 1;
nodes = (
(996,-18,o),
(1066,406,o),
(1066,790,cs),
(1066,1176,o),
(984,1470,o),
(598,1470,cs),
(336,1470,o),
(132,1290,o),
(132,1018,cs),
(132,754,o),
(310,556,o),
(556,556,cs),
(706,556,o),
(832,626,o),
(902,764,c),
(896,532,o),
(888,126,o),
(576,126,cs),
(436,126,o),
(348,182,o),
(304,318,c),
(160,264,l),
(192,84,o),
(362,-18,o),
(576,-18,cs)
);
},
{
closed = 1;
nodes = (
(406,694,o),
(308,834,o),
(308,1012,cs),
(308,1198,o),
(420,1328,o),
(594,1328,cs),
(764,1328,o),
(874,1198,o),
(874,1016,cs),
(874,828,o),
(772,694,o),
(582,694,cs)
);
}
);
width = 1200;
},
{
associatedMasterId = "63BE41E3-0F49-4E61-A903-F52A2E952C90";
background = {
shapes = (
{
closed = 1;
nodes = (
(526,738,o),
(452,778,o),
(406,840,o),
(386,918,o),
(386,958,qs),
(386,1048,o),
(482,1174,o),
(586,1174,qs),
(644,1174,o),
(722,1132,o),
(766,1066,o),
(786,988,o),
(786,954,qs),
(786,860,o),
(686,738,o),
(582,738,q),
(582,738,l)
);
},
{
closed = 1;
nodes = (
(62,356,l),
(62,334,o),
(70,278,o),
(84,218,o),
(116,154,o),
(140,124,qs),
(218,32,o),
(440,-32,o),
(562,-32,qs),
(624,-32,o),
(744,-16,o),
(856,28,o),
(964,104,o),
(1008,166,qs),
(1050,224,o),
(1106,356,o),
(1138,494,o),
(1148,630,o),
(1148,690,qs),
(1148,798,o),
(1116,1010,o),
(1078,1110,qs),
(1062,1154,o),
(998,1264,o),
(886,1362,o),
(714,1428,o),
(588,1428,qs),
(466,1428,o),
(270,1356,o),
(128,1228,o),
(52,1052,o),
(52,946,qs),
(52,850,o),
(114,688,o),
(168,626,qs),
(218,568,o),
(366,500,o),
(496,500,qs),
(554,500,o),
(644,522,o),
(716,562,o),
(772,612,o),
(796,642,q),
(794,548,o),
(780,394,o),
(732,280,o),
(646,218,o),
(572,218,qs),
(494,218,o),
(404,298,o),
(402,356,q),
(402,356,l)
);
}
);
};
layerId = "21E2753D-042D-4D19-89C8-430560CC5AF5";
name = "new Layer";
shapes = (
{
closed = 1;
nodes = (
(966,-32,o),
(1148,212,o),
(1148,798,cs),
(1148,1170,o),
(964,1426,o),
(548,1426,cs),
(292,1426,o),
(52,1208,o),
(52,946,cs),
(52,690,o),
(206,500,o),
(496,500,cs),
(642,500,o),
(728,540,o),
(796,642,c),
(796,238,o),
(668,218,o),
(572,218,cs),
(490,218,o),
(374,234,o),
(336,372,c),
(78,246,l),
(146,70,o),
(292,-32,o),
(556,-32,cs)
);
},
{
closed = 1;
nodes = (
(456,738,o),
(386,834,o),
(386,958,cs),
(386,1084,o),
(466,1178,o),
(590,1178,cs),
(710,1178,o),
(786,1078,o),
(786,954,cs),
(786,824,o),
(716,738,o),
(582,738,cs)
);
}
);
width = 1200;
},
{
hints = (
{
horizontal = 1;
options = 4;
origin = (0,24);
target = (0,17);
type = TTStem;
},
{
horizontal = 1;
options = 4;
origin = (0,11);
target = (1,11);
type = TTStem;
},
{
horizontal = 1;
options = 4;
origin = (1,5);
target = (0,5);
type = TTStem;
}
);
layerId = "F48F13AC-C425-4574-8B52-7DBCB7751002";
shapes = (
{
closed = 1;
nodes = (
(960,-20,o),
(1128,234,o),
(1128,830,cs),
(1128,1222,o),
(966,1470,o),
(568,1470,cs),
(324,1470,o),
(80,1268,o),
(80,988,cs),
(80,728,o),
(228,526,o),
(504,526,cs),
(644,526,o),
(732,568,o),
(798,672,c),
(798,446,o),
(788,228,o),
(584,228,cs),
(496,228,o),
(400,268,o),
(352,396,c),
(106,268,l),
(170,90,o),
(308,-20,o),
(574,-20,cs)
);
},
{
closed = 1;
nodes = (
(466,768,o),
(400,866,o),
(400,992,cs),
(400,1120,o),
(476,1216,o),
(594,1216,cs),
(710,1216,o),
(782,1114,o),
(782,988,cs),
(782,856,o),
(714,768,o),
(586,768,cs)
);
}
);
width = 1200;
},
{
hints = (
{
horizontal = 1;
options = 4;
origin = (0,24);
target = (0,17);
type = TTStem;
},
{
horizontal = 1;
options = 4;
origin = (0,11);
target = (1,11);
type = TTStem;
},
{
horizontal = 1;
options = 4;
origin = (1,5);
target = (0,5);
type = TTStem;
}
);
layerId = "4FB9B80E-81B5-47C9-A539-BB7C5ADDFB58";
shapes = (
{
closed = 1;
nodes = (
(1004,-20,o),
(1058,430,o),
(1058,782,cs),
(1058,1168,o),
(992,1470,o),
(608,1470,cs),
(342,1470,o),
(142,1284,o),
(142,1016,cs),
(142,746,o),
(326,558,o),
(566,558,cs),
(718,558,o),
(850,634,o),
(922,774,c),
(914,576,o),
(926,108,o),
(576,108,cs),
(426,108,o),
(342,164,o),
(298,302,c),
(172,262,l),
(198,80,o),
(374,-20,o),
(578,-20,cs)
);
},
{
closed = 1;
nodes = (
(398,682,o),
(294,828,o),
(294,1016,cs),
(294,1210,o),
(412,1348,o),
(596,1348,cs),
(776,1348,o),
(892,1210,o),
(892,1020,cs),
(892,824,o),
(784,682,o),
(584,682,cs)
);
}
);
width = 1200;
},
{
hints = (
{
horizontal = 1;
options = 4;
origin = (0,24);
target = (0,17);
type = TTStem;
},
{
horizontal = 1;
options = 4;
origin = (0,11);
target = (1,11);
type = TTStem;
},
{
horizontal = 1;
options = 4;
origin = (1,5);
target = (0,5);
type = TTStem;
},
{
horizontal = 1;
origin = (0,11);
target = (1,11);
type = TTStem;
},
{
horizontal = 1;
origin = (0,24);
target = (0,17);
type = TTStem;
},
{
options = 4;
origin = (0,8);
target = (1,2);
type = TTStem;
}
);
layerId = "92EF81BF-A460-40B9-8F71-75F6CAA5A9CA";
shapes = (
{
closed = 1;
nodes = (
(978,-16,o),
(1098,326,o),
(1098,816,cs),
(1098,1202,o),
(968,1470,o),
(576,1470,cs),
(324,1470,o),
(106,1274,o),
(106,1000,cs),
(106,738,o),
(270,546,o),
(530,546,cs),
(676,546,o),
(782,602,o),
(850,722,c),
(848,496,o),
(830,180,o),
(580,180,cs),
(466,180,o),
(374,232,o),
(328,362,c),
(134,274,l),
(182,94,o),
(336,-16,o),
(576,-16,cs)
);
},
{
closed = 1;
nodes = (
(436,736,o),
(354,856,o),
(354,1006,cs),
(354,1164,o),
(448,1276,o),
(594,1276,cs),
(738,1276,o),
(828,1160,o),
(828,1006,cs),
(828,848,o),
(744,736,o),
(584,736,cs)
);
}
);
width = 1200;
}
);
note = nine;
unicode = 57;
}
{
glyphname = semicolon;
layers = (
{
hints = (
{
horizontal = 1;
options = 4;
origin = (0,2);
target = (0,30);
type = TTStem;
},
{
horizontal = 1;
origin = (0,20);
target = (0,14);
type = TTStem;
},
{
horizontal = 1;
origin = (0,29);
type = TTSnap;
}
);
layerId = "63BE41E3-0F49-4E61-A903-F52A2E952C90";
shapes = (
{
closed = 1;
nodes = (
(436,-308,o),
(478,-302,o),
(500,-296,cs),
(522,-290,o),
(622,-254,o),
(676,-204,cs),
(730,-154,o),
(764,-88,o),
(782,-2,cs),
(802,96,o),
(806,186,o),
(806,294,cs),
(806,440,o),
(740,498,o),
(610,498,cs),
(480,498,o),
(416,442,o),
(416,298,cs),
(416,200,o),
(440,118,o),
(534,88,cs),
(586,72,o),
(606,44,o),
(606,-20,cs),
(606,-82,o),
(580,-114,o),
(530,-156,cs),
(484,-194,o),
(452,-210,o),
(402,-226,c),
(402,-308,l)
);
},
{
pos = (-8,790);
ref = period;
}
);
width = 1200;
},
{
hints = (
{
horizontal = 1;
options = 4;
place = (-116, 54);
type = TTStem;
},
{
horizontal = 1;
options = 4;
place = (166, 173);
type = TTStem;
}
);
layerId = "F48F13AC-C425-4574-8B52-7DBCB7751002";
shapes = (
{
closed = 1;
nodes = (
(416,-352,o),
(448,-352,o),
(486,-344,cs),
(524,-338,o),
(632,-296,o),
(690,-242,cs),
(748,-186,o),
(798,-104,o),
(814,-12,cs),
(830,76,o),
(836,170,o),
(836,272,cs),
(836,440,o),
(758,518,o),
(606,518,cs),
(452,518,o),
(374,444,o),
(374,278,cs),
(374,154,o),
(432,82,o),
(550,40,cs),
(582,28,o),
(598,8,o),
(598,-24,cs),
(598,-72,o),
(578,-120,o),
(518,-164,cs),
(458,-208,o),
(412,-230,o),
(352,-244,c),
(352,-352,l)
);
},
{
pos = (0,756);
ref = period;
}
);
width = 1200;
},
{
hints = (
{
horizontal = 1;
options = 4;
place = (-157, 40);
type = TTStem;
},
{
horizontal = 1;
options = 4;
origin = (0,2);
target = (0,30);
type = TTStem;
}
);
layerId = "4FB9B80E-81B5-47C9-A539-BB7C5ADDFB58";
shapes = (
{
closed = 1;
nodes = (
(434,-300,o),
(478,-294,o),
(496,-288,cs),
(516,-282,o),
(614,-248,o),
(668,-198,cs),
(722,-148,o),
(752,-86,o),
(770,0,cs),
(792,100,o),
(796,188,o),
(796,298,cs),
(796,440,o),
(732,494,o),
(604,494,cs),
(478,494,o),
(418,442,o),
(418,302,cs),
(418,208,o),
(436,124,o),
(526,96,cs),
(580,80,o),
(592,50,o),
(592,-20,cs),
(592,-84,o),
(564,-124,o),
(516,-164,cs),
(472,-202,o),
(452,-212,o),
(404,-230,c),
(404,-300,l)
);
},
{
alignment = -1;
pos = (-16,796);
ref = period;
}
);
width = 1200;
},
{
hints = (
{
horizontal = 1;
options = 4;
origin = (0,2);
target = (0,30);
type = TTStem;
},
{
horizontal = 1;
origin = (0,20);
target = (0,14);
type = TTStem;
},
{
horizontal = 1;
origin = (0,29);
type = TTSnap;
}
);
layerId = "92EF81BF-A460-40B9-8F71-75F6CAA5A9CA";
shapes = (
{
closed = 1;
nodes = (
(426,-330,o),
(464,-328,o),
(494,-320,cs),
(524,-314,o),
(628,-276,o),
(684,-224,cs),
(740,-170,o),
(782,-96,o),
(798,-8,cs),
(816,86,o),
(822,178,o),
(822,284,cs),
(822,440,o),
(750,508,o),
(608,508,cs),
(466,508,o),
(396,444,o),
(396,288,cs),
(396,178,o),
(436,100,o),
(542,64,cs),
(584,50,o),
(602,26,o),
(602,-22,cs),
(602,-78,o),
(580,-118,o),
(524,-160,cs),
(472,-202,o),
(432,-220,o),
(378,-236,c),
(378,-330,l)
);
},
{
alignment = -1;
pos = (-4,774);
ref = period;
}
);
width = 1200;
}
);
note = semicolon;
unicode = 59;
}
{
glyphname = less;
layers = (
{
guides = (
{
locked = 1;
name = "subscript cap top";
pos = (-20,400);
},
{
locked = 1;
name = "subscript lc  top";
pos = (-20,280);
},
{
locked = 1;
name = "subscript bottom";
pos = (-20,-79);
},
{
locked = 1;
name = "superscript bottom + ";
pos = (-50,384);
},
{
locked = 1;
name = "top lower fraction";
pos = (-100,342);
},
{
locked = 1;
name = "superscript lc top";
pos = (-50,766);
},
{
locked = 1;
name = "superscript cap top";
pos = (-50,863);
},
{
locked = 1;
name = "midpoint lowercase";
pos = (-10,275);
}
);
hints = (
{
horizontal = 1;
origin = (0,2);
target = (0,3);
type = TTStem;
},
{
horizontal = 1;
origin = (0,6);
target = (0,0);
type = TTStem;
},
{
horizontal = 1;
origin = (0,5);
target = (0,4);
type = TTStem;
}
);
layerId = "63BE41E3-0F49-4E61-A903-F52A2E952C90";
shapes = (
{
closed = 1;
nodes = (
(1014,269,l),
(362,550,l),
(1014,831,l),
(1014,1039,l),
(130,659,l),
(130,441,l),
(1014,61,l)
);
}
);
width = 1200;
},
{
hints = (
{
horizontal = 1;
options = 4;
origin = (0,3);
stem = -1;
type = TTSnap;
}
);
layerId = "F48F13AC-C425-4574-8B52-7DBCB7751002";
shapes = (
{
closed = 1;
nodes = (
(1076,308,l),
(469,550,l),
(1076,792,l),
(1076,1056,l),
(132,644,l),
(132,468,l),
(1076,44,l)
);
}
);
width = 1200;
},
{
layerId = "4FB9B80E-81B5-47C9-A539-BB7C5ADDFB58";
shapes = (
{
closed = 1;
nodes = (
(1037,253,l),
(374,541,l),
(1037,829,l),
(1037,1042,l),
(163,666,l),
(163,436,l),
(1037,60,l)
);
}
);
width = 1200;
},
{
hints = (
{
horizontal = 1;
origin = (0,2);
target = (0,3);
type = TTStem;
},
{
horizontal = 1;
origin = (0,6);
target = (0,0);
type = TTStem;
},
{
horizontal = 1;
origin = (0,5);
target = (0,4);
type = TTStem;
}
);
layerId = "92EF81BF-A460-40B9-8F71-75F6CAA5A9CA";
shapes = (
{
closed = 1;
nodes = (
(1046,293,l),
(424,550,l),
(1046,809,l),
(1046,1051,l),
(132,655,l),
(132,452,l),
(1046,50,l)
);
}
);
width = 1200;
}
);
note = less;
unicode = 60;
}
{
glyphname = equal;
layers = (
{
hints = (
{
options = 4;
origin = (0,2);
target = (0,1);
type = TTStem;
}
);
layerId = "63BE41E3-0F49-4E61-A903-F52A2E952C90";
shapes = (
{
closed = 1;
nodes = (
(1060,658,l),
(1060,848,l),
(142,848,l),
(142,658,l)
);
},
{
closed = 1;
nodes = (
(1060,256,l),
(1060,446,l),
(142,446,l),
(142,256,l)
);
}
);
width = 1200;
},
{
layerId = "F48F13AC-C425-4574-8B52-7DBCB7751002";
shapes = (
{
closed = 1;
nodes = (
(1100,688,l),
(1100,938,l),
(106,938,l),
(106,688,l)
);
},
{
closed = 1;
nodes = (
(1100,162,l),
(1100,412,l),
(106,412,l),
(106,162,l)
);
}
);
width = 1200;
},
{
hints = (
{
horizontal = 1;
options = 4;
origin = (1,3);
target = (1,2);
type = TTStem;
},
{
horizontal = 1;
options = 4;
origin = (0,3);
target = (0,2);
type = TTStem;
}
);
layerId = "4FB9B80E-81B5-47C9-A539-BB7C5ADDFB58";
shapes = (
{
closed = 1;
nodes = (
(1053,658,l),
(1053,838,l),
(147,838,l),
(147,658,l)
);
},
{
closed = 1;
nodes = (
(1053,264,l),
(1053,446,l),
(147,446,l),
(147,264,l)
);
}
);
width = 1200;
},
{
hints = (
{
options = 4;
origin = (0,2);
target = (0,1);
type = TTStem;
}
);
layerId = "92EF81BF-A460-40B9-8F71-75F6CAA5A9CA";
shapes = (
{
closed = 1;
nodes = (
(1080,674,l),
(1080,894,l),
(124,894,l),
(124,674,l)
);
},
{
closed = 1;
nodes = (
(1080,210,l),
(1080,430,l),
(124,430,l),
(124,210,l)
);
}
);
width = 1200;
}
);
note = equal;
unicode = 61;
}
{
glyphname = question;
layers = (
{
hints = (
{
horizontal = 1;
options = 4;
origin = (0,10);
target = (0,17);
type = TTStem;
},
{
horizontal = 1;
options = 4;
origin = (1,11);
target = (1,5);
type = TTStem;
},
{
options = 4;
origin = (0,27);
target = (0,0);
type = TTStem;
},
{
options = 4;
origin = (0,13);
target = (0,14);
type = TTStem;
},
{
options = 4;
origin = (1,8);
target = (1,2);
type = TTStem;
},
{
horizontal = 1;
options = 1;
origin = (0,27);
type = TTSnap;
},
{
options = 4;
origin = (1,8);
target = (1,2);
type = TTStem;
}
);
layerId = "63BE41E3-0F49-4E61-A903-F52A2E952C90";
shapes = (
{
closed = 1;
nodes = (
(700,398,l),
(700,534,ls),
(700,604,o),
(724,626,o),
(782,676,c),
(924,828,o),
(1066,932,o),
(1066,1152,cs),
(1066,1382,o),
(910,1518,o),
(595,1518,cs),
(513,1518,o),
(188,1508,o),
(188,1112,c),
(380,1112,l),
(375,1273,o),
(484,1334,o),
(616,1334,cs),
(760,1334,o),
(860,1262,o),
(860,1128,cs),
(860,924,o),
(627,837,o),
(539,687,cs),
(510,638,o),
(510,605,o),
(510,534,cs),
(510,398,l)
);
},
{
closed = 1;
nodes = (
(706,-2,o),
(748,40,o),
(748,144,cs),
(748,248,o),
(706,290,o),
(602,290,cs),
(498,290,o),
(456,248,o),
(456,144,cs),
(456,40,o),
(498,-2,o),
(602,-2,cs)
);
}
);
width = 1200;
},
{
hints = (
{
horizontal = 1;
options = 4;
place = (30, 148);
type = TTStem;
},
{
horizontal = 1;
options = 4;
place = (1344, 106);
type = TTStem;
}
);
layerId = "F48F13AC-C425-4574-8B52-7DBCB7751002";
shapes = (
{
closed = 1;
nodes = (
(720,398,l),
(720,511,ls),
(720,580,o),
(784,679,o),
(852,744,cs),
(932,820,o),
(1066,944,o),
(1066,1138,cs),
(1066,1391,o),
(865,1518,o),
(602,1518,cs),
(340,1518,o),
(156,1337,o),
(156,1070,c),
(418,1070,l),
(418,1191,o),
(476,1276,o),
(600,1276,cs),
(724,1276,o),
(784,1191,o),
(784,1091,cs),
(784,961,o),
(681,929,o),
(584,811,cs),
(496,703,o),
(465,583,o),
(465,516,cs),
(465,398,l)
);
},
{
closed = 1;
nodes = (
(718,-5,o),
(772,49,o),
(772,169,cs),
(772,287,o),
(718,343,o),
(600,343,cs),
(482,343,o),
(428,287,o),
(428,169,cs),
(428,49,o),
(482,-5,o),
(600,-5,cs)
);
}
);
width = 1200;
},
{
hints = (
{
horizontal = 1;
options = 4;
place = (39, 212.167);
type = TTStem;
},
{
horizontal = 1;
options = 4;
origin = (0,10);
target = (0,17);
type = TTStem;
},
{
horizontal = 1;
options = 4;
origin = (1,11);
target = (1,5);
type = TTStem;
}
);
layerId = "4FB9B80E-81B5-47C9-A539-BB7C5ADDFB58";
shapes = (
{
closed = 1;
nodes = (
(658,396,l),
(658,519,ls),
(658,611,o),
(692,649,o),
(734,687,cs),
(877,839,o),
(1020,887,o),
(1020,1137,cs),
(1020,1386,o),
(849,1518,o),
(593,1518,cs),
(416,1518,o),
(172,1466,o),
(172,1139,c),
(338,1139,l),
(338,1271,o),
(447,1365,o),
(591,1365,cs),
(731,1365,o),
(856,1261,o),
(856,1146,cs),
(856,973,o),
(670,872,o),
(588,786,cs),
(506,700,o),
(494,624,o),
(494,544,cs),
(494,396,l)
);
},
{
closed = 1;
nodes = (
(686,0,o),
(722,36,o),
(722,134,cs),
(722,232,o),
(686,268,o),
(588,268,cs),
(490,268,o),
(454,232,o),
(454,134,cs),
(454,36,o),
(490,0,o),
(588,0,cs)
);
}
);
width = 1200;
},
{
hints = (
{
horizontal = 1;
options = 4;
origin = (0,10);
target = (0,17);
type = TTStem;
},
{
horizontal = 1;
options = 4;
origin = (1,11);
target = (1,5);
type = TTStem;
},
{
options = 4;
origin = (0,27);
target = (0,0);
type = TTStem;
},
{
options = 4;
origin = (0,13);
target = (0,14);
type = TTStem;
},
{
options = 4;
origin = (1,8);
target = (1,2);
type = TTStem;
},
{
horizontal = 1;
options = 1;
origin = (0,27);
type = TTSnap;
},
{
options = 4;
origin = (1,8);
target = (1,2);
type = TTStem;
}
);
layerId = "92EF81BF-A460-40B9-8F71-75F6CAA5A9CA";
shapes = (
{
closed = 1;
nodes = (
(704,399,l),
(704,496,ls),
(704,568,o),
(744,618,o),
(810,684,c),
(908,788,o),
(1060,896,o),
(1060,1106,cs),
(1060,1344,o),
(866,1518,o),
(612,1518,cs),
(424,1518,o),
(164,1422,o),
(166,1078,c),
(392,1078,l),
(390,1233,o),
(483,1300,o),
(602,1300,cs),
(733,1300,o),
(816,1220,o),
(816,1097,cs),
(816,924,o),
(651,867,o),
(553,723,cs),
(497,641,o),
(484,564,o),
(484,498,cs),
(484,399,l)
);
},
{
closed = 1;
nodes = (
(712,-4,o),
(760,46,o),
(760,157,cs),
(760,268,o),
(712,318,o),
(601,318,cs),
(490,318,o),
(442,268,o),
(442,157,cs),
(442,46,o),
(490,-4,o),
(601,-4,cs)
);
}
);
width = 1200;
}
);
note = question;
unicode = 63;
}
{
glyphname = at;
layers = (
{
guides = (
{
pos = (384,359);
}
);
hints = (
{
horizontal = 1;
options = 4;
origin = (0,39);
target = (0,2);
type = TTStem;
},
{
horizontal = 1;
options = 4;
origin = (0,21);
target = (1,12);
type = TTStem;
},
{
horizontal = 1;
options = 4;
origin = (0,15);
target = (1,5);
type = TTStem;
},
{
horizontal = 1;
options = 4;
origin = (0,8);
target = (0,33);
type = TTStem;
},
{
horizontal = 1;
options = 4;
origin = (0,25);
target = (1,12);
type = TTStem;
},
{
horizontal = 1;
place = (1446, 70);
type = TTStem;
},
{
horizontal = 1;
origin = (1,5);
target = (0,15);
type = TTStem;
},
{
horizontal = 1;
origin = (0,21);
target = (1,12);
type = TTStem;
},
{
horizontal = 1;
origin = (0,0);
target = (0,1);
type = TTStem;
}
);
layerId = "63BE41E3-0F49-4E61-A903-F52A2E952C90";
shapes = (
{
closed = 1;
nodes = (
(1122,-374,l,{
stroke = {
w = "1";
};
}),
(1122,-202,l,{
stroke = {
w = "1";
};
}),
(782,-202,ls,{
stroke = {
w = "1";
};
}),
(349,-202,o,{
stroke = {
w = "1";
};
}),
(250,-64,o,{
stroke = {
w = "1";
};
}),
(250,517,cs,{
stroke = {
w = "1";
};
}),
(250,1068,o,{
stroke = {
w = "1";
};
}),
(339,1373,o,{
stroke = {
w = "1";
};
}),
(644,1373,cs,{
stroke = {
w = "1";
};
}),
(930,1373,o,{
stroke = {
w = "1";
};
}),
(930,1105,o,{
stroke = {
w = "1";
};
}),
(930,1036,cs,{
stroke = {
w = "1";
};
}),
(930,981,l,{
stroke = {
w = "1";
};
}),
(881,1032,o,{
stroke = {
w = "1";
};
}),
(799,1060,o,{
stroke = {
w = "1";
};
}),
(711,1060,cs,{
stroke = {
w = "1";
};
}),
(493,1060,o,{
stroke = {
w = "1";
};
}),
(401,845,o,{
stroke = {
w = "1";
};
}),
(401,549,cs,{
stroke = {
w = "1";
};
}),
(401,263,o,{
stroke = {
w = "1";
};
}),
(487,-12,o,{
stroke = {
w = "1";
};
}),
(716,-12,cs,{
stroke = {
w = "1";
};
}),
(813,-12,o,{
stroke = {
w = "1";
};
}),
(913,37,o,{
stroke = {
w = "1";
};
}),
(940,110,c,{
stroke = {
w = "1";
};
}),
(960,0,l,{
stroke = {
w = "1";
};
}),
(1118,0,l,{
stroke = {
w = "1";
};
}),
(1106,52,o),
(1088,184,o),
(1088,250,cs),
(1088,982,ls,{
stroke = {
w = "1";
};
}),
(1088,1366,o,{
stroke = {
w = "1";
};
}),
(966,1534,o,{
stroke = {
w = "1";
};
}),
(638,1534,cs,{
stroke = {
w = "1";
};
}),
(189,1534,o,{
stroke = {
w = "1";
};
}),
(69,1220,o,{
stroke = {
w = "1";
};
}),
(69,573,cs,{
stroke = {
w = "1";
};
}),
(69,-80,o,{
stroke = {
w = "1";
};
}),
(191,-374,o,{
stroke = {
w = "1";
};
}),
(678,-374,cs,{
stroke = {
w = "1";
};
})
);
},
{
closed = 1;
nodes = (
(641,122,o,{
stroke = {
w = "1";
};
}),
(575,225,o,{
stroke = {
w = "1";
};
}),
(575,543,cs,{
stroke = {
w = "1";
};
}),
(575,834,o,{
stroke = {
w = "1";
};
}),
(630,936,o,{
stroke = {
w = "1";
};
}),
(760,936,cs,{
stroke = {
w = "1";
};
}),
(866,936,o,{
stroke = {
w = "1";
};
}),
(930,869,o,{
stroke = {
w = "1";
};
}),
(930,747,cs,{
stroke = {
w = "1";
};
}),
(930,326,ls,{
stroke = {
w = "1";
};
}),
(930,255,o,{
stroke = {
w = "1";
};
}),
(889,122,o,{
stroke = {
w = "1";
};
}),
(757,122,cs,{
stroke = {
w = "1";
};
})
);
}
);
width = 1200;
},
{
hints = (
{
horizontal = 1;
options = 4;
origin = (0,39);
target = (0,2);
type = TTStem;
},
{
horizontal = 1;
options = 4;
origin = (0,25);
target = (1,12);
type = TTStem;
},
{
horizontal = 1;
options = 4;
origin = (0,12);
stem = -1;
type = TTSnap;
},
{
horizontal = 1;
options = 4;
origin = (0,33);
target = (0,8);
type = TTStem;
},
{
horizontal = 1;
options = 4;
origin = (0,21);
target = (1,12);
type = TTStem;
},
{
horizontal = 1;
options = 4;
origin = (0,15);
target = (1,5);
type = TTStem;
}
);
layerId = "F48F13AC-C425-4574-8B52-7DBCB7751002";
shapes = (
{
closed = 1;
nodes = (
(1175,-400,l),
(1175,-147,l),
(704,-147,ls),
(430,-147,o),
(292,58,o),
(292,563,cs),
(292,1065,o),
(428,1273,o),
(659,1273,cs),
(880,1273,o),
(921,1083,o),
(921,1012,cs),
(921,992,l),
(857,1030,o),
(785,1044,o),
(733,1044,cs),
(580,1044,o),
(420,920,o),
(420,530,cs),
(420,164,o),
(561,7,o),
(753,7,cs),
(837,7,o),
(902,37,o),
(941,83,c),
(961,-1,l),
(1176,-1,l),
(1165,63,o),
(1162,106,o),
(1162,182,cs),
(1162,951,ls),
(1162,1309,o),
(989,1526,o),
(648,1526,cs),
(245,1526,o),
(25,1223,o),
(25,560,cs),
(25,-102,o),
(245,-400,o),
(711,-400,cs)
);
},
{
closed = 1;
nodes = (
(736,231,o),
(659,275,o),
(659,527,cs),
(659,658,o),
(680,833,o),
(803,833,cs),
(861,833,o),
(915,793,o),
(915,705,cs),
(915,364,ls),
(915,275,o),
(868,231,o),
(802,231,cs)
);
}
);
width = 1200;
},
{
background = {
shapes = (
{
closed = 1;
nodes = (
(911,-227,o),
(1038,14,o),
(1038,581,cs),
(1038,1149,o),
(911,1390,o),
(613,1390,cs),
(315,1390,o),
(188,1149,o),
(188,581,cs),
(188,14,o),
(315,-227,o),
(613,-227,cs)
);
}
);
};
hints = (
{
horizontal = 1;
options = 4;
origin = (0,39);
target = (0,2);
type = TTStem;
},
{
horizontal = 1;
options = 4;
origin = (0,21);
target = (1,12);
type = TTStem;
},
{
horizontal = 1;
options = 4;
origin = (0,15);
target = (1,5);
type = TTStem;
},
{
horizontal = 1;
options = 4;
origin = (0,8);
target = (0,33);
type = TTStem;
},
{
horizontal = 1;
options = 4;
origin = (0,25);
target = (1,12);
type = TTStem;
}
);
layerId = "4FB9B80E-81B5-47C9-A539-BB7C5ADDFB58";
shapes = (
{
closed = 1;
nodes = (
(1120,-366,l,{
stroke = {
w = "1";
};
}),
(1120,-218,l,{
stroke = {
w = "1";
};
}),
(703,-218,ls,{
stroke = {
w = "1";
};
}),
(308,-218,o,{
stroke = {
w = "1";
};
}),
(226,-9,o,{
stroke = {
w = "1";
};
}),
(226,538,cs,{
stroke = {
w = "1";
};
}),
(226,1050,o,{
stroke = {
w = "1";
};
}),
(298,1394,o,{
stroke = {
w = "1";
};
}),
(641,1394,cs,{
stroke = {
w = "1";
};
}),
(848,1394,o,{
stroke = {
w = "1";
};
}),
(938,1268,o,{
stroke = {
w = "1";
};
}),
(938,1036,cs,{
stroke = {
w = "1";
};
}),
(938,968,l,{
stroke = {
w = "1";
};
}),
(921,1011,o,{
stroke = {
w = "1";
};
}),
(853,1060,o,{
stroke = {
w = "1";
};
}),
(740,1060,cs,{
stroke = {
w = "1";
};
}),
(494,1060,o,{
stroke = {
w = "1";
};
}),
(410,828,o,{
stroke = {
w = "1";
};
}),
(410,546,cs,{
stroke = {
w = "1";
};
}),
(410,254,o,{
stroke = {
w = "1";
};
}),
(500,-10,o,{
stroke = {
w = "1";
};
}),
(724,-10,cs,{
stroke = {
w = "1";
};
}),
(825,-10,o,{
stroke = {
w = "1";
};
}),
(911,44,o,{
stroke = {
w = "1";
};
}),
(945,120,c,{
stroke = {
w = "1";
};
}),
(962,0,l,{
stroke = {
w = "1";
};
}),
(1118,0,l,{
stroke = {
w = "1";
};
}),
(1106,50,o),
(1091,198,o),
(1091,262,cs),
(1091,980,ls,{
stroke = {
w = "1";
};
}),
(1091,1368,o,{
stroke = {
w = "1";
};
}),
(938,1528,o,{
stroke = {
w = "1";
};
}),
(638,1528,cs,{
stroke = {
w = "1";
};
}),
(171,1528,o,{
stroke = {
w = "1";
};
}),
(71,1139,o,{
stroke = {
w = "1";
};
}),
(71,524,cs,{
stroke = {
w = "1";
};
}),
(71,-130,o,{
stroke = {
w = "1";
};
}),
(184,-366,o,{
stroke = {
w = "1";
};
}),
(695,-366,cs,{
stroke = {
w = "1";
};
})
);
},
{
closed = 1;
nodes = (
(699,118,o,{
stroke = {
w = "1";
};
}),
(563,149,o,{
stroke = {
w = "1";
};
}),
(563,546,cs,{
stroke = {
w = "1";
};
}),
(563,836,o,{
stroke = {
w = "1";
};
}),
(636,938,o,{
stroke = {
w = "1";
};
}),
(764,938,cs,{
stroke = {
w = "1";
};
}),
(866,938,o,{
stroke = {
w = "1";
};
}),
(940,874,o,{
stroke = {
w = "1";
};
}),
(940,746,cs,{
stroke = {
w = "1";
};
}),
(940,329,ls,{
stroke = {
w = "1";
};
}),
(940,213,o,{
stroke = {
w = "1";
};
}),
(874,118,o,{
stroke = {
w = "1";
};
}),
(763,118,cs,{
stroke = {
w = "1";
};
})
);
}
);
width = 1200;
},
{
hints = (
{
horizontal = 1;
options = 4;
origin = (0,39);
target = (0,2);
type = TTStem;
},
{
horizontal = 1;
options = 4;
origin = (0,21);
target = (1,12);
type = TTStem;
},
{
horizontal = 1;
options = 4;
origin = (0,15);
target = (1,5);
type = TTStem;
},
{
horizontal = 1;
options = 4;
origin = (0,8);
target = (0,33);
type = TTStem;
},
{
horizontal = 1;
options = 4;
origin = (0,25);
target = (1,12);
type = TTStem;
},
{
horizontal = 1;
place = (723, 35);
type = TTStem;
},
{
horizontal = 1;
origin = (1,5);
target = (0,15);
type = TTStem;
},
{
horizontal = 1;
origin = (0,21);
target = (1,12);
type = TTStem;
},
{
horizontal = 1;
origin = (0,0);
target = (0,1);
type = TTStem;
}
);
layerId = "92EF81BF-A460-40B9-8F71-75F6CAA5A9CA";
shapes = (
{
closed = 1;
nodes = (
(1143,-398,l,{
stroke = {
w = "1";
};
}),
(1143,-190,l,{
stroke = {
w = "1";
};
}),
(784,-190,ls,{
stroke = {
w = "1";
};
}),
(341,-190,o,{
stroke = {
w = "1";
};
}),
(273,3,o,{
stroke = {
w = "1";
};
}),
(273,522,cs,{
stroke = {
w = "1";
};
}),
(273,1034,o,{
stroke = {
w = "1";
};
}),
(341,1358,o,{
stroke = {
w = "1";
};
}),
(649,1358,cs,{
stroke = {
w = "1";
};
}),
(843,1358,o,{
stroke = {
w = "1";
};
}),
(919,1196,o,{
stroke = {
w = "1";
};
}),
(919,1034,cs,{
stroke = {
w = "1";
};
}),
(919,994,l,{
stroke = {
w = "1";
};
}),
(877,1038,o,{
stroke = {
w = "1";
};
}),
(779,1062,o,{
stroke = {
w = "1";
};
}),
(705,1062,cs,{
stroke = {
w = "1";
};
}),
(495,1062,o,{
stroke = {
w = "1";
};
}),
(398,872,o,{
stroke = {
w = "1";
};
}),
(398,528,cs,{
stroke = {
w = "1";
};
}),
(398,245,o,{
stroke = {
w = "1";
};
}),
(485,-18,o,{
stroke = {
w = "1";
};
}),
(727,-18,cs,{
stroke = {
w = "1";
};
}),
(807,-18,o,{
stroke = {
w = "1";
};
}),
(895,20,o,{
stroke = {
w = "1";
};
}),
(929,82,c,{
stroke = {
w = "1";
};
}),
(939,-16,l,{
stroke = {
w = "1";
};
}),
(1141,-16,l,{
stroke = {
w = "1";
};
}),
(1129,42,o),
(1113,130,o),
(1113,202,cs),
(1113,976,ls,{
stroke = {
w = "1";
};
}),
(1113,1102,o,{
stroke = {
w = "1";
};
}),
(1113,1550,o,{
stroke = {
w = "1";
};
}),
(661,1550,cs,{
stroke = {
w = "1";
};
}),
(172,1550,o,{
stroke = {
w = "1";
};
}),
(57,1199,o,{
stroke = {
w = "1";
};
}),
(57,537,cs,{
stroke = {
w = "1";
};
}),
(57,-125,o,{
stroke = {
w = "1";
};
}),
(172,-398,o,{
stroke = {
w = "1";
};
}),
(687,-398,cs,{
stroke = {
w = "1";
};
})
);
},
{
closed = 1;
nodes = (
(676,162,o,{
stroke = {
w = "1";
};
}),
(609,264,o,{
stroke = {
w = "1";
};
}),
(609,540,cs,{
stroke = {
w = "1";
};
}),
(609,782,o,{
stroke = {
w = "1";
};
}),
(660,894,o,{
stroke = {
w = "1";
};
}),
(782,894,cs,{
stroke = {
w = "1";
};
}),
(858,894,o,{
stroke = {
w = "1";
};
}),
(915,852,o,{
stroke = {
w = "1";
};
}),
(915,746,cs,{
stroke = {
w = "1";
};
}),
(915,324,ls,{
stroke = {
w = "1";
};
}),
(915,232,o,{
stroke = {
w = "1";
};
}),
(854,162,o,{
stroke = {
w = "1";
};
}),
(774,162,cs,{
stroke = {
w = "1";
};
})
);
}
);
width = 1200;
}
);
note = at;
unicode = 64;
}
{
glyphname = A;
layers = (
{
anchors = (
{
name = bottom;
pos = (596,0);
},
{
name = ogonek;
pos = (1026,0);
},
{
name = top;
pos = (602,1450);
},
{
name = topleft;
pos = (446,1454);
}
);
guides = (
{
name = "superscript bottom + ";
pos = (-50,384);
}
);
layerId = "63BE41E3-0F49-4E61-A903-F52A2E952C90";
shapes = (
{
closed = 1;
nodes = (
(276,0,l),
(380,406,l),
(816,406,l),
(924,0,l),
(1114,0,l),
(700,1450,l),
(500,1450,l),
(90,0,l)
);
},
{
closed = 1;
nodes = (
(596,1266,l),
(604,1266,l),
(780,550,l),
(422,550,l)
);
}
);
width = 1200;
},
{
anchors = (
{
name = bottom;
pos = (550,0);
},
{
name = ogonek;
pos = (990,20);
},
{
name = top;
pos = (550,1400);
}
);
associatedMasterId = "63BE41E3-0F49-4E61-A903-F52A2E952C90";
layerId = "21E2753D-042D-4D19-89C8-430560CC5AF5";
name = "new Layer";
shapes = (
{
closed = 1;
nodes = (
(274,0,l),
(338,290,l),
(726,290,l),
(792,0,l),
(1094,0,l),
(808,1450,l),
(292,1450,l),
(6,0,l)
);
},
{
closed = 1;
nodes = (
(518,1162,l),
(558,1162,l),
(664,556,l),
(402,556,l)
);
}
);
width = 1200;
},
{
anchors = (
{
name = bottom;
pos = (600,0);
},
{
name = ogonek;
pos = (974,0);
},
{
name = top;
pos = (600,1450);
},
{
name = topleft;
pos = (394,1450);
}
);
layerId = "F48F13AC-C425-4574-8B52-7DBCB7751002";
shapes = (
{
closed = 1;
nodes = (
(368,0,l),
(420,282,l),
(766,282,l),
(824,0,l),
(1126,0,l),
(854,1450,l),
(352,1450,l),
(74,0,l)
);
},
{
closed = 1;
nodes = (
(566,1140,l),
(618,1140,l),
(722,554,l),
(466,554,l)
);
}
);
width = 1200;
},
{
anchors = (
{
name = bottom;
pos = (592,0);
},
{
name = ogonek;
pos = (1022,0);
},
{
name = top;
pos = (596,1450);
},
{
name = topleft;
pos = (482,1450);
}
);
layerId = "4FB9B80E-81B5-47C9-A539-BB7C5ADDFB58";
shapes = (
{
closed = 1;
nodes = (
(258,0,l),
(366,420,l),
(828,420,l),
(940,0,l),
(1100,0,l),
(660,1450,l),
(532,1450,l),
(100,0,l)
);
},
{
closed = 1;
nodes = (
(594,1234,l),
(606,1234,l),
(792,546,l),
(406,546,l)
);
}
);
width = 1200;
},
{
anchors = (
{
name = bottom;
pos = (598,0);
},
{
name = ogonek;
pos = (994,0);
},
{
name = top;
pos = (602,1450);
},
{
name = topleft;
pos = (420,1452);
}
);
layerId = "92EF81BF-A460-40B9-8F71-75F6CAA5A9CA";
shapes = (
{
closed = 1;
nodes = (
(318,0,l),
(398,342,l),
(780,342,l),
(864,0,l),
(1120,0,l),
(778,1450,l),
(426,1450,l),
(82,0,l)
);
},
{
closed = 1;
nodes = (
(588,1204,l),
(612,1204,l),
(746,550,l),
(456,550,l)
);
}
);
width = 1200;
}
);
note = A;
unicode = 65;
}
{
glyphname = B;
layers = (
{
anchors = (
{
name = bottom;
pos = (588,0);
},
{
name = top;
pos = (588,1450);
}
);
hints = (
{
horizontal = 1;
options = 4;
origin = (0,14);
target = (1,8);
type = TTStem;
},
{
horizontal = 1;
options = 4;
origin = (1,0);
target = (2,8);
type = TTStem;
},
{
horizontal = 1;
options = 4;
origin = (0,13);
target = (2,0);
type = TTStem;
}
);
layerId = "63BE41E3-0F49-4E61-A903-F52A2E952C90";
shapes = (
{
closed = 1;
nodes = (
(574,0,ls),
(820,0,o),
(1080,76,o),
(1080,402,cs),
(1080,626,o),
(956,722,o),
(772,758,c),
(886,818,o),
(946,890,o),
(946,1084,cs),
(946,1360,o),
(754,1450,o),
(544,1450,cs),
(166,1450,l),
(166,0,l)
);
},
{
closed = 1;
nodes = (
(334,678,l),
(576,678,ls),
(752,678,o),
(904,624,o),
(904,410,cs),
(904,164,o),
(702,148,o),
(524,148,cs),
(334,148,l)
);
},
{
closed = 1;
nodes = (
(334,1298,l),
(504,1298,ls),
(646,1298,o),
(772,1252,o),
(772,1068,cs),
(772,866,o),
(636,820,o),
(480,820,cs),
(334,820,l)
);
}
);
width = 1200;
},
{
anchors = (
{
name = bottom;
pos = (550,0);
},
{
name = top;
pos = (520,1444);
}
);
associatedMasterId = "63BE41E3-0F49-4E61-A903-F52A2E952C90";
layerId = "21E2753D-042D-4D19-89C8-430560CC5AF5";
name = "new Layer";
shapes = (
{
closed = 1;
nodes = (
(570,0,ls),
(854,0,o),
(1060,84,o),
(1060,388,cs),
(1060,652,o),
(892,720,o),
(770,746,c),
(944,800,o),
(1026,908,o),
(1026,1078,cs),
(1026,1366,o),
(812,1444,o),
(522,1444,cs),
(40,1444,l),
(40,0,l)
);
},
{
closed = 1;
nodes = (
(364,606,l),
(538,606,ls),
(614,606,o),
(720,586,o),
(720,432,cs),
(720,284,o),
(618,264,o),
(548,264,cs),
(364,264,l)
);
},
{
closed = 1;
nodes = (
(362,1182,l),
(544,1182,ls),
(648,1182,o),
(696,1122,o),
(696,1020,cs),
(696,894,o),
(638,862,o),
(520,862,cs),
(362,862,l)
);
}
);
width = 1200;
},
{
anchors = (
{
name = bottom;
pos = (580,0);
},
{
name = top;
pos = (570,1444);
}
);
guides = (
{
name = "subscript cap top";
pos = (-20,400);
},
{
name = "subscript lc  top";
pos = (-20,280);
},
{
name = "subscript bottom";
pos = (-20,-79);
},
{
name = "superscript bottom + ";
pos = (-50,384);
},
{
name = "top lower fraction";
pos = (-100,342);
},
{
name = "superscript lc top";
pos = (-50,766);
},
{
name = "superscript cap top";
pos = (-50,863);
},
{
name = "midpoint lowercase";
pos = (-10,275);
},
{
name = "subscript cap top";
pos = (-20,400);
},
{
name = "subscript lc  top";
pos = (-20,280);
},
{
name = "subscript bottom";
pos = (-20,-79);
},
{
name = "superscript bottom + ";
pos = (-50,384);
},
{
name = "top lower fraction";
pos = (-100,342);
},
{
name = "superscript lc top";
pos = (-50,766);
},
{
name = "superscript cap top";
pos = (-50,863);
},
{
name = "midpoint lowercase";
pos = (-10,275);
}
);
hints = (
{
horizontal = 1;
options = 4;
origin = (0,14);
target = (1,8);
type = TTStem;
},
{
horizontal = 1;
options = 4;
origin = (1,0);
target = (2,8);
type = TTStem;
},
{
horizontal = 1;
options = 4;
origin = (2,0);
target = (0,13);
type = TTStem;
}
);
layerId = "F48F13AC-C425-4574-8B52-7DBCB7751002";
shapes = (
{
closed = 1;
nodes = (
(601,0,ls),
(875,0,o),
(1117,108,o),
(1117,388,cs),
(1117,668,o),
(937,758,o),
(815,768,c),
(935,800,o),
(1011,882,o),
(1011,1058,cs),
(1011,1302,o),
(833,1450,o),
(517,1450,cs),
(95,1450,l),
(95,0,l)
);
},
{
closed = 1;
nodes = (
(435,604,l),
(581,604,ls),
(651,604,o),
(751,576,o),
(751,422,cs),
(751,274,o),
(655,250,o),
(589,250,cs),
(435,250,l)
);
},
{
closed = 1;
nodes = (
(433,1188,l),
(547,1188,ls),
(645,1188,o),
(689,1124,o),
(689,1022,cs),
(689,896,o),
(633,856,o),
(523,856,cs),
(433,856,l)
);
}
);
width = 1200;
},
{
anchors = (
{
name = bottom;
pos = (559,0);
},
{
name = top;
pos = (565,1452);
}
);
hints = (
{
horizontal = 1;
options = 4;
origin = (0,14);
target = (1,8);
type = TTStem;
},
{
horizontal = 1;
options = 4;
origin = (1,0);
target = (2,8);
type = TTStem;
},
{
horizontal = 1;
options = 4;
origin = (0,13);
target = (2,0);
type = TTStem;
}
);
layerId = "4FB9B80E-81B5-47C9-A539-BB7C5ADDFB58";
shapes = (
{
closed = 1;
nodes = (
(539,0,ls),
(779,0,o),
(1053,70,o),
(1053,404,cs),
(1053,620,o),
(931,730,o),
(737,770,c),
(849,834,o),
(913,892,o),
(913,1088,cs),
(913,1370,o),
(709,1450,o),
(519,1450,cs),
(147,1450,l),
(147,0,l)
);
},
{
closed = 1;
nodes = (
(295,690,l),
(549,690,ls),
(743,690,o),
(903,632,o),
(903,408,cs),
(903,146,o),
(683,128,o),
(487,128,cs),
(295,128,l)
);
},
{
closed = 1;
nodes = (
(295,1316,l),
(471,1316,ls),
(619,1316,o),
(761,1274,o),
(761,1076,cs),
(761,862,o),
(611,814,o),
(447,814,cs),
(295,814,l)
);
}
);
width = 1200;
},
{
anchors = (
{
name = bottom;
pos = (598,0);
},
{
name = top;
pos = (594,1448);
}
);
hints = (
{
horizontal = 1;
options = 4;
origin = (0,14);
target = (1,8);
type = TTStem;
},
{
horizontal = 1;
options = 4;
origin = (1,0);
target = (2,8);
type = TTStem;
},
{
horizontal = 1;
options = 4;
origin = (0,13);
target = (2,0);
type = TTStem;
}
);
layerId = "92EF81BF-A460-40B9-8F71-75F6CAA5A9CA";
shapes = (
{
closed = 1;
nodes = (
(574,0,ls),
(840,0,o),
(1090,92,o),
(1090,396,cs),
(1090,648,o),
(938,740,o),
(786,764,c),
(902,810,o),
(970,886,o),
(970,1072,cs),
(970,1332,o),
(786,1450,o),
(518,1450,cs),
(118,1450,l),
(118,0,l)
);
},
{
closed = 1;
nodes = (
(372,642,l),
(566,642,ls),
(688,642,o),
(814,600,o),
(814,416,cs),
(814,220,o),
(666,200,o),
(544,200,cs),
(372,200,l)
);
},
{
closed = 1;
nodes = (
(370,1244,l),
(512,1244,ls),
(632,1244,o),
(718,1188,o),
(718,1046,cs),
(718,882,o),
(622,838,o),
(488,838,cs),
(370,838,l)
);
}
);
width = 1200;
}
);
note = B;
unicode = 66;
}
{
glyphname = C;
layers = (
{
anchors = (
{
name = bottom;
pos = (600,0);
},
{
name = top;
pos = (600,1450);
}
);
hints = (
{
horizontal = 1;
options = 4;
origin = (0,25);
target = (0,6);
type = TTStem;
},
{
horizontal = 1;
options = 4;
origin = (0,19);
target = (0,12);
type = TTStem;
},
{
horizontal = 1;
origin = (0,25);
target = (0,6);
type = TTStem;
},
{
horizontal = 1;
origin = (0,14);
target = (0,11);
type = TTStem;
},
{
horizontal = 1;
origin = (0,12);
target = (0,13);
type = TTStem;
},
{
horizontal = 1;
origin = (0,18);
target = (0,19);
type = TTStem;
}
);
layerId = "63BE41E3-0F49-4E61-A903-F52A2E952C90";
shapes = (
{
closed = 1;
nodes = (
(832,-36,o),
(988,24,o),
(1076,170,c),
(968,268,l),
(894,154,o),
(792,116,o),
(662,116,cs),
(396,116,o),
(322,352,o),
(322,714,cs),
(322,1082,o),
(410,1324,o),
(668,1324,cs),
(768,1324,o),
(860,1308,o),
(966,1194,c),
(1076,1276,l),
(994,1422,o),
(828,1468,o),
(674,1468,cs),
(328,1468,o),
(134,1198,o),
(134,704,cs),
(134,220,o),
(306,-36,o),
(660,-36,cs)
);
}
);
width = 1200;
},
{
anchors = (
{
name = bottom;
pos = (550,0);
},
{
name = top;
pos = (582,1400);
}
);
associatedMasterId = "63BE41E3-0F49-4E61-A903-F52A2E952C90";
layerId = "21E2753D-042D-4D19-89C8-430560CC5AF5";
name = "new Layer";
shapes = (
{
closed = 1;
nodes = (
(822,-48,o),
(1008,48,o),
(1066,282,c),
(762,398,l),
(746,314,o),
(708,232,o),
(588,232,cs),
(414,232,o),
(352,426,o),
(352,684,cs),
(352,948,o),
(408,1170,o),
(590,1170,cs),
(666,1170,o),
(734,1128,o),
(758,1016,c),
(1060,1120,l),
(1004,1346,o),
(816,1454,o),
(590,1454,cs),
(234,1454,o),
(40,1162,o),
(40,692,cs),
(40,224,o),
(228,-48,o),
(594,-48,cs)
);
}
);
width = 1200;
},
{
anchors = (
{
name = bottom;
pos = (602,-24);
},
{
name = top;
pos = (600,1450);
}
);
hints = (
{
horizontal = 1;
options = 4;
origin = (0,25);
target = (0,6);
type = TTStem;
},
{
horizontal = 1;
options = 4;
origin = (0,19);
target = (0,12);
type = TTStem;
}
);
layerId = "F48F13AC-C425-4574-8B52-7DBCB7751002";
shapes = (
{
closed = 1;
nodes = (
(886,-36,o),
(1010,50,o),
(1136,184,c),
(970,386,l),
(896,300,o),
(782,260,o),
(712,260,cs),
(490,260,o),
(390,486,o),
(390,714,cs),
(390,924,o),
(490,1160,o),
(712,1160,cs),
(826,1160,o),
(904,1116,o),
(982,1028,c),
(1156,1244,l),
(1018,1388,o),
(888,1470,o),
(686,1470,cs),
(222,1470,o),
(52,1116,o),
(52,724,cs),
(52,332,o),
(222,-36,o),
(620,-36,cs)
);
}
);
width = 1200;
},
{
anchors = (
{
name = bottom;
pos = (603,0);
},
{
name = top;
pos = (603,1456);
}
);
hints = (
{
horizontal = 1;
options = 4;
origin = (0,25);
target = (0,6);
type = TTStem;
},
{
horizontal = 1;
options = 4;
origin = (0,19);
target = (0,12);
type = TTStem;
}
);
layerId = "4FB9B80E-81B5-47C9-A539-BB7C5ADDFB58";
shapes = (
{
closed = 1;
nodes = (
(823,-34,o),
(975,26,o),
(1057,168,c),
(961,240,l),
(885,128,o),
(783,84,o),
(659,84,cs),
(393,84,o),
(291,340,o),
(291,714,cs),
(291,1094,o),
(393,1350,o),
(663,1350,cs),
(755,1350,o),
(859,1348,o),
(959,1224,c),
(1057,1284,l),
(961,1428,o),
(813,1468,o),
(669,1468,cs),
(341,1468,o),
(143,1224,o),
(143,714,cs),
(143,216,o),
(311,-34,o),
(657,-34,cs)
);
}
);
width = 1200;
},
{
anchors = (
{
name = bottom;
pos = (618,-10);
},
{
name = top;
pos = (600,1450);
}
);
hints = (
{
horizontal = 1;
options = 4;
origin = (0,25);
target = (0,6);
type = TTStem;
},
{
horizontal = 1;
options = 4;
origin = (0,19);
target = (0,12);
type = TTStem;
},
{
horizontal = 1;
origin = (0,25);
target = (0,6);
type = TTStem;
},
{
horizontal = 1;
origin = (0,14);
target = (0,11);
type = TTStem;
},
{
horizontal = 1;
origin = (0,12);
target = (0,13);
type = TTStem;
},
{
horizontal = 1;
origin = (0,18);
target = (0,19);
type = TTStem;
}
);
layerId = "92EF81BF-A460-40B9-8F71-75F6CAA5A9CA";
shapes = (
{
closed = 1;
nodes = (
(854,-36,o),
(1000,36,o),
(1102,176,c),
(970,322,l),
(896,224,o),
(782,194,o),
(682,194,cs),
(438,194,o),
(358,418,o),
(358,714,cs),
(358,1004,o),
(446,1238,o),
(686,1238,cs),
(792,1238,o),
(878,1210,o),
(970,1112,c),
(1112,1262,l),
(1002,1408,o),
(842,1470,o),
(664,1470,cs),
(264,1470,o),
(88,1158,o),
(88,714,cs),
(88,276,o),
(264,-36,o),
(636,-36,cs)
);
}
);
width = 1200;
}
);
note = C;
unicode = 67;
}
{
glyphname = D;
layers = (
{
anchors = (
{
name = bottom;
pos = (600,0);
},
{
name = center;
pos = (600,700);
},
{
name = top;
pos = (600,1450);
}
);
hints = (
{
horizontal = 1;
options = 4;
origin = (0,8);
target = (1,8);
type = TTStem;
},
{
horizontal = 1;
options = 4;
origin = (0,7);
target = (1,0);
type = TTStem;
}
);
layerId = "63BE41E3-0F49-4E61-A903-F52A2E952C90";
shapes = (
{
closed = 1;
nodes = (
(424,0,ls),
(910,0,o),
(1088,220,o),
(1088,734,cs),
(1088,1268,o),
(878,1450,o),
(440,1450,cs),
(172,1450,l),
(172,0,l)
);
},
{
closed = 1;
nodes = (
(348,1302,l),
(458,1302,ls),
(770,1302,o),
(906,1142,o),
(906,734,cs),
(906,278,o),
(760,146,o),
(438,146,cs),
(348,146,l)
);
}
);
width = 1200;
},
{
anchors = (
{
name = bottom;
pos = (550,0);
},
{
name = center;
pos = (550,700);
},
{
name = top;
pos = (550,1400);
}
);
associatedMasterId = "63BE41E3-0F49-4E61-A903-F52A2E952C90";
background = {
shapes = (
{
closed = 1;
nodes = (
(32,0,l),
(476,0,ls),
(552,0,o),
(688,4,o),
(784,56,cs),
(992,166,o),
(1068,408,o),
(1068,726,cs),
(1068,948,o),
(1022,1184,o),
(872,1324,cs),
(764,1426,o),
(600,1444,o),
(474,1444,cs),
(32,1444,l),
(32,0,l)
);
},
{
closed = 1;
nodes = (
(452,278,l),
(328,278,l),
(328,1170,l),
(442,1168,ls),
(488,1168,o),
(568,1168,o),
(640,1114,cs),
(710,1058,o),
(768,948,o),
(768,730,cs),
(768,412,o),
(654,278,o),
(452,278,c)
);
}
);
};
layerId = "21E2753D-042D-4D19-89C8-430560CC5AF5";
name = "new Layer";
shapes = (
{
closed = 1;
nodes = (
(384,0,ls),
(872,0,o),
(1060,206,o),
(1060,734,cs),
(1060,1268,o),
(838,1450,o),
(400,1450,cs),
(42,1450,l),
(42,0,l)
);
},
{
closed = 1;
nodes = (
(342,1182,l),
(434,1182,ls),
(658,1182,o),
(756,998,o),
(756,732,cs),
(756,466,o),
(650,266,o),
(418,266,cs),
(342,266,l)
);
}
);
width = 1200;
},
{
anchors = (
{
name = bottom;
pos = (600,0);
},
{
name = center;
pos = (600,700);
},
{
name = top;
pos = (600,1450);
}
);
hints = (
{
horizontal = 1;
options = 4;
origin = (0,8);
target = (1,8);
type = TTStem;
},
{
horizontal = 1;
options = 4;
origin = (0,7);
target = (1,0);
type = TTStem;
}
);
layerId = "F48F13AC-C425-4574-8B52-7DBCB7751002";
shapes = (
{
closed = 1;
nodes = (
(434,0,ls),
(922,0,o),
(1110,206,o),
(1110,734,cs),
(1110,1268,o),
(888,1450,o),
(450,1450,cs),
(92,1450,l),
(92,0,l)
);
},
{
closed = 1;
nodes = (
(432,1160,l),
(492,1160,ls),
(694,1160,o),
(748,946,o),
(748,732,cs),
(748,518,o),
(686,288,o),
(478,288,cs),
(432,288,l)
);
}
);
width = 1200;
},
{
anchors = (
{
name = bottom;
pos = (581,0);
},
{
name = center;
pos = (581,700);
},
{
name = top;
pos = (581,1434);
}
);
hints = (
{
horizontal = 1;
options = 4;
origin = (0,8);
target = (1,8);
type = TTStem;
},
{
horizontal = 1;
options = 4;
origin = (0,7);
target = (1,0);
type = TTStem;
}
);
layerId = "4FB9B80E-81B5-47C9-A539-BB7C5ADDFB58";
shapes = (
{
closed = 1;
nodes = (
(385,0,ls),
(871,0,o),
(1051,222,o),
(1051,734,cs),
(1051,1268,o),
(839,1450,o),
(401,1450,cs),
(149,1450,l),
(149,0,l)
);
},
{
closed = 1;
nodes = (
(297,1326,l),
(415,1326,ls),
(745,1326,o),
(899,1168,o),
(899,734,cs),
(899,244,o),
(735,124,o),
(395,124,cs),
(297,124,l)
);
}
);
width = 1200;
},
{
anchors = (
{
name = bottom;
pos = (600,0);
},
{
name = center;
pos = (600,700);
},
{
name = top;
pos = (600,1450);
}
);
hints = (
{
horizontal = 1;
options = 4;
origin = (0,8);
target = (1,8);
type = TTStem;
},
{
horizontal = 1;
options = 4;
origin = (0,7);
target = (1,0);
type = TTStem;
}
);
layerId = "92EF81BF-A460-40B9-8F71-75F6CAA5A9CA";
shapes = (
{
closed = 1;
nodes = (
(430,0,ls),
(916,0,o),
(1100,214,o),
(1100,734,cs),
(1100,1268,o),
(884,1450,o),
(446,1450,cs),
(132,1450,l),
(132,0,l)
);
},
{
closed = 1;
nodes = (
(390,1232,l),
(476,1232,ls),
(732,1232,o),
(818,1044,o),
(818,734,cs),
(818,398,o),
(724,218,o),
(458,218,cs),
(390,218,l)
);
}
);
width = 1200;
}
);
note = D;
unicode = 68;
}
{
glyphname = E;
layers = (
{
anchors = (
{
name = bottom;
pos = (600,0);
},
{
name = ogonek;
pos = (920,0);
},
{
name = top;
pos = (600,1450);
},
{
name = topleft;
pos = (194,1450);
}
);
hints = (
{
horizontal = 1;
options = 4;
origin = (0,11);
target = (0,2);
type = TTStem;
},
{
horizontal = 1;
options = 4;
origin = (0,3);
target = (0,6);
type = TTStem;
},
{
horizontal = 1;
options = 4;
origin = (0,10);
target = (0,7);
type = TTStem;
},
{
horizontal = 1;
origin = (0,4);
target = (0,5);
type = TTStem;
},
{
horizontal = 1;
origin = (0,0);
target = (0,1);
type = TTStem;
},
{
horizontal = 1;
origin = (0,9);
target = (0,8);
type = TTStem;
}
);
layerId = "63BE41E3-0F49-4E61-A903-F52A2E952C90";
shapes = (
{
closed = 1;
nodes = (
(1040,0,l),
(1040,146,l),
(352,146,l),
(352,682,l),
(986,682,l),
(986,828,l),
(352,828,l),
(352,1300,l),
(1014,1300,l),
(1014,1450,l),
(176,1450,l),
(176,0,l)
);
}
);
width = 1200;
},
{
anchors = (
{
name = bottom;
pos = (550,0);
},
{
name = ogonek;
pos = (990,20);
},
{
name = top;
pos = (550,1400);
},
{
name = topleft;
pos = (40,1400);
}
);
associatedMasterId = "63BE41E3-0F49-4E61-A903-F52A2E952C90";
background = {
shapes = (
{
closed = 1;
nodes = (
(0,0,l),
(1100,0,l),
(1100,280,l),
(396,280,l),
(396,588,l),
(1044,588,l),
(1044,864,l),
(396,864,l),
(396,1164,l),
(1084,1164,l),
(1084,1440,l),
(0,1440,l),
(0,0,l)
);
}
);
};
layerId = "21E2753D-042D-4D19-89C8-430560CC5AF5";
name = "new Layer";
shapes = (
{
closed = 1;
nodes = (
(1056,0,l),
(1056,282,l),
(374,282,l),
(374,586,l),
(992,586,l),
(992,876,l),
(374,876,l),
(374,1166,l),
(1026,1166,l),
(1026,1450,l),
(44,1450,l),
(44,0,l)
);
}
);
width = 1200;
},
{
anchors = (
{
name = bottom;
pos = (600,0);
},
{
name = ogonek;
pos = (944,0);
},
{
name = top;
pos = (600,1450);
},
{
name = topleft;
pos = (90,1450);
}
);
background = {
shapes = (
{
closed = 1;
nodes = (
(0,0,l),
(1100,0,l),
(1100,280,l),
(396,280,l),
(396,588,l),
(1044,588,l),
(1044,864,l),
(396,864,l),
(396,1164,l),
(1084,1164,l),
(1084,1440,l),
(0,1440,l),
(0,0,l)
);
}
);
};
hints = (
{
horizontal = 1;
options = 4;
origin = (0,11);
target = (0,2);
type = TTStem;
},
{
horizontal = 1;
options = 4;
origin = (0,3);
target = (0,6);
type = TTStem;
},
{
horizontal = 1;
options = 4;
origin = (0,10);
target = (0,7);
type = TTStem;
}
);
layerId = "F48F13AC-C425-4574-8B52-7DBCB7751002";
shapes = (
{
closed = 1;
nodes = (
(1098,0,l),
(1098,288,l),
(446,288,l),
(446,594,l),
(1034,594,l),
(1034,886,l),
(446,886,l),
(446,1160,l),
(1068,1160,l),
(1068,1450,l),
(102,1450,l),
(102,0,l)
);
}
);
width = 1200;
},
{
anchors = (
{
name = bottom;
pos = (600,0);
},
{
name = ogonek;
pos = (916,0);
},
{
name = top;
pos = (600,1446);
},
{
name = topleft;
pos = (180,1450);
}
);
hints = (
{
horizontal = 1;
options = 4;
origin = (0,11);
target = (0,2);
type = TTStem;
},
{
horizontal = 1;
options = 4;
origin = (0,3);
target = (0,6);
type = TTStem;
},
{
horizontal = 1;
options = 4;
origin = (0,10);
target = (0,7);
type = TTStem;
}
);
layerId = "4FB9B80E-81B5-47C9-A539-BB7C5ADDFB58";
shapes = (
{
closed = 1;
nodes = (
(1020,0,l),
(1020,124,l),
(328,124,l),
(328,694,l),
(968,694,l),
(968,816,l),
(328,816,l),
(328,1326,l),
(994,1326,l),
(994,1450,l),
(180,1450,l),
(180,0,l)
);
}
);
width = 1200;
},
{
anchors = (
{
name = bottom;
pos = (600,0);
},
{
name = ogonek;
pos = (932,0);
},
{
name = top;
pos = (600,1450);
},
{
name = topleft;
pos = (142,1450);
}
);
hints = (
{
horizontal = 1;
options = 4;
origin = (0,11);
target = (0,2);
type = TTStem;
},
{
horizontal = 1;
options = 4;
origin = (0,3);
target = (0,6);
type = TTStem;
},
{
horizontal = 1;
options = 4;
origin = (0,10);
target = (0,7);
type = TTStem;
},
{
horizontal = 1;
origin = (0,4);
target = (0,5);
type = TTStem;
},
{
horizontal = 1;
origin = (0,0);
target = (0,1);
type = TTStem;
},
{
horizontal = 1;
origin = (0,9);
target = (0,8);
type = TTStem;
}
);
layerId = "92EF81BF-A460-40B9-8F71-75F6CAA5A9CA";
shapes = (
{
closed = 1;
nodes = (
(1074,0,l),
(1074,218,l),
(396,218,l),
(396,640,l),
(1014,640,l),
(1014,860,l),
(396,860,l),
(396,1230,l),
(1046,1230,l),
(1046,1450,l),
(136,1450,l),
(136,0,l)
);
}
);
width = 1200;
}
);
note = E;
unicode = 69;
}
{
glyphname = F;
layers = (
{
anchors = (
{
name = bottom;
pos = (600,0);
},
{
name = top;
pos = (600,1450);
}
);
hints = (
{
horizontal = 1;
options = 4;
origin = (0,9);
stem = -1;
type = TTSnap;
},
{
horizontal = 1;
options = 4;
origin = (0,1);
target = (0,4);
type = TTStem;
},
{
horizontal = 1;
options = 4;
origin = (0,8);
target = (0,5);
type = TTStem;
}
);
layerId = "63BE41E3-0F49-4E61-A903-F52A2E952C90";
shapes = (
{
closed = 1;
nodes = (
(374,0,l),
(374,644,l),
(1034,644,l),
(1034,790,l),
(374,790,l),
(374,1300,l),
(1066,1300,l),
(1066,1450,l),
(198,1450,l),
(198,0,l)
);
}
);
width = 1200;
},
{
anchors = (
{
name = bottom;
pos = (550,0);
},
{
name = top;
pos = (550,1400);
}
);
associatedMasterId = "63BE41E3-0F49-4E61-A903-F52A2E952C90";
background = {
shapes = (
{
closed = 1;
nodes = (
(40,0,l),
(438,0,l),
(438,548,l),
(1018,548,l),
(1018,826,l),
(438,826,l),
(438,1162,l),
(1062,1162,l),
(1062,1440,l),
(40,1440,l),
(40,0,l)
);
}
);
};
layerId = "21E2753D-042D-4D19-89C8-430560CC5AF5";
name = "new Layer";
shapes = (
{
closed = 1;
nodes = (
(436,0,l),
(436,546,l),
(1014,546,l),
(1014,830,l),
(436,830,l),
(436,1160,l),
(1044,1160,l),
(1044,1450,l),
(56,1450,l),
(56,0,l)
);
}
);
width = 1200;
},
{
anchors = (
{
name = bottom;
pos = (600,0);
},
{
name = top;
pos = (600,1450);
}
);
hints = (
{
horizontal = 1;
options = 4;
origin = (0,9);
stem = -1;
type = TTSnap;
},
{
horizontal = 1;
options = 4;
origin = (0,1);
target = (0,4);
type = TTStem;
},
{
horizontal = 1;
options = 4;
origin = (0,8);
target = (0,5);
type = TTStem;
}
);
layerId = "F48F13AC-C425-4574-8B52-7DBCB7751002";
shapes = (
{
closed = 1;
nodes = (
(472,0,l),
(472,558,l),
(1030,558,l),
(1030,842,l),
(472,842,l),
(472,1160,l),
(1082,1160,l),
(1082,1450,l),
(124,1450,l),
(124,0,l)
);
}
);
width = 1200;
},
{
anchors = (
{
name = bottom;
pos = (589,0);
},
{
name = top;
pos = (589,1450);
}
);
hints = (
{
horizontal = 1;
options = 4;
origin = (0,9);
stem = -1;
type = TTSnap;
},
{
horizontal = 1;
options = 4;
origin = (0,1);
target = (0,4);
type = TTStem;
},
{
horizontal = 1;
options = 4;
origin = (0,8);
target = (0,5);
type = TTStem;
}
);
layerId = "4FB9B80E-81B5-47C9-A539-BB7C5ADDFB58";
shapes = (
{
closed = 1;
nodes = (
(323,0,l),
(323,664,l),
(997,664,l),
(997,788,l),
(323,788,l),
(323,1326,l),
(1025,1326,l),
(1025,1450,l),
(175,1450,l),
(175,0,l)
);
}
);
width = 1200;
},
{
anchors = (
{
name = bottom;
pos = (596,0);
},
{
name = top;
pos = (596,1450);
}
);
hints = (
{
horizontal = 1;
options = 4;
origin = (0,9);
stem = -1;
type = TTSnap;
},
{
horizontal = 1;
options = 4;
origin = (0,1);
target = (0,4);
type = TTStem;
},
{
horizontal = 1;
options = 4;
origin = (0,8);
target = (0,5);
type = TTStem;
}
);
layerId = "92EF81BF-A460-40B9-8F71-75F6CAA5A9CA";
shapes = (
{
closed = 1;
nodes = (
(396,0,l),
(396,598,l),
(1018,598,l),
(1018,814,l),
(396,814,l),
(396,1230,l),
(1060,1230,l),
(1060,1450,l),
(138,1450,l),
(138,0,l)
);
}
);
width = 1200;
}
);
note = F;
unicode = 70;
}
{
glyphname = G;
layers = (
{
anchors = (
{
name = bottom;
pos = (600,0);
},
{
name = top;
pos = (580,1466);
}
);
hints = (
{
horizontal = 1;
options = 4;
origin = (0,31);
target = (0,12);
type = TTStem;
},
{
horizontal = 1;
options = 4;
origin = (0,8);
target = (0,7);
type = TTStem;
},
{
horizontal = 1;
options = 4;
origin = (0,25);
target = (0,18);
type = TTStem;
},
{
horizontal = 1;
origin = (0,31);
target = (0,12);
type = TTStem;
},
{
horizontal = 1;
origin = (0,18);
target = (0,19);
type = TTStem;
},
{
horizontal = 1;
origin = (0,24);
target = (0,25);
type = TTStem;
}
);
layerId = "63BE41E3-0F49-4E61-A903-F52A2E952C90";
shapes = (
{
closed = 1;
nodes = (
(810,-20,o),
(881,65,o),
(922,154,c),
(928,154,l),
(928,0,l),
(1078,0,l),
(1078,756,l),
(576,756,l),
(576,616,l),
(924,616,l),
(924,333,o),
(854,128,o),
(623,128,cs),
(318,128,o),
(294,483,o),
(294,727,cs),
(294,1047,o),
(335,1322,o),
(642,1322,cs),
(736,1322,o),
(844,1296,o),
(924,1148,c),
(1062,1228,l),
(983,1404,o),
(807,1470,o),
(626,1470,cs),
(239,1470,o),
(118,1170,o),
(118,728,cs),
(118,337,o),
(213,-20,o),
(614,-20,cs)
);
}
);
width = 1200;
},
{
anchors = (
{
name = bottom;
pos = (550,0);
},
{
name = top;
pos = (550,1400);
}
);
associatedMasterId = "63BE41E3-0F49-4E61-A903-F52A2E952C90";
background = {
shapes = (
{
closed = 1;
nodes = (
(610,-32,l),
(764,-32,o),
(914,-2,o),
(1064,48,c),
(1064,820,l),
(578,820,l),
(578,546,l),
(796,546,l),
(796,266,l),
(744,252,o),
(692,242,o),
(638,242,cs),
(454,242,o),
(334,402,o),
(334,722,cs),
(334,978,o),
(412,1204,o),
(600,1204,cs),
(684,1204,o),
(764,1154,o),
(778,1012,c),
(1068,1012,l),
(1068,1100,o),
(1056,1210,o),
(990,1312,cs),
(906,1432,o),
(776,1480,o),
(614,1480,cs),
(480,1480,o),
(306,1444,o),
(188,1288,cs),
(76,1140,o),
(32,898,o),
(32,714,cs),
(32,482,o),
(92,256,o),
(226,118,cs),
(336,-2,o),
(496,-32,o),
(610,-32,c)
);
}
);
};
layerId = "21E2753D-042D-4D19-89C8-430560CC5AF5";
name = "new Layer";
shapes = (
{
closed = 1;
nodes = (
(868,-36,o),
(926,-4,o),
(1064,48,c),
(1064,824,l),
(584,824,l),
(584,544,l),
(796,544,l),
(796,266,l),
(716,236,o),
(724,242,o),
(638,242,cs),
(400,242,o),
(334,484,o),
(334,722,cs),
(334,978,o),
(412,1204,o),
(600,1204,cs),
(690,1204,o),
(758,1140,o),
(774,1054,c),
(1060,1120,l),
(1014,1436,o),
(752,1476,o),
(584,1476,cs),
(226,1476,o),
(36,1162,o),
(36,728,cs),
(36,294,o),
(246,-36,o),
(594,-36,cs)
);
}
);
width = 1200;
},
{
anchors = (
{
name = bottom;
pos = (600,0);
},
{
name = top;
pos = (600,1480);
}
);
hints = (
{
horizontal = 1;
options = 4;
place = (-22, 139);
type = TTStem;
},
{
horizontal = 1;
options = 4;
place = (556, 140);
type = TTStem;
},
{
horizontal = 1;
options = 4;
place = (1470, 133);
type = TTStem;
}
);
layerId = "F48F13AC-C425-4574-8B52-7DBCB7751002";
shapes = (
{
closed = 1;
nodes = (
(698,-23,o),
(826,13,o),
(856,100,c),
(868,100,l),
(868,0,l),
(1112,0,l),
(1112,790,l),
(622,790,l),
(622,534,l),
(854,534,l),
(854,348,o),
(756,244,o),
(637,244,cs),
(470,244,o),
(410,450,o),
(410,725,cs),
(410,950,o),
(450,1164,o),
(643,1164,cs),
(714,1164,o),
(801,1135,o),
(868,1028,c),
(1074,1206,l),
(1006,1335,o),
(862,1470,o),
(626,1470,cs),
(277,1470,o),
(78,1174,o),
(78,719,cs),
(78,242,o),
(296,-23,o),
(590,-23,cs)
);
}
);
width = 1200;
},
{
anchors = (
{
name = bottom;
pos = (596,0);
},
{
name = top;
pos = (576,1464);
}
);
hints = (
{
horizontal = 1;
options = 4;
origin = (0,31);
target = (0,12);
type = TTStem;
},
{
horizontal = 1;
options = 4;
origin = (0,8);
target = (0,7);
type = TTStem;
},
{
horizontal = 1;
options = 4;
origin = (0,25);
target = (0,18);
type = TTStem;
}
);
layerId = "4FB9B80E-81B5-47C9-A539-BB7C5ADDFB58";
shapes = (
{
closed = 1;
nodes = (
(830,-16,o),
(895,77,o),
(934,168,c),
(940,168,l),
(940,0,l),
(1076,0,l),
(1076,750,l),
(550,750,l),
(550,630,l),
(938,630,l),
(938,329,o),
(872,112,o),
(624,112,cs),
(298,112,o),
(274,488,o),
(274,720,cs),
(274,1065,o),
(327,1348,o),
(632,1348,cs),
(751,1348,o),
(868,1305,o),
(950,1182,c),
(1062,1244,l),
(946,1430,o),
(793,1468,o),
(644,1468,cs),
(225,1468,o),
(124,1169,o),
(124,738,cs),
(124,335,o),
(212,-16,o),
(620,-16,cs)
);
}
);
width = 1200;
},
{
anchors = (
{
name = bottom;
pos = (600,0);
},
{
name = top;
pos = (590,1474);
}
);
hints = (
{
horizontal = 1;
options = 4;
origin = (0,31);
target = (0,12);
type = TTStem;
},
{
horizontal = 1;
options = 4;
origin = (0,8);
target = (0,7);
type = TTStem;
},
{
horizontal = 1;
options = 4;
origin = (0,25);
target = (0,18);
type = TTStem;
},
{
horizontal = 1;
origin = (0,31);
target = (0,12);
type = TTStem;
},
{
horizontal = 1;
origin = (0,18);
target = (0,19);
type = TTStem;
},
{
horizontal = 1;
origin = (0,24);
target = (0,25);
type = TTStem;
}
);
layerId = "92EF81BF-A460-40B9-8F71-75F6CAA5A9CA";
shapes = (
{
closed = 1;
nodes = (
(763,-22,o),
(861,34,o),
(902,120,c),
(912,120,l),
(912,0,l),
(1114,0,l),
(1114,774,l),
(612,774,l),
(612,576,l),
(902,576,l),
(902,353,o),
(824,188,o),
(642,188,cs),
(411,188,o),
(360,456,o),
(360,733,cs),
(360,1001,o),
(408,1246,o),
(658,1246,cs),
(734,1246,o),
(832,1224,o),
(910,1092,c),
(1082,1222,l),
(1002,1383,o),
(839,1474,o),
(637,1474,cs),
(268,1474,o),
(106,1172,o),
(106,728,cs),
(106,291,o),
(263,-22,o),
(614,-22,cs)
);
}
);
width = 1200;
}
);
note = G;
unicode = 71;
}
{
glyphname = H;
layers = (
{
anchors = (
{
name = bottom;
pos = (276,0);
},
{
name = bottomright;
pos = (1010,0);
},
{
name = center;
pos = (600,726);
},
{
name = top;
pos = (600,1450);
},
{
name = topleft;
pos = (90,1450);
}
);
hints = (
{
horizontal = 1;
options = 4;
origin = (0,1);
target = (0,8);
type = TTStem;
}
);
layerId = "63BE41E3-0F49-4E61-A903-F52A2E952C90";
shapes = (
{
closed = 1;
nodes = (
(364,0,l),
(364,676,l),
(836,676,l),
(836,0,l),
(1010,0,l),
(1010,1450,l),
(836,1450,l),
(836,834,l),
(364,834,l),
(364,1450,l),
(190,1450,l),
(190,0,l)
);
}
);
width = 1200;
},
{
anchors = (
{
name = bottom;
pos = (550,0);
},
{
name = center;
pos = (550,700);
},
{
name = top;
pos = (550,1400);
},
{
name = topleft;
pos = (40,1400);
}
);
associatedMasterId = "63BE41E3-0F49-4E61-A903-F52A2E952C90";
background = {
shapes = (
{
closed = 1;
nodes = (
(70,0,l),
(368,0,l),
(368,584,l),
(728,584,l),
(728,0,l),
(1030,0,l),
(1030,1444,l),
(728,1444,l),
(728,880,l),
(370,880,l),
(370,1444,l),
(70,1444,l),
(70,0,l)
);
}
);
};
layerId = "21E2753D-042D-4D19-89C8-430560CC5AF5";
name = "new Layer";
shapes = (
{
closed = 1;
nodes = (
(374,0,l),
(374,586,l),
(726,586,l),
(726,0,l),
(1048,0,l),
(1048,1444,l),
(726,1444,l),
(726,880,l),
(374,880,l),
(374,1444,l),
(54,1444,l),
(54,0,l)
);
}
);
width = 1200;
},
{
anchors = (
{
name = bottom;
pos = (600,0);
},
{
name = bottomright;
pos = (1094,0);
},
{
name = center;
pos = (600,726);
},
{
name = top;
pos = (600,1450);
},
{
name = topleft;
pos = (90,1450);
}
);
hints = (
{
horizontal = 1;
options = 4;
origin = (0,11);
stem = -1;
type = TTSnap;
},
{
horizontal = 1;
options = 4;
origin = (0,1);
target = (0,8);
type = TTStem;
}
);
layerId = "F48F13AC-C425-4574-8B52-7DBCB7751002";
shapes = (
{
closed = 1;
nodes = (
(442,0,l),
(442,612,l),
(758,612,l),
(758,0,l),
(1094,0,l),
(1094,1450,l),
(758,1450,l),
(758,906,l),
(442,906,l),
(442,1450,l),
(108,1450,l),
(108,0,l)
);
}
);
width = 1200;
},
{
anchors = (
{
name = bottom;
pos = (222,0);
},
{
name = bottomright;
pos = (1000,0);
},
{
name = center;
pos = (600,726);
},
{
name = top;
pos = (600,1450);
},
{
name = topleft;
pos = (90,1450);
}
);
hints = (
{
horizontal = 1;
options = 4;
origin = (0,1);
target = (0,8);
type = TTStem;
}
);
layerId = "4FB9B80E-81B5-47C9-A539-BB7C5ADDFB58";
shapes = (
{
closed = 1;
nodes = (
(348,0,l),
(348,678,l),
(852,678,l),
(852,0,l),
(1000,0,l),
(1000,1450,l),
(852,1450,l),
(852,820,l),
(348,820,l),
(348,1450,l),
(200,1450,l),
(200,0,l)
);
}
);
width = 1200;
},
{
anchors = (
{
name = bottom;
pos = (438,0);
},
{
name = bottomright;
pos = (1054,0);
},
{
name = center;
pos = (600,726);
},
{
name = top;
pos = (600,1450);
},
{
name = topleft;
pos = (90,1450);
}
);
hints = (
{
horizontal = 1;
options = 4;
origin = (0,1);
target = (0,8);
type = TTStem;
}
);
layerId = "92EF81BF-A460-40B9-8F71-75F6CAA5A9CA";
shapes = (
{
closed = 1;
nodes = (
(404,0,l),
(404,644,l),
(798,644,l),
(798,0,l),
(1054,0,l),
(1054,1450,l),
(798,1450,l),
(798,870,l),
(404,870,l),
(404,1450,l),
(148,1450,l),
(148,0,l)
);
}
);
width = 1200;
}
);
note = H;
unicode = 72;
}
{
glyphname = I;
layers = (
{
anchors = (
{
name = bottom;
pos = (600,0);
},
{
name = ogonek;
pos = (600,0);
},
{
name = top;
pos = (600,1450);
},
{
name = topleft;
pos = (224,1450);
}
);
hints = (
{
horizontal = 1;
options = 4;
origin = (0,11);
target = (0,10);
type = TTStem;
},
{
horizontal = 1;
options = 4;
origin = (0,6);
target = (0,7);
type = TTStem;
},
{
horizontal = 1;
origin = (0,0);
target = (0,1);
type = TTStem;
},
{
horizontal = 1;
origin = (0,5);
target = (0,4);
type = TTStem;
},
{
options = 4;
origin = (0,8);
target = (0,3);
type = TTStem;
},
{
horizontal = 1;
options = 4;
origin = (0,1);
target = (0,0);
type = TTStem;
}
);
layerId = "63BE41E3-0F49-4E61-A903-F52A2E952C90";
shapes = (
{
closed = 1;
nodes = (
(974,0,l),
(974,140,l),
(690,140,l),
(690,1310,l),
(936,1310,l),
(936,1450,l),
(262,1450,l),
(262,1310,l),
(514,1310,l),
(514,140,l),
(224,140,l),
(224,0,l)
);
}
);
width = 1200;
},
{
anchors = (
{
name = bottom;
pos = (550,0);
},
{
name = ogonek;
pos = (990,20);
},
{
name = top;
pos = (550,1400);
},
{
name = topleft;
pos = (40,1400);
}
);
associatedMasterId = "63BE41E3-0F49-4E61-A903-F52A2E952C90";
background = {
shapes = (
{
closed = 1;
nodes = (
(344,0,l),
(756,0,l),
(756,1444,l),
(344,1444,l),
(344,0,l)
);
}
);
};
layerId = "21E2753D-042D-4D19-89C8-430560CC5AF5";
name = "new Layer";
shapes = (
{
closed = 1;
nodes = (
(924,0,l),
(924,236,l),
(738,236,l),
(738,1214,l),
(924,1214,l),
(924,1450,l),
(174,1450,l),
(174,1214,l),
(364,1214,l),
(364,236,l),
(174,236,l),
(174,0,l)
);
}
);
width = 1200;
},
{
anchors = (
{
name = bottom;
pos = (600,0);
},
{
name = ogonek;
pos = (600,0);
},
{
name = top;
pos = (600,1454);
},
{
name = topleft;
pos = (224,1450);
}
);
background = {
shapes = (
{
closed = 1;
nodes = (
(344,0,l),
(756,0,l),
(756,1444,l),
(344,1444,l),
(344,0,l)
);
}
);
};
hints = (
{
horizontal = 1;
options = 4;
origin = (0,11);
target = (0,10);
type = TTStem;
},
{
horizontal = 1;
options = 4;
origin = (0,6);
target = (0,7);
type = TTStem;
}
);
layerId = "F48F13AC-C425-4574-8B52-7DBCB7751002";
shapes = (
{
closed = 1;
nodes = (
(952,0,l),
(952,272,l),
(768,272,l),
(768,1176,l),
(952,1176,l),
(952,1450,l),
(246,1450,l),
(246,1176,l),
(434,1176,l),
(434,272,l),
(244,272,l),
(244,0,l)
);
}
);
width = 1200;
},
{
anchors = (
{
name = bottom;
pos = (598,0);
},
{
name = ogonek;
pos = (598,0);
},
{
name = top;
pos = (598,1450);
},
{
name = topleft;
pos = (222,1450);
}
);
hints = (
{
horizontal = 1;
options = 4;
origin = (0,11);
target = (0,10);
type = TTStem;
},
{
horizontal = 1;
options = 4;
origin = (0,6);
target = (0,7);
type = TTStem;
}
);
layerId = "4FB9B80E-81B5-47C9-A539-BB7C5ADDFB58";
shapes = (
{
closed = 1;
nodes = (
(982,0,l),
(982,118,l),
(674,118,l),
(674,1332,l),
(938,1332,l),
(938,1450,l),
(262,1450,l),
(262,1332,l),
(526,1332,l),
(526,118,l),
(218,118,l),
(218,0,l)
);
}
);
width = 1200;
},
{
anchors = (
{
name = bottom;
pos = (600,0);
},
{
name = ogonek;
pos = (600,0);
},
{
name = top;
pos = (600,1452);
},
{
name = topleft;
pos = (224,1450);
}
);
hints = (
{
horizontal = 1;
options = 4;
origin = (0,11);
target = (0,10);
type = TTStem;
},
{
horizontal = 1;
options = 4;
origin = (0,6);
target = (0,7);
type = TTStem;
},
{
horizontal = 1;
origin = (0,0);
target = (0,1);
type = TTStem;
},
{
horizontal = 1;
origin = (0,5);
target = (0,4);
type = TTStem;
},
{
options = 4;
origin = (0,8);
target = (0,3);
type = TTStem;
},
{
horizontal = 1;
options = 4;
origin = (0,1);
target = (0,0);
type = TTStem;
}
);
layerId = "92EF81BF-A460-40B9-8F71-75F6CAA5A9CA";
shapes = (
{
closed = 1;
nodes = (
(964,0,l),
(964,206,l),
(730,206,l),
(730,1244,l),
(944,1244,l),
(944,1450,l),
(254,1450,l),
(254,1244,l),
(474,1244,l),
(474,206,l),
(234,206,l),
(234,0,l)
);
}
);
width = 1200;
}
);
note = I;
unicode = 73;
}
{
glyphname = J;
layers = (
{
anchors = (
{
name = bottom;
pos = (583,-20);
},
{
name = top;
pos = (598,1450);
}
);
hints = (
{
horizontal = 1;
options = 4;
origin = (0,17);
target = (0,10);
type = TTStem;
},
{
horizontal = 1;
options = 4;
origin = (0,4);
target = (0,5);
type = TTStem;
},
{
horizontal = 1;
origin = (0,17);
target = (0,10);
type = TTStem;
},
{
horizontal = 1;
origin = (0,10);
target = (0,17);
type = TTStem;
},
{
horizontal = 1;
origin = (0,14);
type = TTSnap;
},
{
horizontal = 1;
origin = (0,4);
target = (0,5);
type = TTStem;
}
);
layerId = "63BE41E3-0F49-4E61-A903-F52A2E952C90";
shapes = (
{
closed = 1;
nodes = (
(850,-20,o),
(990,128,o),
(990,434,cs),
(990,1450,l),
(252,1450,l),
(252,1288,l),
(816,1288,l),
(816,438,ls),
(816,230,o),
(724,128,o),
(574,128,cs),
(432,128,o),
(330,230,o),
(330,392,c),
(144,392,l),
(144,128,o),
(328,-20,o),
(570,-20,cs)
);
}
);
width = 1200;
},
{
anchors = (
{
name = bottom;
pos = (548,0);
},
{
name = top;
pos = (548,1400);
}
);
associatedMasterId = "63BE41E3-0F49-4E61-A903-F52A2E952C90";
background = {
shapes = (
{
closed = 1;
nodes = (
(540,-32,l),
(689,-32,o),
(873,4,o),
(994,140,cs),
(1080,241,o),
(1092,408,o),
(1092,488,cs),
(1092,1444,l),
(686,1444,l),
(686,474,ls),
(686,374,o),
(675,258,o),
(540,258,cs),
(415,258,o),
(406,375,o),
(406,462,c),
(8,462,l),
(8,375,o),
(12,258,o),
(74,164,cs),
(178,14,o),
(365,-32,o),
(540,-32,c)
);
}
);
};
layerId = "21E2753D-042D-4D19-89C8-430560CC5AF5";
name = "new Layer";
shapes = (
{
closed = 1;
nodes = (
(924,-36,o),
(1026,180,o),
(1026,434,cs),
(1026,1450,l),
(168,1450,l),
(168,1208,l),
(708,1208,l),
(708,474,ls),
(708,374,o),
(696,232,o),
(506,232,cs),
(386,232,o),
(298,334,o),
(298,462,c),
(10,462,l),
(10,150,o),
(238,-36,o),
(506,-36,cs)
);
}
);
width = 1200;
},
{
anchors = (
{
name = bottom;
pos = (584,-18);
},
{
name = top;
pos = (610,1450);
}
);
hints = (
{
horizontal = 1;
options = 4;
origin = (0,17);
target = (0,10);
type = TTStem;
},
{
horizontal = 1;
options = 4;
origin = (0,4);
target = (0,5);
type = TTStem;
}
);
layerId = "F48F13AC-C425-4574-8B52-7DBCB7751002";
shapes = (
{
closed = 1;
nodes = (
(890,-18,o),
(1090,174,o),
(1090,498,cs),
(1090,1450,l),
(218,1450,l),
(218,1188,l),
(774,1188,l),
(774,498,ls),
(774,398,o),
(740,260,o),
(578,260,cs),
(460,260,o),
(366,362,o),
(366,490,c),
(72,490,l),
(72,178,o),
(278,-18,o),
(584,-18,cs)
);
}
);
width = 1200;
},
{
anchors = (
{
name = bottom;
pos = (604,-20);
},
{
name = top;
pos = (612,1450);
}
);
hints = (
{
horizontal = 1;
options = 4;
origin = (0,17);
target = (0,10);
type = TTStem;
},
{
horizontal = 1;
options = 4;
origin = (0,4);
target = (0,5);
type = TTStem;
}
);
layerId = "4FB9B80E-81B5-47C9-A539-BB7C5ADDFB58";
shapes = (
{
closed = 1;
nodes = (
(878,-20,o),
(1006,120,o),
(1006,424,cs),
(1006,1450,l),
(294,1450,l),
(294,1308,l),
(858,1308,l),
(858,428,ls),
(858,202,o),
(752,106,o),
(608,106,cs),
(464,106,o),
(356,208,o),
(356,376,c),
(194,376,l),
(194,120,o),
(374,-20,o),
(604,-20,cs)
);
}
);
width = 1200;
},
{
anchors = (
{
name = bottom;
pos = (600,-19);
},
{
name = top;
pos = (624,1450);
}
);
hints = (
{
horizontal = 1;
options = 4;
origin = (0,17);
target = (0,10);
type = TTStem;
},
{
horizontal = 1;
options = 4;
origin = (0,4);
target = (0,5);
type = TTStem;
},
{
horizontal = 1;
origin = (0,17);
target = (0,10);
type = TTStem;
},
{
horizontal = 1;
origin = (0,10);
target = (0,17);
type = TTStem;
},
{
horizontal = 1;
origin = (0,14);
type = TTSnap;
},
{
horizontal = 1;
origin = (0,4);
target = (0,5);
type = TTStem;
}
);
layerId = "92EF81BF-A460-40B9-8F71-75F6CAA5A9CA";
shapes = (
{
closed = 1;
nodes = (
(888,-20,o),
(1060,152,o),
(1060,466,cs),
(1060,1450,l),
(244,1450,l),
(244,1238,l),
(812,1238,l),
(812,468,ls),
(812,314,o),
(748,194,o),
(590,194,cs),
(458,194,o),
(358,296,o),
(358,442,c),
(114,442,l),
(114,154,o),
(312,-20,o),
(590,-20,cs)
);
}
);
width = 1200;
}
);
note = J;
unicode = 74;
}
{
glyphname = K;
layers = (
{
anchors = (
{
name = bottom;
pos = (600,0);
},
{
name = top;
pos = (600,1450);
}
);
hints = (
{
options = 4;
origin = (1,2);
target = (1,1);
type = TTStem;
}
);
layerId = "63BE41E3-0F49-4E61-A903-F52A2E952C90";
shapes = (
{
closed = 1;
nodes = (
(1146,0,l),
(550,798,l),
(1084,1452,l),
(870,1452,l),
(358,786,l),
(926,0,l)
);
},
{
closed = 1;
nodes = (
(366,0,l),
(366,1452,l),
(192,1452,l),
(192,0,l)
);
}
);
width = 1200;
},
{
anchors = (
{
name = bottom;
pos = (550,0);
},
{
name = top;
pos = (550,1400);
}
);
associatedMasterId = "63BE41E3-0F49-4E61-A903-F52A2E952C90";
background = {
shapes = (
{
closed = 1;
nodes = (
(56,0,l),
(346,0,l),
(346,768,l),
(690,0,l),
(1044,0,l),
(660,808,l),
(1016,1444,l),
(678,1444,l),
(346,810,l),
(346,1444,l),
(56,1444,l),
(56,0,l)
);
}
);
};
layerId = "21E2753D-042D-4D19-89C8-430560CC5AF5";
name = "new Layer";
shapes = (
{
closed = 1;
nodes = (
(1040,0,l),
(660,808,l),
(1004,1450,l),
(686,1450,l),
(340,786,l),
(690,0,l)
);
},
{
closed = 1;
nodes = (
(348,0,l),
(348,1450,l),
(52,1450,l),
(52,0,l)
);
}
);
width = 1200;
},
{
anchors = (
{
name = bottom;
pos = (600,0);
},
{
name = top;
pos = (600,1450);
}
);
hints = (
{
horizontal = 1;
options = 4;
origin = (1,3);
stem = -1;
type = TTSnap;
},
{
horizontal = 1;
options = 4;
origin = (1,2);
stem = -1;
type = TTSnap;
}
);
layerId = "F48F13AC-C425-4574-8B52-7DBCB7751002";
shapes = (
{
closed = 1;
nodes = (
(1174,0,l),
(784,798,l),
(1138,1450,l),
(790,1450,l),
(418,798,l),
(794,0,l)
);
},
{
closed = 1;
nodes = (
(480,0,l),
(480,1450,l),
(150,1450,l),
(150,0,l)
);
}
);
width = 1200;
},
{
anchors = (
{
name = bottom;
pos = (560,0);
},
{
name = top;
pos = (560,1450);
}
);
hints = (
{
horizontal = 1;
options = 4;
origin = (1,3);
stem = -1;
type = TTSnap;
},
{
horizontal = 1;
options = 4;
origin = (1,2);
stem = -1;
type = TTSnap;
}
);
layerId = "4FB9B80E-81B5-47C9-A539-BB7C5ADDFB58";
shapes = (
{
closed = 1;
nodes = (
(1070,0,l),
(440,798,l),
(1004,1450,l),
(812,1450,l),
(276,784,l),
(876,0,l)
);
},
{
closed = 1;
nodes = (
(276,0,l),
(276,1450,l),
(130,1450,l),
(130,0,l)
);
}
);
width = 1200;
},
{
anchors = (
{
name = bottom;
pos = (600,0);
},
{
name = top;
pos = (600,1450);
}
);
hints = (
{
options = 4;
origin = (1,2);
target = (1,1);
type = TTStem;
}
);
layerId = "92EF81BF-A460-40B9-8F71-75F6CAA5A9CA";
shapes = (
{
closed = 1;
nodes = (
(1172,0,l),
(678,798,l),
(1122,1452,l),
(842,1452,l),
(400,792,l),
(872,0,l)
);
},
{
closed = 1;
nodes = (
(434,0,l),
(434,1452,l),
(182,1452,l),
(182,0,l)
);
}
);
width = 1200;
}
);
note = K;
unicode = 75;
}
{
glyphname = L;
layers = (
{
anchors = (
{
name = bottom;
pos = (618,-38);
},
{
name = center;
pos = (600,726);
},
{
name = top;
pos = (600,1454);
},
{
name = topright;
pos = (1044,1454);
}
);
hints = (
{
horizontal = 1;
options = 4;
origin = (0,5);
target = (0,2);
type = TTStem;
},
{
horizontal = 1;
options = 4;
origin = (0,4);
type = TTSnap;
},
{
options = 4;
origin = (0,5);
target = (0,2);
type = TTStem;
},
{
horizontal = 1;
options = 4;
origin = (0,0);
target = (0,1);
type = TTStem;
},
{
options = 4;
origin = (0,4);
target = (0,3);
type = TTStem;
}
);
layerId = "63BE41E3-0F49-4E61-A903-F52A2E952C90";
shapes = (
{
closed = 1;
nodes = (
(1076,0,l),
(1076,146,l),
(366,146,l),
(366,1454,l),
(190,1454,l),
(190,0,l)
);
}
);
width = 1200;
},
{
anchors = (
{
name = bottom;
pos = (550,0);
},
{
name = center;
pos = (550,700);
},
{
name = top;
pos = (550,1400);
},
{
name = topright;
pos = (1060,1400);
}
);
associatedMasterId = "63BE41E3-0F49-4E61-A903-F52A2E952C90";
background = {
shapes = (
{
closed = 1;
nodes = (
(70,0,l),
(1032,0,l),
(1032,284,l),
(440,284,l),
(440,1444,l),
(70,1444,l),
(70,0,l)
);
}
);
};
layerId = "21E2753D-042D-4D19-89C8-430560CC5AF5";
name = "new Layer";
shapes = (
{
closed = 1;
nodes = (
(1026,0,l),
(1032,284,l),
(442,284,l),
(436,1450,l),
(76,1450,l),
(76,0,l)
);
}
);
width = 1200;
},
{
anchors = (
{
name = bottom;
pos = (600,0);
},
{
name = center;
pos = (600,726);
},
{
name = top;
pos = (600,1450);
},
{
name = topright;
pos = (1110,1450);
}
);
background = {
shapes = (
{
closed = 1;
nodes = (
(70,0,l),
(1032,0,l),
(1032,284,l),
(440,284,l),
(440,1444,l),
(70,1444,l),
(70,0,l)
);
}
);
};
hints = (
{
horizontal = 1;
options = 4;
origin = (0,5);
target = (0,2);
type = TTStem;
},
{
horizontal = 1;
options = 4;
origin = (0,0);
target = (0,1);
type = TTStem;
}
);
layerId = "F48F13AC-C425-4574-8B52-7DBCB7751002";
shapes = (
{
closed = 1;
nodes = (
(1092,0,l),
(1092,296,l),
(456,296,l),
(456,1450,l),
(114,1450,l),
(114,0,l)
);
}
);
width = 1200;
},
{
anchors = (
{
name = bottom;
pos = (585,-44);
},
{
name = center;
pos = (563,726);
},
{
name = top;
pos = (563,1454);
},
{
name = topright;
pos = (997,1454);
}
);
hints = (
{
horizontal = 1;
options = 4;
origin = (0,5);
target = (0,2);
type = TTStem;
}
);
layerId = "4FB9B80E-81B5-47C9-A539-BB7C5ADDFB58";
shapes = (
{
closed = 1;
nodes = (
(1035,0,l),
(1035,124,l),
(313,124,l),
(313,1450,l),
(165,1450,l),
(165,0,l)
);
}
);
width = 1200;
},
{
anchors = (
{
name = bottom;
pos = (610,-20);
},
{
name = center;
pos = (600,726);
},
{
name = top;
pos = (600,1452);
},
{
name = topright;
pos = (1078,1452);
}
);
hints = (
{
horizontal = 1;
options = 4;
origin = (0,5);
target = (0,2);
type = TTStem;
},
{
horizontal = 1;
options = 4;
origin = (0,4);
type = TTSnap;
},
{
options = 4;
origin = (0,5);
target = (0,2);
type = TTStem;
},
{
horizontal = 1;
options = 4;
origin = (0,0);
target = (0,1);
type = TTStem;
},
{
options = 4;
origin = (0,4);
target = (0,3);
type = TTStem;
}
);
layerId = "92EF81BF-A460-40B9-8F71-75F6CAA5A9CA";
shapes = (
{
closed = 1;
nodes = (
(1086,0,l),
(1086,222,l),
(414,222,l),
(414,1452,l),
(154,1452,l),
(154,0,l)
);
}
);
width = 1200;
}
);
note = L;
unicode = 76;
}
{
glyphname = M;
layers = (
{
anchors = (
{
name = bottom;
pos = (600,0);
},
{
name = bottomright;
pos = (1078,0);
},
{
name = top;
pos = (600,1450);
}
);
hints = (
{
horizontal = 1;
options = 4;
origin = (0,16);
target = (0,1);
type = TTStem;
},
{
options = 4;
origin = (0,17);
target = (0,0);
type = TTStem;
},
{
options = 4;
origin = (0,9);
target = (0,10);
type = TTStem;
},
{
options = 1;
origin = (0,4);
type = TTSnap;
},
{
options = 1;
origin = (0,3);
type = TTSnap;
},
{
options = 1;
origin = (0,16);
type = TTSnap;
}
);
layerId = "63BE41E3-0F49-4E61-A903-F52A2E952C90";
shapes = (
{
closed = 1;
nodes = (
(294,0,l),
(294,1264,l),
(231,1301,l),
(307,1195,l),
(526,400,l),
(672,400,l),
(893,1195,l),
(971,1301,l),
(906,1264,l),
(906,0,l),
(1078,0,l),
(1078,1450,l),
(786,1450,l),
(584,568,l),
(614,568,l),
(412,1450,l),
(122,1450,l),
(122,0,l)
);
}
);
width = 1200;
},
{
anchors = (
{
name = bottom;
pos = (550,0);
},
{
name = top;
pos = (550,1400);
}
);
associatedMasterId = "63BE41E3-0F49-4E61-A903-F52A2E952C90";
background = {
shapes = (
{
closed = 1;
nodes = (
(28,0,l),
(238,0,l),
(232,1222,l),
(430,0,l),
(648,0,l),
(854,1212,l),
(844,0,l),
(1072,0,l),
(1070,1446,l),
(692,1444,l),
(554,466,l),
(408,1444,l),
(28,1444,l),
(28,0,l)
);
}
);
};
layerId = "21E2753D-042D-4D19-89C8-430560CC5AF5";
name = "new Layer";
shapes = (
{
closed = 1;
nodes = (
(290,0,l),
(290,838,l),
(280,800,l),
(294,764,l),
(424,96,l),
(674,96,l),
(810,764,l),
(824,800,l),
(806,838,l),
(806,0,l),
(1072,0,l),
(1072,1450,l),
(692,1450,l),
(530,348,l),
(568,348,l),
(406,1450,l),
(28,1450,l),
(28,0,l)
);
}
);
width = 1200;
},
{
anchors = (
{
name = bottom;
pos = (600,0);
},
{
name = bottomright;
pos = (1092,0);
},
{
name = top;
pos = (600,1450);
}
);
hints = (
{
horizontal = 1;
options = 4;
origin = (0,17);
stem = -1;
type = TTSnap;
},
{
horizontal = 1;
options = 4;
origin = (0,16);
stem = -1;
type = TTSnap;
}
);
layerId = "F48F13AC-C425-4574-8B52-7DBCB7751002";
shapes = (
{
closed = 1;
nodes = (
(424,0,l),
(424,762,l),
(422,788,l),
(438,773,l),
(539,386,l),
(661,386,l),
(762,773,l),
(777,788,l),
(772,762,l),
(772,0,l),
(1100,0,l),
(1100,1450,l),
(766,1450,l),
(584,882,l),
(612,882,l),
(432,1450,l),
(98,1450,l),
(98,0,l)
);
}
);
width = 1200;
},
{
anchors = (
{
name = bottom;
pos = (599,0);
},
{
name = bottomright;
pos = (1079,0);
},
{
name = top;
pos = (599,1450);
}
);
layerId = "4FB9B80E-81B5-47C9-A539-BB7C5ADDFB58";
shapes = (
{
closed = 1;
nodes = (
(269,0,l),
(269,1338,l),
(246,1310,l),
(276,1293,l),
(509,410,l),
(691,410,l),
(921,1293,l),
(954,1310,l),
(931,1338,l),
(931,0,l),
(1079,0,l),
(1079,1450,l),
(817,1450,l),
(585,486,l),
(613,486,l),
(379,1450,l),
(121,1450,l),
(121,0,l)
);
}
);
width = 1200;
},
{
anchors = (
{
name = bottom;
pos = (600,0);
},
{
name = bottomright;
pos = (1082,0);
},
{
name = top;
pos = (600,1450);
}
);
hints = (
{
horizontal = 1;
options = 4;
origin = (0,16);
target = (0,1);
type = TTStem;
},
{
options = 4;
origin = (0,17);
target = (0,0);
type = TTStem;
},
{
options = 4;
origin = (0,9);
target = (0,10);
type = TTStem;
},
{
options = 1;
origin = (0,4);
type = TTSnap;
},
{
options = 1;
origin = (0,3);
type = TTSnap;
},
{
options = 1;
origin = (0,16);
type = TTSnap;
}
);
layerId = "92EF81BF-A460-40B9-8F71-75F6CAA5A9CA";
shapes = (
{
closed = 1;
nodes = (
(360,0,l),
(360,1003,l),
(369,984,l),
(375,958,l),
(540,376,l),
(660,376,l),
(827,958,l),
(831,984,l),
(838,1003,l),
(838,0,l),
(1082,0,l),
(1082,1450,l),
(758,1450,l),
(584,804,l),
(614,804,l),
(442,1450,l),
(118,1450,l),
(118,0,l)
);
}
);
width = 1200;
}
);
note = M;
unicode = 77;
}
{
glyphname = N;
layers = (
{
anchors = (
{
name = bottom;
pos = (600,0);
},
{
name = top;
pos = (600,1446);
}
);
hints = (
{
horizontal = 1;
options = 4;
origin = (0,9);
stem = -1;
type = TTSnap;
},
{
horizontal = 1;
options = 4;
origin = (0,9);
target = (0,1);
type = TTStem;
},
{
horizontal = 1;
options = 4;
origin = (0,10);
target = (0,6);
type = TTStem;
}
);
layerId = "63BE41E3-0F49-4E61-A903-F52A2E952C90";
shapes = (
{
closed = 1;
nodes = (
(350,0,l),
(350,1192,l),
(770,0,l),
(1010,0,l),
(1010,1450,l),
(834,1450,l),
(834,234,l),
(750,486,l),
(428,1450,l),
(178,1450,l),
(178,0,l)
);
}
);
width = 1200;
},
{
anchors = (
{
name = bottom;
pos = (550,0);
},
{
name = top;
pos = (550,1400);
}
);
associatedMasterId = "63BE41E3-0F49-4E61-A903-F52A2E952C90";
background = {
shapes = (
{
closed = 1;
nodes = (
(68,0,l),
(314,0,l),
(310,1122,l),
(658,0,l),
(1032,0,l),
(1032,1444,l),
(790,1444,l),
(792,368,l),
(452,1444,l),
(68,1444,l),
(68,0,l)
);
}
);
};
layerId = "21E2753D-042D-4D19-89C8-430560CC5AF5";
name = "new Layer";
shapes = (
{
closed = 1;
nodes = (
(314,0,l),
(314,1044,l),
(670,0,l),
(1046,0,l),
(1046,1450,l),
(784,1450,l),
(784,422,l),
(444,1450,l),
(52,1450,l),
(52,0,l)
);
}
);
width = 1200;
},
{
anchors = (
{
name = bottom;
pos = (600,0);
},
{
name = top;
pos = (600,1452);
}
);
hints = (
{
horizontal = 1;
options = 4;
origin = (0,10);
stem = -1;
type = TTSnap;
},
{
horizontal = 1;
options = 4;
origin = (0,9);
stem = -1;
type = TTSnap;
}
);
layerId = "F48F13AC-C425-4574-8B52-7DBCB7751002";
shapes = (
{
closed = 1;
nodes = (
(426,0,l),
(426,788,l),
(732,0,l),
(1100,0,l),
(1100,1450,l),
(776,1450,l),
(776,650,l),
(746,748,l),
(500,1450,l),
(102,1450,l),
(102,0,l)
);
}
);
width = 1200;
},
{
anchors = (
{
name = bottom;
pos = (609,0);
},
{
name = top;
pos = (609,1452);
}
);
hints = (
{
horizontal = 1;
options = 4;
origin = (0,10);
stem = -1;
type = TTSnap;
},
{
horizontal = 1;
options = 4;
origin = (0,9);
stem = -1;
type = TTSnap;
},
{
horizontal = 1;
options = 4;
origin = (0,9);
target = (0,1);
type = TTStem;
},
{
horizontal = 1;
options = 4;
origin = (0,10);
target = (0,6);
type = TTStem;
}
);
layerId = "4FB9B80E-81B5-47C9-A539-BB7C5ADDFB58";
shapes = (
{
closed = 1;
nodes = (
(347,0,l),
(347,1264,l),
(789,0,l),
(1001,0,l),
(1001,1450,l),
(853,1450,l),
(853,164,l),
(759,442,l),
(425,1450,l),
(199,1450,l),
(199,0,l)
);
}
);
width = 1200;
},
{
anchors = (
{
name = bottom;
pos = (600,0);
},
{
name = top;
pos = (600,1450);
}
);
hints = (
{
horizontal = 1;
options = 4;
origin = (0,9);
stem = -1;
type = TTSnap;
},
{
horizontal = 1;
options = 4;
origin = (0,9);
target = (0,1);
type = TTStem;
},
{
horizontal = 1;
options = 4;
origin = (0,10);
target = (0,6);
type = TTStem;
}
);
layerId = "92EF81BF-A460-40B9-8F71-75F6CAA5A9CA";
shapes = (
{
closed = 1;
nodes = (
(388,0,l),
(388,990,l),
(752,0,l),
(1056,0,l),
(1056,1450,l),
(806,1450,l),
(806,442,l),
(748,618,l),
(464,1450,l),
(140,1450,l),
(140,0,l)
);
}
);
width = 1200;
}
);
note = N;
unicode = 78;
}
{
glyphname = O;
layers = (
{
anchors = (
{
name = bottom;
pos = (600,-16);
},
{
name = center;
pos = (600,726);
},
{
name = ogonek;
pos = (600,-8);
},
{
name = top;
pos = (600,1450);
},
{
name = topleft;
pos = (90,1450);
},
{
name = topright;
pos = (852,1388);
}
);
hints = (
{
horizontal = 1;
options = 4;
origin = (0,11);
target = (1,11);
type = TTStem;
},
{
horizontal = 1;
options = 4;
origin = (0,5);
target = (1,5);
type = TTStem;
},
{
options = 4;
origin = (0,8);
target = (1,2);
type = TTStem;
},
{
options = 4;
origin = (1,8);
target = (0,2);
type = TTStem;
}
);
layerId = "63BE41E3-0F49-4E61-A903-F52A2E952C90";
shapes = (
{
closed = 1;
nodes = (
(970,-24,o),
(1132,320,o),
(1132,750,cs),
(1132,1180,o),
(936,1470,o),
(600,1470,cs),
(264,1470,o),
(64,1180,o),
(64,750,cs),
(64,320,o),
(230,-24,o),
(600,-24,cs)
);
},
{
closed = 1;
nodes = (
(376,144,o),
(258,400,o),
(258,740,cs),
(258,1064,o),
(406,1314,o),
(596,1314,cs),
(786,1314,o),
(938,1064,o),
(938,740,cs),
(938,400,o),
(812,144,o),
(594,144,cs)
);
}
);
width = 1200;
},
{
anchors = (
{
name = bottom;
pos = (550,0);
},
{
name = center;
pos = (550,700);
},
{
name = ogonek;
pos = (990,20);
},
{
name = top;
pos = (550,1400);
},
{
name = topleft;
pos = (40,1400);
},
{
name = topright;
pos = (1060,1400);
}
);
associatedMasterId = "63BE41E3-0F49-4E61-A903-F52A2E952C90";
background = {
shapes = (
{
closed = 1;
nodes = (
(548,-34,l),
(664,-34,o),
(794,10,o),
(892,126,cs),
(992,242,o),
(1062,430,o),
(1062,718,cs),
(1062,894,o),
(1036,1086,o),
(960,1234,cs),
(882,1382,o),
(758,1484,o),
(560,1484,cs),
(464,1484,o),
(290,1454,o),
(176,1284,cs),
(58,1114,o),
(38,854,o),
(38,716,cs),
(38,446,o),
(100,260,o),
(194,140,cs),
(290,20,o),
(416,-34,o),
(548,-34,c)
);
},
{
closed = 1;
nodes = (
(550,260,l),
(374,260,o),
(322,472,o),
(322,718,cs),
(322,972,o),
(374,1194,o),
(552,1194,cs),
(612,1194,o),
(676,1170,o),
(716,1090,cs),
(754,1006,o),
(778,904,o),
(778,724,cs),
(778,494,o),
(734,260,o),
(550,260,c)
);
}
);
};
layerId = "21E2753D-042D-4D19-89C8-430560CC5AF5";
name = "new Layer";
shapes = (
{
closed = 1;
nodes = (
(964,-24,o),
(1044,278,o),
(1044,728,cs),
(1044,1206,o),
(950,1462,o),
(558,1462,c),
(190,1462,o),
(50,1206,o),
(50,728,cs),
(50,278,o),
(164,-24,o),
(542,-24,cs)
);
},
{
closed = 1;
nodes = (
(354,260,o),
(318,456,o),
(318,726,cs),
(318,980,o),
(358,1176,o),
(546,1176,cs),
(754,1176,o),
(778,966,o),
(778,726,cs),
(778,456,o),
(766,260,o),
(546,260,cs)
);
}
);
width = 1200;
},
{
anchors = (
{
name = bottom;
pos = (598,-16);
},
{
name = center;
pos = (600,726);
},
{
name = ogonek;
pos = (590,-12);
},
{
name = top;
pos = (600,1450);
},
{
name = topleft;
pos = (90,1450);
},
{
name = topright;
pos = (914,1368);
}
);
hints = (
{
horizontal = 1;
options = 4;
origin = (0,11);
target = (1,11);
type = TTStem;
},
{
horizontal = 1;
options = 4;
origin = (0,5);
target = (1,5);
type = TTStem;
}
);
layerId = "F48F13AC-C425-4574-8B52-7DBCB7751002";
shapes = (
{
closed = 1;
nodes = (
(990,-34,o),
(1140,290,o),
(1140,758,cs),
(1140,1226,o),
(926,1470,o),
(600,1470,cs),
(274,1470,o),
(62,1206,o),
(62,748,cs),
(62,290,o),
(210,-34,o),
(600,-34,cs)
);
},
{
closed = 1;
nodes = (
(412,250,o),
(388,498,o),
(388,726,cs),
(388,1014,o),
(432,1184,o),
(608,1184,cs),
(782,1184,o),
(816,976,o),
(816,736,cs),
(816,480,o),
(792,250,o),
(602,250,cs)
);
}
);
width = 1200;
},
{
anchors = (
{
name = bottom;
pos = (602,-16);
},
{
name = center;
pos = (602,726);
},
{
name = ogonek;
pos = (604,-8);
},
{
name = top;
pos = (602,1466);
},
{
name = topleft;
pos = (92,1450);
},
{
name = topright;
pos = (844,1392);
}
);
hints = (
{
horizontal = 1;
options = 4;
origin = (0,11);
target = (1,11);
type = TTStem;
},
{
horizontal = 1;
options = 4;
origin = (0,5);
target = (1,5);
type = TTStem;
}
);
layerId = "4FB9B80E-81B5-47C9-A539-BB7C5ADDFB58";
shapes = (
{
closed = 1;
nodes = (
(966,-22,o),
(1132,328,o),
(1132,748,cs),
(1132,1170,o),
(936,1470,o),
(602,1470,cs),
(262,1470,o),
(68,1174,o),
(68,750,cs),
(68,328,o),
(234,-22,o),
(602,-22,cs)
);
},
{
closed = 1;
nodes = (
(380,112,o),
(240,386,o),
(240,742,cs),
(240,1070,o),
(408,1336,o),
(602,1336,cs),
(790,1336,o),
(960,1076,o),
(960,740,cs),
(960,390,o),
(822,112,o),
(594,112,cs)
);
}
);
width = 1200;
},
{
anchors = (
{
name = bottom;
pos = (600,-16);
},
{
name = center;
pos = (600,726);
},
{
name = ogonek;
pos = (596,-10);
},
{
name = top;
pos = (600,1450);
},
{
name = topleft;
pos = (90,1450);
},
{
name = topright;
pos = (884,1378);
}
);
hints = (
{
horizontal = 1;
options = 4;
origin = (0,11);
target = (1,11);
type = TTStem;
},
{
horizontal = 1;
options = 4;
origin = (0,5);
target = (1,5);
type = TTStem;
},
{
options = 4;
origin = (0,8);
target = (1,2);
type = TTStem;
},
{
options = 4;
origin = (1,8);
target = (0,2);
type = TTStem;
}
);
layerId = "92EF81BF-A460-40B9-8F71-75F6CAA5A9CA";
shapes = (
{
closed = 1;
nodes = (
(984,-30,o),
(1140,306,o),
(1140,754,cs),
(1140,1204,o),
(934,1470,o),
(600,1470,cs),
(268,1470,o),
(60,1194,o),
(60,750,cs),
(60,306,o),
(218,-30,o),
(600,-30,cs)
);
},
{
closed = 1;
nodes = (
(394,198,o),
(322,450,o),
(322,734,cs),
(322,1038,o),
(418,1248,o),
(602,1248,cs),
(786,1248,o),
(878,1020,o),
(878,738,cs),
(878,442,o),
(804,198,o),
(598,198,cs)
);
}
);
width = 1200;
}
);
note = O;
unicode = 79;
}
{
glyphname = P;
layers = (
{
anchors = (
{
name = bottom;
pos = (600,0);
},
{
name = top;
pos = (598,1450);
},
{
name = topleft;
pos = (176,1448);
}
);
hints = (
{
horizontal = 1;
options = 4;
origin = (0,1);
target = (1,8);
type = TTStem;
},
{
horizontal = 1;
options = 4;
origin = (0,9);
target = (1,0);
type = TTStem;
}
);
layerId = "63BE41E3-0F49-4E61-A903-F52A2E952C90";
shapes = (
{
closed = 1;
nodes = (
(346,0,l),
(346,610,l),
(600,610,ls),
(850,610,o),
(1090,704,o),
(1090,1030,cs),
(1090,1360,o),
(860,1450,o),
(592,1450,cs),
(170,1450,l),
(170,0,l)
);
},
{
closed = 1;
nodes = (
(346,1302,l),
(576,1302,ls),
(754,1302,o),
(904,1260,o),
(904,1032,cs),
(904,778,o),
(740,756,o),
(526,756,cs),
(346,756,l)
);
}
);
width = 1200;
},
{
anchors = (
{
name = bottom;
pos = (550,0);
},
{
name = top;
pos = (550,1400);
}
);
associatedMasterId = "63BE41E3-0F49-4E61-A903-F52A2E952C90";
background = {
shapes = (
{
closed = 1;
nodes = (
(66,0,l),
(378,0,l),
(378,520,l),
(582,522,ls),
(646,522,o),
(786,526,o),
(864,584,cs),
(938,640,o),
(1034,752,o),
(1034,978,cs),
(1034,1168,o),
(972,1296,o),
(876,1370,cs),
(788,1442,o),
(672,1444,o),
(582,1444,cs),
(66,1444,l),
(66,0,l)
);
},
{
closed = 1;
nodes = (
(518,796,l),
(378,796,l),
(378,1176,l),
(516,1176,ls),
(620,1176,o),
(716,1156,o),
(716,990,cs),
(716,812,o),
(618,796,o),
(518,796,c)
);
}
);
};
layerId = "21E2753D-042D-4D19-89C8-430560CC5AF5";
name = "new Layer";
shapes = (
{
closed = 1;
nodes = (
(370,0,l),
(370,610,l),
(556,610,ls),
(806,610,o),
(1038,704,o),
(1038,1030,cs),
(1038,1360,o),
(816,1450,o),
(548,1450,cs),
(64,1450,l),
(64,0,l)
);
},
{
closed = 1;
nodes = (
(370,1216,l),
(532,1216,ls),
(620,1216,o),
(716,1190,o),
(716,1030,cs),
(716,852,o),
(606,836,o),
(482,836,cs),
(370,836,l)
);
}
);
width = 1200;
},
{
anchors = (
{
name = bottom;
pos = (600,0);
},
{
name = top;
pos = (600,1450);
},
{
name = topleft;
pos = (96,1450);
}
);
hints = (
{
horizontal = 1;
options = 4;
origin = (0,10);
stem = -1;
type = TTSnap;
},
{
horizontal = 1;
options = 4;
origin = (0,1);
target = (1,8);
type = TTStem;
},
{
horizontal = 1;
options = 4;
origin = (0,9);
target = (1,0);
type = TTStem;
}
);
layerId = "F48F13AC-C425-4574-8B52-7DBCB7751002";
shapes = (
{
closed = 1;
nodes = (
(444,0,l),
(444,576,l),
(630,576,ls),
(880,576,o),
(1114,704,o),
(1114,1030,cs),
(1114,1360,o),
(890,1450,o),
(622,1450,cs),
(100,1450,l),
(100,0,l)
);
},
{
closed = 1;
nodes = (
(444,1188,l),
(592,1188,ls),
(672,1188,o),
(760,1164,o),
(760,1030,cs),
(760,852,o),
(660,856,o),
(548,856,cs),
(444,856,l)
);
}
);
width = 1200;
},
{
anchors = (
{
name = bottom;
pos = (569,0);
},
{
name = top;
pos = (567,1450);
},
{
name = topleft;
pos = (159,1448);
}
);
hints = (
{
horizontal = 1;
options = 4;
origin = (0,10);
stem = -1;
type = TTSnap;
},
{
horizontal = 1;
options = 4;
origin = (0,1);
target = (1,8);
type = TTStem;
},
{
horizontal = 1;
options = 4;
origin = (0,9);
target = (1,0);
type = TTStem;
}
);
layerId = "4FB9B80E-81B5-47C9-A539-BB7C5ADDFB58";
shapes = (
{
closed = 1;
nodes = (
(295,0,l),
(295,616,l),
(563,616,ls),
(813,616,o),
(1053,704,o),
(1053,1030,cs),
(1053,1360,o),
(823,1450,o),
(555,1450,cs),
(147,1450,l),
(147,0,l)
);
},
{
closed = 1;
nodes = (
(295,1322,l),
(541,1322,ls),
(735,1322,o),
(895,1276,o),
(895,1032,cs),
(895,766,o),
(721,740,o),
(489,740,cs),
(295,740,l)
);
}
);
width = 1200;
},
{
anchors = (
{
name = bottom;
pos = (600,0);
},
{
name = top;
pos = (600,1450);
},
{
name = topleft;
pos = (136,1450);
}
);
hints = (
{
horizontal = 1;
options = 4;
origin = (0,1);
target = (1,8);
type = TTStem;
},
{
horizontal = 1;
options = 4;
origin = (0,9);
target = (1,0);
type = TTStem;
}
);
layerId = "92EF81BF-A460-40B9-8F71-75F6CAA5A9CA";
shapes = (
{
closed = 1;
nodes = (
(388,0,l),
(388,594,l),
(608,594,ls),
(858,594,o),
(1096,704,o),
(1096,1030,cs),
(1096,1360,o),
(868,1450,o),
(600,1450,cs),
(128,1450,l),
(128,0,l)
);
},
{
closed = 1;
nodes = (
(388,1246,l),
(578,1246,ls),
(706,1246,o),
(826,1212,o),
(826,1032,cs),
(826,816,o),
(694,806,o),
(530,806,cs),
(388,806,l)
);
}
);
width = 1200;
}
);
note = P;
unicode = 80;
}
{
glyphname = Q;
layers = (
{
anchors = (
{
name = bottom;
pos = (600,-288);
},
{
name = center;
pos = (600,726);
},
{
name = ogonek;
pos = (600,-8);
},
{
name = top;
pos = (602,1456);
},
{
name = topleft;
pos = (90,1450);
},
{
name = topright;
pos = (852,1404);
}
);
hints = (
{
horizontal = 1;
options = 4;
origin = (1,0);
target = (1,1);
type = TTStem;
},
{
horizontal = 1;
options = 4;
origin = (0,5);
target = (2,5);
type = TTStem;
}
);
layerId = "63BE41E3-0F49-4E61-A903-F52A2E952C90";
shapes = (
{
closed = 1;
nodes = (
(996,-18,o),
(1132,322,o),
(1132,750,cs),
(1132,1178,o),
(926,1470,o),
(600,1470,cs),
(274,1470,o),
(64,1178,o),
(64,750,cs),
(64,322,o),
(200,-18,o),
(598,-18,cs)
);
},
{
closed = 1;
nodes = (
(1132,-296,l),
(1132,-122,l),
(852,-122,ls),
(750,-122,o),
(688,-58,o),
(688,20,cs),
(688,102,l),
(512,102,l),
(512,4,ls),
(512,-164,o),
(646,-296,o),
(808,-296,cs)
);
},
{
closed = 1;
nodes = (
(338,136,o),
(258,404,o),
(258,750,cs),
(258,1070,o),
(386,1312,o),
(594,1312,cs),
(802,1312,o),
(938,1052,o),
(938,750,cs),
(938,404,o),
(850,136,o),
(594,136,cs)
);
}
);
width = 1200;
},
{
anchors = (
{
name = bottom;
pos = (600,-348);
},
{
name = center;
pos = (600,726);
},
{
name = ogonek;
pos = (600,-8);
},
{
name = top;
pos = (602,1456);
},
{
name = topleft;
pos = (90,1450);
},
{
name = topright;
pos = (852,1388);
}
);
hints = (
{
horizontal = 1;
options = 4;
place = (-24, 135);
type = TTStem;
},
{
horizontal = 1;
options = 4;
place = (1468, 134);
type = TTStem;
}
);
layerId = "F48F13AC-C425-4574-8B52-7DBCB7751002";
shapes = (
{
closed = 1;
nodes = (
(990,-30,o),
(1116,258,o),
(1116,722,cs),
(1116,1200,o),
(954,1470,o),
(604,1470,cs),
(278,1470,o),
(90,1200,o),
(90,722,cs),
(90,258,o),
(246,-30,o),
(598,-30,cs)
);
},
{
closed = 1;
nodes = (
(1126,-366,l),
(1126,-94,l),
(882,-94,ls),
(730,-94,o),
(696,-82,o),
(696,14,cs),
(696,174,l),
(474,174,l),
(474,-42,ls),
(474,-228,o),
(636,-366,o),
(910,-366,cs)
);
},
{
closed = 1;
nodes = (
(442,240,o),
(418,436,o),
(418,720,cs),
(418,978,o),
(442,1190,o),
(602,1190,cs),
(772,1190,o),
(788,978,o),
(788,720,cs),
(788,436,o),
(772,240,o),
(602,240,cs)
);
}
);
width = 1200;
},
{
anchors = (
{
name = bottom;
pos = (603,-278);
},
{
name = center;
pos = (603,726);
},
{
name = ogonek;
pos = (603,-8);
},
{
name = top;
pos = (601,1468);
},
{
name = topleft;
pos = (93,1466);
},
{
name = topright;
pos = (925,1466);
}
);
hints = (
{
horizontal = 1;
options = 4;
place = (-14, 59.167);
type = TTStem;
},
{
horizontal = 1;
options = 4;
place = (1469, 57);
type = TTStem;
}
);
layerId = "4FB9B80E-81B5-47C9-A539-BB7C5ADDFB58";
shapes = (
{
closed = 1;
nodes = (
(1001,-12,o),
(1137,340,o),
(1137,768,cs),
(1137,1194,o),
(923,1470,o),
(601,1470,cs),
(275,1470,o),
(63,1194,o),
(63,768,cs),
(63,340,o),
(195,-12,o),
(601,-12,cs)
);
},
{
closed = 1;
nodes = (
(1137,-278,l),
(1137,-130,l),
(851,-130,ls),
(751,-130,o),
(689,-66,o),
(689,4,cs),
(689,96,l),
(521,96,l),
(521,-14,ls),
(521,-152,o),
(663,-278,o),
(795,-278,cs)
);
},
{
closed = 1;
nodes = (
(329,124,o),
(227,408,o),
(227,770,cs),
(227,1102,o),
(383,1330,o),
(603,1330,cs),
(819,1330,o),
(979,1084,o),
(979,770,cs),
(979,408,o),
(865,124,o),
(597,124,cs)
);
}
);
width = 1200;
},
{
anchors = (
{
name = bottom;
pos = (600,-318);
},
{
name = center;
pos = (600,726);
},
{
name = ogonek;
pos = (600,-8);
},
{
name = top;
pos = (602,1456);
},
{
name = topleft;
pos = (90,1450);
},
{
name = topright;
pos = (852,1396);
}
);
hints = (
{
horizontal = 1;
options = 4;
origin = (1,0);
target = (1,1);
type = TTStem;
},
{
horizontal = 1;
options = 4;
origin = (0,5);
target = (2,5);
type = TTStem;
}
);
layerId = "92EF81BF-A460-40B9-8F71-75F6CAA5A9CA";
shapes = (
{
closed = 1;
nodes = (
(994,-24,o),
(1124,290,o),
(1124,736,cs),
(1124,1190,o),
(940,1470,o),
(602,1470,cs),
(276,1470,o),
(78,1190,o),
(78,736,cs),
(78,290,o),
(224,-24,o),
(598,-24,cs)
);
},
{
closed = 1;
nodes = (
(1130,-332,l),
(1130,-110,l),
(868,-110,ls),
(740,-110,o),
(692,-70,o),
(692,18,cs),
(692,138,l),
(494,138,l),
(494,-20,ls),
(494,-196,o),
(642,-332,o),
(860,-332,cs)
);
},
{
closed = 1;
nodes = (
(390,188,o),
(338,420,o),
(338,736,cs),
(338,1024,o),
(414,1252,o),
(598,1252,cs),
(788,1252,o),
(864,1016,o),
(864,736,cs),
(864,420,o),
(812,188,o),
(598,188,cs)
);
}
);
width = 1200;
}
);
note = Q;
unicode = 81;
}
{
glyphname = R;
layers = (
{
anchors = (
{
name = bottom;
pos = (600,0);
},
{
name = top;
pos = (600,1450);
}
);
layerId = "63BE41E3-0F49-4E61-A903-F52A2E952C90";
shapes = (
{
closed = 1;
nodes = (
(350,0,l),
(350,642,l),
(590,642,ls),
(834,642,o),
(1068,768,o),
(1068,1048,cs),
(1068,1328,o),
(828,1450,o),
(610,1450,cs),
(174,1450,l),
(174,0,l)
);
},
{
closed = 1;
nodes = (
(1106,-8,l),
(752,724,l),
(562,724,l),
(916,-8,l)
);
},
{
closed = 1;
nodes = (
(350,1302,l),
(582,1302,ls),
(736,1302,o),
(886,1252,o),
(886,1050,cs),
(886,824,o),
(726,796,o),
(540,796,cs),
(350,796,l)
);
}
);
width = 1200;
},
{
anchors = (
{
name = bottom;
pos = (550,0);
},
{
name = top;
pos = (550,1400);
}
);
associatedMasterId = "63BE41E3-0F49-4E61-A903-F52A2E952C90";
background = {
shapes = (
{
closed = 1;
nodes = (
(48,0,l),
(370,0,l),
(370,564,l),
(504,564,ls),
(644,564,o),
(654,504,o),
(666,326,cs),
(678,198,o),
(686,88,o),
(704,0,c),
(1052,0,l),
(1022,118,o),
(1014,222,o),
(998,356,cs),
(970,596,o),
(950,700,o),
(736,710,c),
(736,718,l),
(768,724,o),
(836,734,o),
(910,792,cs),
(976,842,o),
(1016,914,o),
(1016,1060,cs),
(1016,1198,o),
(982,1284,o),
(936,1340,cs),
(860,1436,o),
(762,1444,o),
(582,1444,cs),
(48,1444,l),
(48,0,l)
);
},
{
closed = 1;
nodes = (
(490,824,l),
(370,824,l),
(370,1178,l),
(490,1178,ls),
(602,1178,o),
(706,1166,o),
(706,1000,cs),
(706,946,o),
(686,862,o),
(622,836,cs),
(594,822,o),
(560,824,o),
(490,824,c)
);
}
);
};
layerId = "21E2753D-042D-4D19-89C8-430560CC5AF5";
name = "new Layer";
shapes = (
{
closed = 1;
nodes = (
(356,0,l),
(356,564,l),
(422,564,ls),
(652,564,o),
(648,528,o),
(666,322,cs),
(676,202,o),
(664,112,o),
(718,0,c),
(1072,0,l),
(992,98,o),
(984,332,o),
(978,448,cs),
(970,596,o),
(950,700,o),
(736,712,c),
(736,714,o),
(736,716,o),
(736,718,c),
(896,766,o),
(1016,886,o),
(1016,1086,cs),
(1016,1370,o),
(788,1450,o),
(570,1450,cs),
(62,1450,l),
(62,0,l)
);
},
{
closed = 1;
nodes = (
(358,1182,l),
(480,1182,ls),
(592,1182,o),
(716,1160,o),
(716,1010,cs),
(716,846,o),
(584,822,o),
(448,822,cs),
(358,822,l)
);
}
);
width = 1200;
},
{
anchors = (
{
name = bottom;
pos = (600,0);
},
{
name = top;
pos = (600,1450);
}
);
hints = (
{
horizontal = 1;
options = 4;
place = (0, 0);
stem = -1;
type = TTSnap;
},
{
horizontal = 1;
options = 4;
place = (564, 135);
type = TTStem;
},
{
horizontal = 1;
options = 4;
place = (1450, 134);
type = TTStem;
}
);
layerId = "F48F13AC-C425-4574-8B52-7DBCB7751002";
shapes = (
{
closed = 1;
nodes = (
(442,0,l),
(442,540,l),
(600,540,ls),
(926,540,o),
(1132,720,o),
(1132,996,cs),
(1132,1264,o),
(922,1450,o),
(612,1450,cs),
(102,1450,l),
(102,0,l)
);
},
{
closed = 1;
nodes = (
(1188,0,l),
(802,758,l),
(466,758,l),
(836,0,l)
);
},
{
closed = 1;
nodes = (
(442,1168,l),
(584,1168,ls),
(724,1168,o),
(814,1084,o),
(814,998,cs),
(814,912,o),
(724,828,o),
(542,828,cs),
(442,828,l)
);
}
);
width = 1200;
},
{
anchors = (
{
name = bottom;
pos = (560,0);
},
{
name = top;
pos = (560,1450);
}
);
hints = (
{
horizontal = 1;
options = 4;
place = (-40, 2000);
stem = -1;
type = TTSnap;
},
{
horizontal = 1;
options = 4;
place = (634, 67.333);
type = TTStem;
},
{
horizontal = 1;
options = 4;
place = (1410, 64);
type = TTStem;
}
);
layerId = "4FB9B80E-81B5-47C9-A539-BB7C5ADDFB58";
shapes = (
{
closed = 1;
nodes = (
(296,0,l),
(296,660,l),
(544,660,ls),
(774,660,o),
(1016,776,o),
(1016,1056,cs),
(1016,1338,o),
(772,1450,o),
(570,1450,cs),
(148,1450,l),
(148,0,l)
);
},
{
closed = 1;
nodes = (
(1052,-10,l),
(704,718,l),
(538,718,l),
(890,-10,l)
);
},
{
closed = 1;
nodes = (
(296,1324,l),
(542,1324,ls),
(694,1324,o),
(862,1274,o),
(862,1058,cs),
(862,816,o),
(682,790,o),
(500,790,cs),
(296,790,l)
);
}
);
width = 1200;
},
{
anchors = (
{
name = bottom;
pos = (600,0);
},
{
name = top;
pos = (600,1450);
}
);
layerId = "92EF81BF-A460-40B9-8F71-75F6CAA5A9CA";
shapes = (
{
closed = 1;
nodes = (
(396,0,l),
(396,592,l),
(604,592,ls),
(890,592,o),
(1100,744,o),
(1100,1022,cs),
(1100,1296,o),
(874,1450,o),
(610,1450,cs),
(138,1450,l),
(138,0,l)
);
},
{
closed = 1;
nodes = (
(1146,-4,l),
(776,742,l),
(514,742,l),
(876,-4,l)
);
},
{
closed = 1;
nodes = (
(396,1236,l),
(582,1236,ls),
(730,1236,o),
(850,1168,o),
(850,1024,cs),
(850,868,o),
(724,812,o),
(540,812,cs),
(396,812,l)
);
}
);
width = 1200;
}
);
note = R;
unicode = 82;
}
{
glyphname = S;
layers = (
{
anchors = (
{
name = bottom;
pos = (600,4);
},
{
name = top;
pos = (600,1454);
}
);
hints = (
{
horizontal = 1;
options = 4;
origin = (0,3);
target = (0,31);
type = TTStem;
},
{
horizontal = 1;
options = 4;
origin = (0,19);
target = (0,12);
type = TTStem;
},
{
horizontal = 1;
origin = (0,19);
target = (0,12);
type = TTStem;
},
{
horizontal = 1;
origin = (0,3);
target = (0,31);
type = TTStem;
},
{
origin = (0,0);
type = TTSnap;
},
{
origin = (0,34);
type = TTSnap;
},
{
origin = (0,15);
type = TTSnap;
},
{
origin = (0,16);
type = TTSnap;
},
{
origin = (0,9,0);
type = TTSnap;
},
{
origin = (0,28,0);
type = TTSnap;
},
{
origin = (0,22);
type = TTSnap;
},
{
origin = (0,9);
type = TTSnap;
},
{
horizontal = 1;
options = 4;
origin = (0,31);
target = (0,3);
type = TTStem;
}
);
layerId = "63BE41E3-0F49-4E61-A903-F52A2E952C90";
shapes = (
{
closed = 1;
nodes = (
(110,226,l),
(226,86,o),
(380,-22,o),
(592,-22,cs),
(882,-22,o),
(1074,152,o),
(1074,398,cs),
(1074,868,o),
(296,712,o),
(296,1080,cs),
(296,1244,o),
(464,1322,o),
(604,1322,cs),
(734,1322,o),
(846,1258,o),
(932,1160,c),
(1046,1262,l),
(930,1386,o),
(814,1470,o),
(606,1470,cs),
(366,1470,o),
(128,1348,o),
(128,1068,cs),
(128,850,o),
(300,750,o),
(482,686,cs),
(690,612,o),
(914,584,o),
(914,380,cs),
(914,200,o),
(758,126,o),
(582,126,cs),
(466,126,o),
(336,206,o),
(216,334,c)
);
}
);
width = 1200;
},
{
anchors = (
{
name = bottom;
pos = (550,0);
},
{
name = top;
pos = (550,1400);
}
);
associatedMasterId = "63BE41E3-0F49-4E61-A903-F52A2E952C90";
background = {
shapes = (
{
closed = 1;
nodes = (
(548,-32,l),
(694,-32,o),
(822,6,o),
(914,82,cs),
(1006,158,o),
(1062,274,o),
(1062,434,cs),
(1062,720,o),
(904,794,o),
(724,850,cs),
(506,920,ls),
(450,938,o),
(390,970,o),
(390,1068,cs),
(390,1154,o),
(448,1220,o),
(542,1220,cs),
(674,1220,o),
(694,1108,o),
(694,1020,c),
(1020,1020,l),
(1020,1110,o),
(1010,1214,o),
(952,1308,cs),
(912,1372,o),
(844,1426,o),
(740,1458,cs),
(688,1472,o),
(622,1480,o),
(546,1480,cs),
(374,1480,o),
(252,1426,o),
(172,1342,cs),
(94,1258,o),
(58,1146,o),
(58,1028,cs),
(58,754,o),
(224,672,o),
(346,632,cs),
(630,540,ls),
(708,514,o),
(730,470,o),
(730,400,cs),
(730,256,o),
(616,236,o),
(558,236,cs),
(394,236,o),
(362,356,o),
(362,460,c),
(38,460,l),
(38,378,o),
(52,244,o),
(128,140,cs),
(230,-2,o),
(418,-32,o),
(548,-32,c)
);
}
);
};
layerId = "21E2753D-042D-4D19-89C8-430560CC5AF5";
name = "new Layer";
shapes = (
{
closed = 1;
nodes = (
(52,306,l),
(100,94,o),
(286,-32,o),
(548,-32,cs),
(888,-32,o),
(1058,114,o),
(1058,406,cs),
(1058,1006,o),
(352,756,o),
(352,1060,cs),
(352,1172,o),
(454,1220,o),
(542,1220,cs),
(654,1220,o),
(696,1144,o),
(724,1072,c),
(1010,1172,l),
(976,1278,o),
(894,1480,o),
(546,1480,cs),
(208,1480,o),
(58,1268,o),
(58,1028,cs),
(58,512,o),
(750,712,o),
(750,404,cs),
(750,278,o),
(646,236,o),
(558,236,cs),
(494,236,o),
(374,258,o),
(334,400,c)
);
}
);
width = 1200;
},
{
anchors = (
{
name = bottom;
pos = (606,-2);
},
{
name = top;
pos = (606,1470);
}
);
hints = (
{
horizontal = 1;
options = 4;
place = (24, 133);
type = TTStem;
},
{
horizontal = 1;
options = 4;
place = (1530, 130);
type = TTStem;
}
);
layerId = "F48F13AC-C425-4574-8B52-7DBCB7751002";
shapes = (
{
closed = 1;
nodes = (
(62,278,l),
(178,134,o),
(346,-14,o),
(602,-14,cs),
(918,-14,o),
(1134,150,o),
(1134,448,cs),
(1134,912,o),
(444,822,o),
(444,1062,cs),
(444,1142,o),
(512,1192,o),
(628,1192,cs),
(756,1192,o),
(828,1140,o),
(922,1058,c),
(1130,1248,l),
(992,1396,o),
(846,1464,o),
(644,1464,cs),
(308,1464,o),
(128,1284,o),
(128,1060,cs),
(128,836,o),
(288,722,o),
(488,638,cs),
(680,556,o),
(788,556,o),
(788,430,cs),
(788,332,o),
(726,278,o),
(604,278,cs),
(488,278,o),
(392,350,o),
(288,466,c)
);
}
);
width = 1200;
},
{
anchors = (
{
name = bottom;
pos = (607,0);
},
{
name = top;
pos = (613,1448);
}
);
hints = (
{
horizontal = 1;
options = 4;
origin = (0,3);
target = (0,31);
type = TTStem;
},
{
horizontal = 1;
options = 4;
origin = (0,19);
target = (0,12);
type = TTStem;
}
);
layerId = "4FB9B80E-81B5-47C9-A539-BB7C5ADDFB58";
shapes = (
{
closed = 1;
nodes = (
(125,222,l),
(239,80,o),
(391,-20,o),
(605,-20,cs),
(889,-20,o),
(1075,166,o),
(1075,398,cs),
(1075,876,o),
(293,710,o),
(293,1096,cs),
(293,1280,o),
(471,1338,o),
(609,1338,cs),
(759,1338,o),
(861,1276,o),
(947,1180,c),
(1043,1264,l),
(923,1388,o),
(817,1466,o),
(605,1466,cs),
(325,1466,o),
(155,1332,o),
(155,1108,cs),
(155,882,o),
(331,776,o),
(497,712,cs),
(705,630,o),
(943,596,o),
(943,388,cs),
(943,202,o),
(753,110,o),
(593,110,cs),
(447,110,o),
(333,188,o),
(211,316,c)
);
}
);
width = 1200;
},
{
anchors = (
{
name = bottom;
pos = (600,2);
},
{
name = top;
pos = (600,1458);
}
);
hints = (
{
horizontal = 1;
options = 4;
origin = (0,3);
target = (0,31);
type = TTStem;
},
{
horizontal = 1;
options = 4;
origin = (0,19);
target = (0,12);
type = TTStem;
},
{
horizontal = 1;
origin = (0,19);
target = (0,12);
type = TTStem;
},
{
horizontal = 1;
origin = (0,3);
target = (0,31);
type = TTStem;
},
{
origin = (0,0);
type = TTSnap;
},
{
origin = (0,34);
type = TTSnap;
},
{
origin = (0,15);
type = TTSnap;
},
{
origin = (0,16);
type = TTSnap;
},
{
origin = (0,9,0);
type = TTSnap;
},
{
origin = (0,28,0);
type = TTSnap;
},
{
origin = (0,22);
type = TTSnap;
},
{
origin = (0,9);
type = TTSnap;
},
{
horizontal = 1;
options = 4;
origin = (0,31);
target = (0,3);
type = TTStem;
}
);
layerId = "92EF81BF-A460-40B9-8F71-75F6CAA5A9CA";
shapes = (
{
closed = 1;
nodes = (
(76,252,l),
(194,110,o),
(356,-18,o),
(594,-18,cs),
(900,-18,o),
(1106,152,o),
(1106,424,cs),
(1106,890,o),
(364,768,o),
(364,1072,cs),
(364,1200,o),
(484,1258,o),
(612,1258,cs),
(744,1258,o),
(836,1200,o),
(928,1110,c),
(1090,1256,l),
(962,1392,o),
(832,1470,o),
(624,1470,cs),
(332,1470,o),
(118,1316,o),
(118,1064,cs),
(118,844,o),
(286,738,o),
(480,662,cs),
(682,584,o),
(850,570,o),
(850,406,cs),
(850,266,o),
(740,202,o),
(590,202,cs),
(472,202,o),
(358,278,o),
(244,400,c)
);
}
);
width = 1200;
}
);
note = S;
unicode = 83;
}
{
glyphname = T;
layers = (
{
anchors = (
{
name = bottom;
pos = (600,0);
},
{
name = center;
pos = (600,700);
},
{
name = top;
pos = (600,1450);
},
{
name = topleft;
pos = (90,1450);
}
);
hints = (
{
horizontal = 1;
origin = (0,4);
target = (0,5);
type = TTStem;
},
{
options = 4;
origin = (0,7);
target = (0,0);
type = TTStem;
},
{
horizontal = 1;
options = 4;
origin = (0,4);
target = (0,5);
type = TTStem;
}
);
layerId = "63BE41E3-0F49-4E61-A903-F52A2E952C90";
shapes = (
{
closed = 1;
nodes = (
(682,0,l),
(682,1298,l),
(1108,1298,l),
(1108,1450,l),
(90,1450,l),
(90,1298,l),
(516,1298,l),
(516,0,l)
);
}
);
width = 1200;
},
{
anchors = (
{
name = bottom;
pos = (550,0);
},
{
name = center;
pos = (550,700);
},
{
name = top;
pos = (550,1400);
}
);
associatedMasterId = "63BE41E3-0F49-4E61-A903-F52A2E952C90";
background = {
shapes = (
{
closed = 1;
nodes = (
(382,0,l),
(708,0,l),
(708,1158,l),
(1070,1158,l),
(1070,1444,l),
(28,1444,l),
(28,1158,l),
(382,1158,l),
(382,0,l)
);
}
);
};
layerId = "21E2753D-042D-4D19-89C8-430560CC5AF5";
name = "new Layer";
shapes = (
{
closed = 1;
nodes = (
(710,0,l),
(710,1158,l),
(1066,1158,l),
(1066,1450,l),
(30,1450,l),
(30,1158,l),
(388,1158,l),
(388,0,l)
);
}
);
width = 1200;
},
{
anchors = (
{
name = bottom;
pos = (600,0);
},
{
name = center;
pos = (600,700);
},
{
name = top;
pos = (600,1450);
},
{
name = topleft;
pos = (76,1450);
}
);
background = {
shapes = (
{
closed = 1;
nodes = (
(382,0,l),
(708,0,l),
(708,1158,l),
(1070,1158,l),
(1070,1444,l),
(28,1444,l),
(28,1158,l),
(382,1158,l),
(382,0,l)
);
}
);
};
hints = (
{
horizontal = 1;
options = 4;
origin = (0,7);
stem = -1;
type = TTSnap;
},
{
horizontal = 1;
options = 4;
origin = (0,4);
target = (0,5);
type = TTStem;
}
);
layerId = "F48F13AC-C425-4574-8B52-7DBCB7751002";
shapes = (
{
closed = 1;
nodes = (
(776,0,l),
(776,1146,l),
(1124,1146,l),
(1124,1450,l),
(76,1450,l),
(76,1146,l),
(428,1146,l),
(428,0,l)
);
}
);
width = 1200;
},
{
anchors = (
{
name = bottom;
pos = (601,0);
},
{
name = center;
pos = (601,700);
},
{
name = top;
pos = (601,1450);
},
{
name = topleft;
pos = (93,1450);
}
);
hints = (
{
horizontal = 1;
options = 4;
origin = (0,7);
stem = -1;
type = TTSnap;
},
{
horizontal = 1;
options = 4;
origin = (0,4);
target = (0,5);
type = TTStem;
}
);
layerId = "4FB9B80E-81B5-47C9-A539-BB7C5ADDFB58";
shapes = (
{
closed = 1;
nodes = (
(675,0,l),
(675,1320,l),
(1107,1320,l),
(1107,1450,l),
(93,1450,l),
(93,1320,l),
(527,1320,l),
(527,0,l)
);
}
);
width = 1200;
},
{
anchors = (
{
name = bottom;
pos = (600,0);
},
{
name = center;
pos = (600,700);
},
{
name = top;
pos = (600,1450);
},
{
name = topleft;
pos = (84,1450);
}
);
hints = (
{
horizontal = 1;
origin = (0,4);
target = (0,5);
type = TTStem;
},
{
options = 4;
origin = (0,7);
target = (0,0);
type = TTStem;
},
{
horizontal = 1;
options = 4;
origin = (0,4);
target = (0,5);
type = TTStem;
}
);
layerId = "92EF81BF-A460-40B9-8F71-75F6CAA5A9CA";
shapes = (
{
closed = 1;
nodes = (
(730,0,l),
(730,1222,l),
(1116,1222,l),
(1116,1450,l),
(84,1450,l),
(84,1222,l),
(472,1222,l),
(472,0,l)
);
}
);
width = 1200;
}
);
note = T;
unicode = 84;
}
{
glyphname = U;
layers = (
{
anchors = (
{
name = bottom;
pos = (600,0);
},
{
name = ogonek;
pos = (736,48);
},
{
name = top;
pos = (600,1454);
},
{
name = topright;
pos = (1082,1454);
}
);
hints = (
{
horizontal = 1;
options = 4;
origin = (0,17);
target = (0,8);
type = TTStem;
}
);
layerId = "63BE41E3-0F49-4E61-A903-F52A2E952C90";
shapes = (
{
closed = 1;
nodes = (
(989,-16,o),
(1082,158,o),
(1082,592,cs),
(1082,1454,l),
(908,1454,l),
(908,597,ls),
(908,240,o),
(823,133,o),
(600,133,cs),
(367,133,o),
(288,240,o),
(288,597,cs),
(288,1454,l),
(116,1454,l),
(116,592,ls),
(116,158,o),
(253,-16,o),
(600,-16,cs)
);
}
);
width = 1200;
},
{
anchors = (
{
name = bottom;
pos = (550,0);
},
{
name = ogonek;
pos = (990,20);
},
{
name = top;
pos = (550,1400);
},
{
name = topright;
pos = (1060,1400);
}
);
associatedMasterId = "63BE41E3-0F49-4E61-A903-F52A2E952C90";
background = {
shapes = (
{
closed = 1;
nodes = (
(546,-38,l),
(692,-38,o),
(878,0,o),
(978,168,cs),
(1046,274,o),
(1062,452,o),
(1062,608,cs),
(1062,1444,l),
(772,1444,l),
(772,600,ls),
(772,422,o),
(732,250,o),
(558,250,cs),
(484,250,o),
(414,288,o),
(374,368,cs),
(344,430,o),
(340,508,o),
(340,586,cs),
(340,1444,l),
(40,1444,l),
(38,622,ls),
(38,542,o),
(38,444,o),
(56,346,cs),
(66,296,o),
(80,250,o),
(102,204,cs),
(144,112,o),
(218,36,o),
(334,-6,cs),
(392,-28,o),
(462,-38,o),
(546,-38,c)
);
}
);
};
layerId = "21E2753D-042D-4D19-89C8-430560CC5AF5";
name = "new Layer";
shapes = (
{
closed = 1;
nodes = (
(954,-28,o),
(1066,216,o),
(1066,586,cs),
(1066,1450,l),
(770,1450,l),
(770,622,ls),
(770,386,o),
(734,250,o),
(560,250,cs),
(386,250,o),
(340,368,o),
(340,622,cs),
(340,1450,l),
(36,1450,l),
(36,586,ls),
(36,216,o),
(146,-28,o),
(550,-28,cs)
);
}
);
width = 1200;
},
{
anchors = (
{
name = bottom;
pos = (600,0);
},
{
name = ogonek;
pos = (600,-8);
},
{
name = top;
pos = (600,1454);
},
{
name = topright;
pos = (1094,1450);
}
);
hints = (
{
horizontal = 1;
options = 4;
origin = (0,17);
target = (0,8);
type = TTStem;
},
{
horizontal = 1;
options = 4;
origin = (0,13);
stem = -1;
type = TTSnap;
}
);
layerId = "F48F13AC-C425-4574-8B52-7DBCB7751002";
shapes = (
{
closed = 1;
nodes = (
(990,-26,o),
(1098,206,o),
(1098,596,cs),
(1098,1450,l),
(758,1450,l),
(758,612,ls),
(758,368,o),
(734,262,o),
(604,262,cs),
(472,262,o),
(444,368,o),
(444,612,cs),
(444,1450,l),
(104,1450,l),
(104,596,ls),
(104,206,o),
(210,-26,o),
(600,-26,cs)
);
}
);
width = 1200;
},
{
anchors = (
{
name = bottom;
pos = (601,0);
},
{
name = ogonek;
pos = (759,58);
},
{
name = top;
pos = (601,1456);
},
{
name = topright;
pos = (1081,1454);
}
);
hints = (
{
horizontal = 1;
options = 4;
origin = (0,17);
target = (0,8);
type = TTStem;
},
{
horizontal = 1;
options = 4;
origin = (0,13);
stem = -1;
type = TTSnap;
}
);
layerId = "4FB9B80E-81B5-47C9-A539-BB7C5ADDFB58";
shapes = (
{
closed = 1;
nodes = (
(902,-16,o),
(1081,136,o),
(1081,575,cs),
(1081,1450,l),
(929,1450,l),
(929,624,ls),
(929,238,o),
(852,121,o),
(600,121,cs),
(364,121,o),
(271,238,o),
(271,624,cs),
(271,1450,l),
(119,1450,l),
(119,575,ls),
(119,136,o),
(288,-16,o),
(600,-16,cs)
);
}
);
width = 1200;
},
{
anchors = (
{
name = bottom;
pos = (600,0);
},
{
name = ogonek;
pos = (668,20);
},
{
name = top;
pos = (600,1454);
},
{
name = topright;
pos = (1088,1452);
}
);
hints = (
{
horizontal = 1;
options = 4;
origin = (0,17);
target = (0,8);
type = TTStem;
}
);
layerId = "92EF81BF-A460-40B9-8F71-75F6CAA5A9CA";
shapes = (
{
closed = 1;
nodes = (
(990,-22,o),
(1088,174,o),
(1088,590,cs),
(1088,1452,l),
(832,1452,l),
(832,600,ls),
(832,309,o),
(780,198,o),
(608,198,cs),
(424,198,o),
(366,309,o),
(366,600,cs),
(366,1452,l),
(112,1452,l),
(112,590,ls),
(112,174,o),
(236,-22,o),
(600,-22,cs)
);
}
);
width = 1200;
}
);
note = U;
unicode = 85;
}
{
glyphname = V;
layers = (
{
anchors = (
{
name = bottom;
pos = (600,0);
},
{
name = top;
pos = (600,1450);
}
);
hints = (
{
horizontal = 1;
options = 4;
origin = (0,6);
target = (0,3);
type = TTStem;
}
);
layerId = "63BE41E3-0F49-4E61-A903-F52A2E952C90";
shapes = (
{
closed = 1;
nodes = (
(690,0,l),
(1106,1450,l),
(938,1450,l),
(602,190,l),
(256,1450,l),
(92,1450,l),
(502,0,l)
);
}
);
width = 1200;
},
{
anchors = (
{
name = bottom;
pos = (550,0);
},
{
name = top;
pos = (550,1400);
}
);
associatedMasterId = "63BE41E3-0F49-4E61-A903-F52A2E952C90";
background = {
shapes = (
{
closed = 1;
nodes = (
(382,0,l),
(708,0,l),
(1068,1444,l),
(796,1444,l),
(560,398,l),
(336,1444,l),
(32,1444,l),
(382,0,l)
);
}
);
};
layerId = "21E2753D-042D-4D19-89C8-430560CC5AF5";
name = "new Layer";
shapes = (
{
closed = 1;
nodes = (
(716,0,l),
(1068,1450,l),
(766,1450,l),
(560,422,l),
(338,1450,l),
(30,1450,l),
(382,0,l)
);
}
);
width = 1200;
},
{
anchors = (
{
name = bottom;
pos = (600,0);
},
{
name = top;
pos = (600,1450);
}
);
background = {
shapes = (
{
closed = 1;
nodes = (
(382,0,l),
(708,0,l),
(1068,1444,l),
(796,1444,l),
(560,398,l),
(336,1444,l),
(32,1444,l),
(382,0,l)
);
}
);
};
hints = (
{
horizontal = 1;
options = 4;
origin = (0,6);
stem = -1;
type = TTSnap;
},
{
horizontal = 1;
options = 4;
origin = (0,5);
stem = -1;
type = TTSnap;
}
);
layerId = "F48F13AC-C425-4574-8B52-7DBCB7751002";
shapes = (
{
closed = 1;
nodes = (
(766,0,l),
(1118,1450,l),
(764,1450,l),
(600,526,l),
(440,1450,l),
(80,1450,l),
(432,0,l)
);
}
);
width = 1200;
},
{
anchors = (
{
name = bottom;
pos = (601,0);
},
{
name = top;
pos = (601,1450);
}
);
hints = (
{
horizontal = 1;
options = 4;
origin = (0,6);
stem = -1;
type = TTSnap;
},
{
horizontal = 1;
options = 4;
origin = (0,5);
stem = -1;
type = TTSnap;
},
{
horizontal = 1;
options = 4;
origin = (0,6);
target = (0,3);
type = TTStem;
}
);
layerId = "4FB9B80E-81B5-47C9-A539-BB7C5ADDFB58";
shapes = (
{
closed = 1;
nodes = (
(679,0,l),
(1105,1450,l),
(959,1450,l),
(603,176,l),
(247,1450,l),
(95,1450,l),
(517,0,l)
);
}
);
width = 1200;
},
{
anchors = (
{
name = bottom;
pos = (600,0);
},
{
name = top;
pos = (600,1450);
}
);
hints = (
{
horizontal = 1;
options = 4;
origin = (0,6);
target = (0,3);
type = TTStem;
}
);
layerId = "92EF81BF-A460-40B9-8F71-75F6CAA5A9CA";
shapes = (
{
closed = 1;
nodes = (
(728,0,l),
(1112,1450,l),
(852,1450,l),
(602,358,l),
(348,1450,l),
(86,1450,l),
(468,0,l)
);
}
);
width = 1200;
}
);
note = V;
unicode = 86;
}
{
glyphname = W;
layers = (
{
anchors = (
{
name = bottom;
pos = (600,0);
},
{
name = top;
pos = (600,1450);
}
);
layerId = "63BE41E3-0F49-4E61-A903-F52A2E952C90";
shapes = (
{
closed = 1;
nodes = (
(466,0,l),
(590,694,l),
(594,746,l),
(608,746,l),
(610,694,l),
(720,0,l),
(970,0,l),
(1094,1450,l),
(922,1450,l),
(856,226,l),
(828,224,l),
(674,1110,l),
(528,1110,l),
(372,224,l),
(344,226,l),
(274,1450,l),
(104,1450,l),
(224,0,l)
);
}
);
width = 1200;
},
{
anchors = (
{
name = bottom;
pos = (550,0);
},
{
name = top;
pos = (550,1400);
}
);
associatedMasterId = "63BE41E3-0F49-4E61-A903-F52A2E952C90";
background = {
shapes = (
{
closed = 1;
nodes = (
(150,0,l),
(410,0,l),
(554,1070,l),
(688,0,l),
(948,0,l),
(1082,1444,l),
(886,1444,l),
(814,400,l),
(698,1444,l),
(434,1444,l),
(306,392,l),
(234,1444,l),
(18,1444,l),
(150,0,l)
);
}
);
};
layerId = "21E2753D-042D-4D19-89C8-430560CC5AF5";
name = "new Layer";
shapes = (
{
closed = 1;
nodes = (
(430,0,l),
(536,508,l),
(538,560,l),
(564,560,l),
(566,508,l),
(656,0,l),
(982,0,l),
(1082,1450,l),
(822,1450,l),
(788,598,l),
(756,596,l),
(684,1272,l),
(418,1272,l),
(344,596,l),
(312,598,l),
(274,1450,l),
(8,1450,l),
(104,0,l)
);
}
);
width = 1200;
},
{
anchors = (
{
name = bottom;
pos = (600,0);
},
{
name = top;
pos = (600,1450);
}
);
background = {
shapes = (
{
closed = 1;
nodes = (
(150,0,l),
(410,0,l),
(554,1070,l),
(688,0,l),
(948,0,l),
(1082,1444,l),
(886,1444,l),
(814,400,l),
(698,1444,l),
(434,1444,l),
(306,392,l),
(234,1444,l),
(18,1444,l),
(150,0,l)
);
}
);
};
hints = (
{
horizontal = 1;
options = 4;
origin = (0,17);
stem = -1;
type = TTSnap;
},
{
horizontal = 1;
options = 4;
origin = (0,16);
stem = -1;
type = TTSnap;
}
);
layerId = "F48F13AC-C425-4574-8B52-7DBCB7751002";
shapes = (
{
closed = 1;
nodes = (
(484,0,l),
(564,442,l),
(578,454,l),
(614,454,l),
(626,442,l),
(702,0,l),
(1016,0,l),
(1148,1450,l),
(868,1450,l),
(810,670,l),
(764,680,l),
(674,1086,l),
(528,1086,l),
(438,680,l),
(388,670,l),
(326,1450,l),
(42,1450,l),
(170,0,l)
);
}
);
width = 1200;
},
{
anchors = (
{
name = bottom;
pos = (600,0);
},
{
name = top;
pos = (600,1450);
}
);
hints = (
{
horizontal = 1;
options = 4;
origin = (0,16);
stem = -1;
type = TTSnap;
}
);
layerId = "4FB9B80E-81B5-47C9-A539-BB7C5ADDFB58";
shapes = (
{
closed = 1;
nodes = (
(484,0,l),
(596,700,l),
(596,714,l),
(608,714,l),
(608,700,l),
(704,0,l),
(962,0,l),
(1086,1450,l),
(930,1450,l),
(844,138,l),
(820,128,l),
(670,1046,l),
(532,1046,l),
(380,128,l),
(360,138,l),
(266,1450,l),
(114,1450,l),
(234,0,l)
);
}
);
width = 1200;
},
{
anchors = (
{
name = bottom;
pos = (600,0);
},
{
name = top;
pos = (600,1450);
}
);
layerId = "92EF81BF-A460-40B9-8F71-75F6CAA5A9CA";
shapes = (
{
closed = 1;
nodes = (
(484,0,l),
(580,552,l),
(588,584,l),
(610,584,l),
(618,552,l),
(704,0,l),
(994,0,l),
(1122,1450,l),
(894,1450,l),
(832,448,l),
(796,452,l),
(674,1098,l),
(528,1098,l),
(406,452,l),
(368,448,l),
(302,1450,l),
(74,1450,l),
(198,0,l)
);
}
);
width = 1200;
}
);
note = W;
unicode = 87;
}
{
glyphname = X;
layers = (
{
anchors = (
{
name = bottom;
pos = (600,0);
},
{
name = bottomright;
pos = (1030,-94);
},
{
name = top;
pos = (600,1450);
}
);
layerId = "63BE41E3-0F49-4E61-A903-F52A2E952C90";
shapes = (
{
closed = 1;
nodes = (
(280,0,l),
(598,622,l),
(918,0,l),
(1106,0,l),
(688,774,l),
(1068,1450,l),
(882,1450,l),
(592,904,l),
(312,1450,l),
(116,1450,l),
(502,752,l),
(96,0,l)
);
}
);
width = 1200;
},
{
anchors = (
{
name = bottom;
pos = (550,0);
},
{
name = top;
pos = (550,1400);
}
);
associatedMasterId = "63BE41E3-0F49-4E61-A903-F52A2E952C90";
background = {
shapes = (
{
closed = 1;
nodes = (
(14,0,l),
(324,0,l),
(536,514,l),
(746,0,l),
(1086,0,l),
(728,760,l),
(1070,1444,l),
(764,1444,l),
(570,996,l),
(382,1444,l),
(40,1444,l),
(378,752,l),
(14,0,l)
);
}
);
};
layerId = "21E2753D-042D-4D19-89C8-430560CC5AF5";
name = "new Layer";
shapes = (
{
closed = 1;
nodes = (
(352,0,l),
(548,514,l),
(746,0,l),
(1056,0,l),
(748,774,l),
(1018,1450,l),
(730,1450,l),
(542,1012,l),
(364,1450,l),
(66,1450,l),
(342,752,l),
(46,0,l)
);
}
);
width = 1200;
},
{
anchors = (
{
name = bottom;
pos = (600,0);
},
{
name = bottomright;
pos = (976,-70);
},
{
name = top;
pos = (600,1450);
}
);
background = {
shapes = (
{
closed = 1;
nodes = (
(14,0,l),
(324,0,l),
(536,514,l),
(746,0,l),
(1086,0,l),
(728,760,l),
(1070,1444,l),
(764,1444,l),
(570,996,l),
(382,1444,l),
(40,1444,l),
(378,752,l),
(14,0,l)
);
}
);
};
hints = (
{
horizontal = 1;
options = 4;
origin = (0,11);
stem = -1;
type = TTSnap;
},
{
horizontal = 1;
options = 4;
origin = (0,7);
stem = -1;
type = TTSnap;
},
{
horizontal = 1;
options = 4;
origin = (0,9);
stem = -1;
type = TTSnap;
}
);
layerId = "F48F13AC-C425-4574-8B52-7DBCB7751002";
shapes = (
{
closed = 1;
nodes = (
(448,0,l),
(598,470,l),
(750,0,l),
(1120,0,l),
(804,784,l),
(1080,1450,l),
(736,1450,l),
(596,1056,l),
(458,1450,l),
(102,1450,l),
(366,764,l),
(82,0,l)
);
}
);
width = 1200;
},
{
anchors = (
{
name = bottom;
pos = (599,0);
},
{
name = bottomright;
pos = (1035,-98);
},
{
name = top;
pos = (599,1450);
}
);
hints = (
{
horizontal = 1;
options = 4;
origin = (0,11);
stem = -1;
type = TTSnap;
},
{
horizontal = 1;
options = 4;
origin = (0,9);
stem = -1;
type = TTSnap;
}
);
layerId = "4FB9B80E-81B5-47C9-A539-BB7C5ADDFB58";
shapes = (
{
closed = 1;
nodes = (
(255,0,l),
(601,622,l),
(949,0,l),
(1109,0,l),
(685,776,l),
(1077,1450,l),
(917,1450,l),
(601,884,l),
(281,1450,l),
(115,1450,l),
(507,748,l),
(91,0,l)
);
}
);
width = 1200;
},
{
anchors = (
{
name = bottom;
pos = (600,0);
},
{
name = bottomright;
pos = (988,-70);
},
{
name = top;
pos = (600,1450);
}
);
layerId = "92EF81BF-A460-40B9-8F71-75F6CAA5A9CA";
shapes = (
{
closed = 1;
nodes = (
(366,0,l),
(598,546,l),
(832,0,l),
(1106,0,l),
(766,770,l),
(1068,1450,l),
(808,1450,l),
(592,980,l),
(388,1450,l),
(116,1450,l),
(426,758,l),
(96,0,l)
);
}
);
width = 1200;
}
);
note = X;
unicode = 88;
}
